G75*
G70*
%OFA0B0*%
%FSLAX24Y24*%
%IPPOS*%
%LPD*%
%AMOC8*
5,1,8,0,0,1.08239X$1,22.5*
%
%ADD10C,0.0080*%
%ADD11C,0.0100*%
%ADD12C,0.0040*%
D10*
X016113Y018592D02*
X016113Y021584D01*
X018161Y021584D02*
X018161Y018592D01*
X016113Y018592D01*
D11*
X025678Y002003D02*
X028119Y002003D01*
X028119Y004995D01*
X025678Y004995D01*
X025678Y005192D02*
X028119Y005192D01*
X028119Y004995D01*
X025678Y005192D02*
X025678Y002003D01*
D12*
X026042Y002387D02*
X026058Y002399D01*
X026072Y002414D01*
X026082Y002431D01*
X026090Y002450D01*
X026094Y002470D01*
X026094Y002490D01*
X026090Y002510D01*
X026082Y002529D01*
X026072Y002546D01*
X026058Y002561D01*
X026042Y002573D01*
X026043Y002574D02*
X026027Y002586D01*
X026013Y002601D01*
X026003Y002618D01*
X025995Y002637D01*
X025991Y002657D01*
X025991Y002677D01*
X025995Y002697D01*
X026003Y002716D01*
X026013Y002733D01*
X026027Y002748D01*
X026043Y002760D01*
X027755Y002761D02*
X027755Y002387D01*
X027755Y004434D02*
X027755Y004808D01*
X027942Y004621D02*
X027568Y004621D01*
X026043Y004622D02*
X026027Y004634D01*
X026013Y004649D01*
X026003Y004666D01*
X025995Y004685D01*
X025991Y004705D01*
X025991Y004725D01*
X025995Y004745D01*
X026003Y004764D01*
X026013Y004781D01*
X026027Y004796D01*
X026043Y004808D01*
X026042Y004621D02*
X026058Y004609D01*
X026072Y004594D01*
X026082Y004577D01*
X026090Y004558D01*
X026094Y004538D01*
X026094Y004518D01*
X026090Y004498D01*
X026082Y004479D01*
X026072Y004462D01*
X026058Y004447D01*
X026042Y004435D01*
M02*
