G75*
G70*
%OFA0B0*%
%FSLAX24Y24*%
%IPPOS*%
%LPD*%
%AMOC8*
5,1,8,0,0,1.08239X$1,22.5*
%
%ADD10C,0.1512*%
%ADD11C,0.0624*%
%ADD12R,0.0693X0.0614*%
%ADD13R,0.0614X0.0693*%
%ADD14OC8,0.0803*%
%ADD15C,0.0803*%
%ADD16R,0.0618X0.0165*%
%ADD17C,0.0624*%
%ADD18R,0.0732X0.0614*%
%ADD19C,0.0720*%
%ADD20C,0.0672*%
%ADD21R,0.0614X0.0732*%
%ADD22C,0.0712*%
%ADD23C,0.1200*%
%ADD24OC8,0.0624*%
%ADD25R,0.0882X0.0803*%
%ADD26R,0.0850X0.1402*%
%ADD27C,0.0523*%
D10*
X003123Y010111D03*
X001495Y031605D03*
X031443Y037847D03*
X038333Y022107D03*
X062205Y033288D03*
X062185Y007682D03*
D11*
X018233Y015396D03*
X016333Y015396D03*
D12*
X016335Y014733D03*
X016335Y013985D03*
X018170Y013999D03*
X018170Y014747D03*
X024805Y012843D03*
X024805Y012095D03*
X029698Y012245D03*
X029698Y012993D03*
X034698Y012993D03*
X034698Y012245D03*
X039698Y012245D03*
X039698Y012993D03*
X044698Y012993D03*
X044698Y012245D03*
X049698Y012245D03*
X049698Y012993D03*
X054698Y012993D03*
X054698Y012245D03*
X059698Y012245D03*
X059698Y012993D03*
X059920Y027823D03*
X059920Y028571D03*
X054924Y028571D03*
X054924Y027823D03*
X049910Y027823D03*
X049910Y028571D03*
X044910Y028571D03*
X044910Y027823D03*
X039905Y027823D03*
X039905Y028571D03*
X034902Y028571D03*
X034902Y027823D03*
X029902Y027823D03*
X029902Y028571D03*
X024920Y028571D03*
X024920Y027823D03*
X036356Y004875D03*
X036356Y004127D03*
D13*
X017862Y017774D03*
X017114Y017774D03*
X016208Y029193D03*
X015460Y029193D03*
D14*
X010358Y026554D03*
D15*
X011358Y026554D03*
D16*
X015710Y021239D03*
X015710Y020983D03*
X015710Y020728D03*
X015710Y020472D03*
X015710Y020216D03*
X015710Y019960D03*
X015710Y019704D03*
X015710Y019448D03*
X015710Y019192D03*
X015710Y018936D03*
X018564Y018936D03*
X018564Y019192D03*
X018564Y019448D03*
X018564Y019704D03*
X018564Y019960D03*
X018564Y020216D03*
X018564Y020472D03*
X018564Y020728D03*
X018564Y020983D03*
X018564Y021239D03*
D17*
X022805Y017729D02*
X022805Y017209D01*
X023805Y017209D02*
X023805Y017729D01*
X024805Y017729D02*
X024805Y017209D01*
X027805Y017209D02*
X027805Y017729D01*
X028805Y017729D02*
X028805Y017209D01*
X029805Y017209D02*
X029805Y017729D01*
X032805Y017729D02*
X032805Y017209D01*
X033805Y017209D02*
X033805Y017729D01*
X034805Y017729D02*
X034805Y017209D01*
X037805Y017209D02*
X037805Y017729D01*
X038805Y017729D02*
X038805Y017209D01*
X039805Y017209D02*
X039805Y017729D01*
X042805Y017729D02*
X042805Y017209D01*
X043805Y017209D02*
X043805Y017729D01*
X044805Y017729D02*
X044805Y017209D01*
X047805Y017209D02*
X047805Y017729D01*
X048805Y017729D02*
X048805Y017209D01*
X049805Y017209D02*
X049805Y017729D01*
X052805Y017729D02*
X052805Y017209D01*
X053805Y017209D02*
X053805Y017729D01*
X054805Y017729D02*
X054805Y017209D01*
X057805Y017209D02*
X057805Y017729D01*
X058805Y017729D02*
X058805Y017209D01*
X059805Y017209D02*
X059805Y017729D01*
X059805Y014729D02*
X059805Y014209D01*
X058805Y014209D02*
X058805Y014729D01*
X057805Y014729D02*
X057805Y014209D01*
X054805Y014209D02*
X054805Y014729D01*
X053805Y014729D02*
X053805Y014209D01*
X052805Y014209D02*
X052805Y014729D01*
X049805Y014729D02*
X049805Y014209D01*
X048805Y014209D02*
X048805Y014729D01*
X047805Y014729D02*
X047805Y014209D01*
X044805Y014209D02*
X044805Y014729D01*
X043805Y014729D02*
X043805Y014209D01*
X042805Y014209D02*
X042805Y014729D01*
X039805Y014729D02*
X039805Y014209D01*
X038805Y014209D02*
X038805Y014729D01*
X037805Y014729D02*
X037805Y014209D01*
X034805Y014209D02*
X034805Y014729D01*
X033805Y014729D02*
X033805Y014209D01*
X032805Y014209D02*
X032805Y014729D01*
X029805Y014729D02*
X029805Y014209D01*
X028805Y014209D02*
X028805Y014729D01*
X027805Y014729D02*
X027805Y014209D01*
X024805Y014209D02*
X024805Y014729D01*
X023805Y014729D02*
X023805Y014209D01*
X022805Y014209D02*
X022805Y014729D01*
X033766Y006601D02*
X033766Y006081D01*
X034596Y006331D02*
X035116Y006331D01*
X035116Y005331D02*
X034596Y005331D01*
X034596Y004331D02*
X035116Y004331D01*
X035116Y003331D02*
X034596Y003331D01*
X033766Y002601D02*
X033766Y002081D01*
X037596Y003331D02*
X038116Y003331D01*
X038116Y004331D02*
X037596Y004331D01*
X037596Y005331D02*
X038116Y005331D01*
X038116Y006331D02*
X037596Y006331D01*
X036920Y023087D02*
X036920Y023607D01*
X035920Y023607D02*
X035920Y023087D01*
X034920Y023087D02*
X034920Y023607D01*
X031920Y023607D02*
X031920Y023087D01*
X030920Y023087D02*
X030920Y023607D01*
X029920Y023607D02*
X029920Y023087D01*
X026920Y023087D02*
X026920Y023607D01*
X025920Y023607D02*
X025920Y023087D01*
X024920Y023087D02*
X024920Y023607D01*
X024920Y026087D02*
X024920Y026607D01*
X025920Y026607D02*
X025920Y026087D01*
X026920Y026087D02*
X026920Y026607D01*
X029920Y026607D02*
X029920Y026087D01*
X030920Y026087D02*
X030920Y026607D01*
X031920Y026607D02*
X031920Y026087D01*
X034920Y026087D02*
X034920Y026607D01*
X035920Y026607D02*
X035920Y026087D01*
X036920Y026087D02*
X036920Y026607D01*
X039920Y026607D02*
X039920Y026087D01*
X040920Y026087D02*
X040920Y026607D01*
X041920Y026607D02*
X041920Y026087D01*
X044920Y026087D02*
X044920Y026607D01*
X045920Y026607D02*
X045920Y026087D01*
X046920Y026087D02*
X046920Y026607D01*
X049920Y026607D02*
X049920Y026087D01*
X050920Y026087D02*
X050920Y026607D01*
X051920Y026607D02*
X051920Y026087D01*
X054920Y026087D02*
X054920Y026607D01*
X055920Y026607D02*
X055920Y026087D01*
X056920Y026087D02*
X056920Y026607D01*
X059920Y026607D02*
X059920Y026087D01*
X060920Y026087D02*
X060920Y026607D01*
X061920Y026607D02*
X061920Y026087D01*
X061920Y023607D02*
X061920Y023087D01*
X060920Y023087D02*
X060920Y023607D01*
X059920Y023607D02*
X059920Y023087D01*
X056920Y023087D02*
X056920Y023607D01*
X055920Y023607D02*
X055920Y023087D01*
X054920Y023087D02*
X054920Y023607D01*
X051920Y023607D02*
X051920Y023087D01*
X050920Y023087D02*
X050920Y023607D01*
X049920Y023607D02*
X049920Y023087D01*
X046920Y023087D02*
X046920Y023607D01*
X045920Y023607D02*
X045920Y023087D01*
X044920Y023087D02*
X044920Y023607D01*
X041920Y023607D02*
X041920Y023087D01*
X040920Y023087D02*
X040920Y023607D01*
X039920Y023607D02*
X039920Y023087D01*
X017334Y027683D02*
X017334Y028203D01*
X016334Y028203D02*
X016334Y027683D01*
X015334Y027683D02*
X015334Y028203D01*
X014334Y028203D02*
X014334Y027683D01*
X014334Y030683D02*
X014334Y031203D01*
X015334Y031203D02*
X015334Y030683D01*
X016334Y030683D02*
X016334Y031203D01*
X017334Y031203D02*
X017334Y030683D01*
D18*
X025921Y025225D03*
X025921Y024477D03*
X030922Y024471D03*
X030922Y025219D03*
X035917Y025219D03*
X035917Y024471D03*
X040919Y024471D03*
X040919Y025219D03*
X045921Y025219D03*
X045921Y024471D03*
X050923Y024471D03*
X050923Y025219D03*
X055925Y025219D03*
X055925Y024471D03*
X060919Y024471D03*
X060919Y025219D03*
X058806Y016343D03*
X058806Y015595D03*
X053803Y015592D03*
X053803Y016340D03*
X048806Y016340D03*
X048806Y015592D03*
X043803Y015592D03*
X043803Y016340D03*
X038806Y016340D03*
X038806Y015592D03*
X033804Y015592D03*
X033804Y016340D03*
X028807Y016340D03*
X028807Y015592D03*
X023805Y015594D03*
X023805Y016342D03*
X036356Y006468D03*
X036356Y005720D03*
D19*
X035805Y009169D02*
X035805Y009769D01*
X034805Y009769D02*
X034805Y009169D01*
X033805Y009169D02*
X033805Y009769D01*
X030805Y009769D02*
X030805Y009169D01*
X029805Y009169D02*
X029805Y009769D01*
X028805Y009769D02*
X028805Y009169D01*
X025805Y009169D02*
X025805Y009769D01*
X024805Y009769D02*
X024805Y009169D01*
X023805Y009169D02*
X023805Y009769D01*
X038805Y009769D02*
X038805Y009169D01*
X039805Y009169D02*
X039805Y009769D01*
X040805Y009769D02*
X040805Y009169D01*
X043805Y009169D02*
X043805Y009769D01*
X044805Y009769D02*
X044805Y009169D01*
X045805Y009169D02*
X045805Y009769D01*
X048805Y009769D02*
X048805Y009169D01*
X049805Y009169D02*
X049805Y009769D01*
X050805Y009769D02*
X050805Y009169D01*
X053805Y009169D02*
X053805Y009769D01*
X054805Y009769D02*
X054805Y009169D01*
X055805Y009169D02*
X055805Y009769D01*
X058805Y009769D02*
X058805Y009169D01*
X059805Y009169D02*
X059805Y009769D01*
X060805Y009769D02*
X060805Y009169D01*
X060920Y031047D02*
X060920Y031647D01*
X059920Y031647D02*
X059920Y031047D01*
X058920Y031047D02*
X058920Y031647D01*
X055920Y031647D02*
X055920Y031047D01*
X054920Y031047D02*
X054920Y031647D01*
X053920Y031647D02*
X053920Y031047D01*
X050920Y031047D02*
X050920Y031647D01*
X049920Y031647D02*
X049920Y031047D01*
X048920Y031047D02*
X048920Y031647D01*
X045920Y031647D02*
X045920Y031047D01*
X044920Y031047D02*
X044920Y031647D01*
X043920Y031647D02*
X043920Y031047D01*
X040920Y031047D02*
X040920Y031647D01*
X039920Y031647D02*
X039920Y031047D01*
X038920Y031047D02*
X038920Y031647D01*
X035920Y031647D02*
X035920Y031047D01*
X034920Y031047D02*
X034920Y031647D01*
X033920Y031647D02*
X033920Y031047D01*
X030920Y031047D02*
X030920Y031647D01*
X029920Y031647D02*
X029920Y031047D01*
X028920Y031047D02*
X028920Y031647D01*
X025920Y031647D02*
X025920Y031047D01*
X024920Y031047D02*
X024920Y031647D01*
X023920Y031647D02*
X023920Y031047D01*
X011095Y031107D02*
X011095Y031707D01*
X010095Y031707D02*
X010095Y031107D01*
X009095Y031107D02*
X009095Y031707D01*
D20*
X019054Y030693D02*
X019614Y030693D01*
X019614Y029693D02*
X019054Y029693D01*
D21*
X018208Y029193D03*
X017460Y029193D03*
D22*
X010951Y021489D02*
X010357Y021489D01*
X010357Y020489D02*
X010951Y020489D01*
X010951Y019489D02*
X010357Y019489D01*
X010357Y018489D02*
X010951Y018489D01*
X010971Y017092D02*
X010377Y017092D01*
X010377Y016092D02*
X010971Y016092D01*
X010971Y015092D02*
X010377Y015092D01*
X010377Y014092D02*
X010971Y014092D01*
X010971Y013092D02*
X010377Y013092D01*
D23*
X001991Y006269D03*
X004944Y006269D03*
X007897Y006269D03*
X010850Y006269D03*
X013802Y006269D03*
X016755Y006269D03*
X019708Y006269D03*
X022661Y006269D03*
X025421Y006240D03*
X028373Y006240D03*
X039746Y006302D03*
X042698Y006302D03*
X045651Y006302D03*
X048604Y006302D03*
X051557Y006302D03*
X054509Y006302D03*
X057462Y006302D03*
X060415Y006302D03*
X060345Y034602D03*
X057392Y034602D03*
X054440Y034602D03*
X051487Y034602D03*
X048534Y034602D03*
X045581Y034602D03*
X042629Y034602D03*
X039676Y034602D03*
X025748Y034597D03*
X022795Y034597D03*
X017461Y034597D03*
X014508Y034597D03*
X011555Y034597D03*
X008603Y034597D03*
X005083Y034597D03*
X002130Y034597D03*
D24*
X023423Y029768D03*
X023423Y027768D03*
X028434Y027768D03*
X028434Y029768D03*
X033438Y029768D03*
X033438Y027768D03*
X038414Y027768D03*
X038414Y029768D03*
X043515Y029768D03*
X043515Y027768D03*
X048540Y027768D03*
X048540Y029768D03*
X053518Y029768D03*
X053518Y027768D03*
X058422Y027768D03*
X058422Y029768D03*
X056190Y013019D03*
X056190Y011019D03*
X051197Y011019D03*
X051197Y013019D03*
X046200Y013019D03*
X046200Y011019D03*
X041196Y011019D03*
X041196Y013019D03*
X036201Y013019D03*
X036201Y011019D03*
X031198Y011019D03*
X031198Y013019D03*
X026322Y013019D03*
X026322Y011019D03*
X061216Y011019D03*
X061216Y013019D03*
D25*
X028670Y004601D03*
X028670Y002594D03*
X025127Y002594D03*
X025127Y004601D03*
D26*
X030296Y004722D03*
X032501Y004722D03*
X032501Y002597D03*
X030296Y002597D03*
D27*
X018089Y012507D03*
X015735Y016679D03*
X014509Y016977D03*
X013994Y017482D03*
X013497Y018433D03*
X012989Y019464D03*
X015834Y021651D03*
X016599Y020992D03*
X017068Y020418D03*
X017556Y020007D03*
X018016Y018505D03*
X016544Y018335D03*
X018693Y021652D03*
X019106Y023365D03*
X018334Y023961D03*
X017802Y024649D03*
X017481Y025474D03*
X014599Y025501D03*
X014256Y024947D03*
X016537Y023364D03*
X023381Y024851D03*
X007238Y026735D03*
X006562Y027526D03*
X042694Y021051D03*
X043794Y020776D03*
X044716Y021538D03*
X045437Y022238D03*
M02*
