G75*
G70*
%OFA0B0*%
%FSLAX24Y24*%
%IPPOS*%
%LPD*%
%AMOC8*
5,1,8,0,0,1.08239X$1,22.5*
%
%ADD10C,0.0520*%
%ADD11R,0.0591X0.0512*%
%ADD12R,0.0512X0.0591*%
%ADD13OC8,0.0669*%
%ADD14C,0.0669*%
%ADD15R,0.0591X0.0137*%
%ADD16C,0.0520*%
%ADD17R,0.0630X0.0512*%
%ADD18C,0.0600*%
%ADD19C,0.0560*%
%ADD20R,0.0512X0.0630*%
%ADD21C,0.0594*%
%ADD22C,0.1000*%
%ADD23OC8,0.0520*%
%ADD24R,0.0748X0.0669*%
%ADD25R,0.0709X0.1260*%
%ADD26C,0.0120*%
%ADD27C,0.0400*%
%ADD28C,0.0436*%
%ADD29C,0.0320*%
%ADD30C,0.0240*%
%ADD31C,0.0660*%
D10*
X016333Y015396D03*
X018233Y015396D03*
D11*
X018170Y014747D03*
X018170Y013999D03*
X016335Y013985D03*
X016335Y014733D03*
X024805Y012843D03*
X024805Y012095D03*
X029698Y012245D03*
X029698Y012993D03*
X034698Y012993D03*
X034698Y012245D03*
X039698Y012245D03*
X039698Y012993D03*
X044698Y012993D03*
X044698Y012245D03*
X049698Y012245D03*
X049698Y012993D03*
X054698Y012993D03*
X054698Y012245D03*
X059698Y012245D03*
X059698Y012993D03*
X059920Y027823D03*
X059920Y028571D03*
X054924Y028571D03*
X054924Y027823D03*
X049910Y027823D03*
X049910Y028571D03*
X044910Y028571D03*
X044910Y027823D03*
X039905Y027823D03*
X039905Y028571D03*
X034902Y028571D03*
X034902Y027823D03*
X029902Y027823D03*
X029902Y028571D03*
X024920Y028571D03*
X024920Y027823D03*
X036356Y004875D03*
X036356Y004127D03*
D12*
X017862Y017774D03*
X017114Y017774D03*
X016208Y029193D03*
X015460Y029193D03*
D13*
X010358Y026554D03*
D14*
X011358Y026554D03*
D15*
X015710Y021239D03*
X015710Y020983D03*
X015710Y020728D03*
X015710Y020472D03*
X015710Y020216D03*
X015710Y019960D03*
X015710Y019704D03*
X015710Y019448D03*
X015710Y019192D03*
X015710Y018936D03*
X018564Y018936D03*
X018564Y019192D03*
X018564Y019448D03*
X018564Y019704D03*
X018564Y019960D03*
X018564Y020216D03*
X018564Y020472D03*
X018564Y020728D03*
X018564Y020983D03*
X018564Y021239D03*
D16*
X022805Y017729D02*
X022805Y017209D01*
X023805Y017209D02*
X023805Y017729D01*
X024805Y017729D02*
X024805Y017209D01*
X027805Y017209D02*
X027805Y017729D01*
X028805Y017729D02*
X028805Y017209D01*
X029805Y017209D02*
X029805Y017729D01*
X032805Y017729D02*
X032805Y017209D01*
X033805Y017209D02*
X033805Y017729D01*
X034805Y017729D02*
X034805Y017209D01*
X037805Y017209D02*
X037805Y017729D01*
X038805Y017729D02*
X038805Y017209D01*
X039805Y017209D02*
X039805Y017729D01*
X042805Y017729D02*
X042805Y017209D01*
X043805Y017209D02*
X043805Y017729D01*
X044805Y017729D02*
X044805Y017209D01*
X047805Y017209D02*
X047805Y017729D01*
X048805Y017729D02*
X048805Y017209D01*
X049805Y017209D02*
X049805Y017729D01*
X052805Y017729D02*
X052805Y017209D01*
X053805Y017209D02*
X053805Y017729D01*
X054805Y017729D02*
X054805Y017209D01*
X057805Y017209D02*
X057805Y017729D01*
X058805Y017729D02*
X058805Y017209D01*
X059805Y017209D02*
X059805Y017729D01*
X059805Y014729D02*
X059805Y014209D01*
X058805Y014209D02*
X058805Y014729D01*
X057805Y014729D02*
X057805Y014209D01*
X054805Y014209D02*
X054805Y014729D01*
X053805Y014729D02*
X053805Y014209D01*
X052805Y014209D02*
X052805Y014729D01*
X049805Y014729D02*
X049805Y014209D01*
X048805Y014209D02*
X048805Y014729D01*
X047805Y014729D02*
X047805Y014209D01*
X044805Y014209D02*
X044805Y014729D01*
X043805Y014729D02*
X043805Y014209D01*
X042805Y014209D02*
X042805Y014729D01*
X039805Y014729D02*
X039805Y014209D01*
X038805Y014209D02*
X038805Y014729D01*
X037805Y014729D02*
X037805Y014209D01*
X034805Y014209D02*
X034805Y014729D01*
X033805Y014729D02*
X033805Y014209D01*
X032805Y014209D02*
X032805Y014729D01*
X029805Y014729D02*
X029805Y014209D01*
X028805Y014209D02*
X028805Y014729D01*
X027805Y014729D02*
X027805Y014209D01*
X024805Y014209D02*
X024805Y014729D01*
X023805Y014729D02*
X023805Y014209D01*
X022805Y014209D02*
X022805Y014729D01*
X033766Y006601D02*
X033766Y006081D01*
X034596Y006331D02*
X035116Y006331D01*
X035116Y005331D02*
X034596Y005331D01*
X034596Y004331D02*
X035116Y004331D01*
X035116Y003331D02*
X034596Y003331D01*
X033766Y002601D02*
X033766Y002081D01*
X037596Y003331D02*
X038116Y003331D01*
X038116Y004331D02*
X037596Y004331D01*
X037596Y005331D02*
X038116Y005331D01*
X038116Y006331D02*
X037596Y006331D01*
X036920Y023087D02*
X036920Y023607D01*
X035920Y023607D02*
X035920Y023087D01*
X034920Y023087D02*
X034920Y023607D01*
X031920Y023607D02*
X031920Y023087D01*
X030920Y023087D02*
X030920Y023607D01*
X029920Y023607D02*
X029920Y023087D01*
X026920Y023087D02*
X026920Y023607D01*
X025920Y023607D02*
X025920Y023087D01*
X024920Y023087D02*
X024920Y023607D01*
X024920Y026087D02*
X024920Y026607D01*
X025920Y026607D02*
X025920Y026087D01*
X026920Y026087D02*
X026920Y026607D01*
X029920Y026607D02*
X029920Y026087D01*
X030920Y026087D02*
X030920Y026607D01*
X031920Y026607D02*
X031920Y026087D01*
X034920Y026087D02*
X034920Y026607D01*
X035920Y026607D02*
X035920Y026087D01*
X036920Y026087D02*
X036920Y026607D01*
X039920Y026607D02*
X039920Y026087D01*
X040920Y026087D02*
X040920Y026607D01*
X041920Y026607D02*
X041920Y026087D01*
X044920Y026087D02*
X044920Y026607D01*
X045920Y026607D02*
X045920Y026087D01*
X046920Y026087D02*
X046920Y026607D01*
X049920Y026607D02*
X049920Y026087D01*
X050920Y026087D02*
X050920Y026607D01*
X051920Y026607D02*
X051920Y026087D01*
X054920Y026087D02*
X054920Y026607D01*
X055920Y026607D02*
X055920Y026087D01*
X056920Y026087D02*
X056920Y026607D01*
X059920Y026607D02*
X059920Y026087D01*
X060920Y026087D02*
X060920Y026607D01*
X061920Y026607D02*
X061920Y026087D01*
X061920Y023607D02*
X061920Y023087D01*
X060920Y023087D02*
X060920Y023607D01*
X059920Y023607D02*
X059920Y023087D01*
X056920Y023087D02*
X056920Y023607D01*
X055920Y023607D02*
X055920Y023087D01*
X054920Y023087D02*
X054920Y023607D01*
X051920Y023607D02*
X051920Y023087D01*
X050920Y023087D02*
X050920Y023607D01*
X049920Y023607D02*
X049920Y023087D01*
X046920Y023087D02*
X046920Y023607D01*
X045920Y023607D02*
X045920Y023087D01*
X044920Y023087D02*
X044920Y023607D01*
X041920Y023607D02*
X041920Y023087D01*
X040920Y023087D02*
X040920Y023607D01*
X039920Y023607D02*
X039920Y023087D01*
X017334Y027683D02*
X017334Y028203D01*
X016334Y028203D02*
X016334Y027683D01*
X015334Y027683D02*
X015334Y028203D01*
X014334Y028203D02*
X014334Y027683D01*
X014334Y030683D02*
X014334Y031203D01*
X015334Y031203D02*
X015334Y030683D01*
X016334Y030683D02*
X016334Y031203D01*
X017334Y031203D02*
X017334Y030683D01*
D17*
X025921Y025225D03*
X025921Y024477D03*
X030922Y024471D03*
X030922Y025219D03*
X035917Y025219D03*
X035917Y024471D03*
X040919Y024471D03*
X040919Y025219D03*
X045921Y025219D03*
X045921Y024471D03*
X050923Y024471D03*
X050923Y025219D03*
X055925Y025219D03*
X055925Y024471D03*
X060919Y024471D03*
X060919Y025219D03*
X058806Y016343D03*
X058806Y015595D03*
X053803Y015592D03*
X053803Y016340D03*
X048806Y016340D03*
X048806Y015592D03*
X043803Y015592D03*
X043803Y016340D03*
X038806Y016340D03*
X038806Y015592D03*
X033804Y015592D03*
X033804Y016340D03*
X028807Y016340D03*
X028807Y015592D03*
X023805Y015594D03*
X023805Y016342D03*
X036356Y006468D03*
X036356Y005720D03*
D18*
X035805Y009169D02*
X035805Y009769D01*
X034805Y009769D02*
X034805Y009169D01*
X033805Y009169D02*
X033805Y009769D01*
X030805Y009769D02*
X030805Y009169D01*
X029805Y009169D02*
X029805Y009769D01*
X028805Y009769D02*
X028805Y009169D01*
X025805Y009169D02*
X025805Y009769D01*
X024805Y009769D02*
X024805Y009169D01*
X023805Y009169D02*
X023805Y009769D01*
X038805Y009769D02*
X038805Y009169D01*
X039805Y009169D02*
X039805Y009769D01*
X040805Y009769D02*
X040805Y009169D01*
X043805Y009169D02*
X043805Y009769D01*
X044805Y009769D02*
X044805Y009169D01*
X045805Y009169D02*
X045805Y009769D01*
X048805Y009769D02*
X048805Y009169D01*
X049805Y009169D02*
X049805Y009769D01*
X050805Y009769D02*
X050805Y009169D01*
X053805Y009169D02*
X053805Y009769D01*
X054805Y009769D02*
X054805Y009169D01*
X055805Y009169D02*
X055805Y009769D01*
X058805Y009769D02*
X058805Y009169D01*
X059805Y009169D02*
X059805Y009769D01*
X060805Y009769D02*
X060805Y009169D01*
X060920Y031047D02*
X060920Y031647D01*
X059920Y031647D02*
X059920Y031047D01*
X058920Y031047D02*
X058920Y031647D01*
X055920Y031647D02*
X055920Y031047D01*
X054920Y031047D02*
X054920Y031647D01*
X053920Y031647D02*
X053920Y031047D01*
X050920Y031047D02*
X050920Y031647D01*
X049920Y031647D02*
X049920Y031047D01*
X048920Y031047D02*
X048920Y031647D01*
X045920Y031647D02*
X045920Y031047D01*
X044920Y031047D02*
X044920Y031647D01*
X043920Y031647D02*
X043920Y031047D01*
X040920Y031047D02*
X040920Y031647D01*
X039920Y031647D02*
X039920Y031047D01*
X038920Y031047D02*
X038920Y031647D01*
X035920Y031647D02*
X035920Y031047D01*
X034920Y031047D02*
X034920Y031647D01*
X033920Y031647D02*
X033920Y031047D01*
X030920Y031047D02*
X030920Y031647D01*
X029920Y031647D02*
X029920Y031047D01*
X028920Y031047D02*
X028920Y031647D01*
X025920Y031647D02*
X025920Y031047D01*
X024920Y031047D02*
X024920Y031647D01*
X023920Y031647D02*
X023920Y031047D01*
X011095Y031107D02*
X011095Y031707D01*
X010095Y031707D02*
X010095Y031107D01*
X009095Y031107D02*
X009095Y031707D01*
D19*
X019054Y030693D02*
X019614Y030693D01*
X019614Y029693D02*
X019054Y029693D01*
D20*
X018208Y029193D03*
X017460Y029193D03*
D21*
X010951Y021489D02*
X010357Y021489D01*
X010357Y020489D02*
X010951Y020489D01*
X010951Y019489D02*
X010357Y019489D01*
X010357Y018489D02*
X010951Y018489D01*
X010971Y017092D02*
X010377Y017092D01*
X010377Y016092D02*
X010971Y016092D01*
X010971Y015092D02*
X010377Y015092D01*
X010377Y014092D02*
X010971Y014092D01*
X010971Y013092D02*
X010377Y013092D01*
D22*
X010850Y006269D03*
X013802Y006269D03*
X016755Y006269D03*
X019708Y006269D03*
X022661Y006269D03*
X025421Y006240D03*
X028373Y006240D03*
X039746Y006302D03*
X042698Y006302D03*
X045651Y006302D03*
X048604Y006302D03*
X051557Y006302D03*
X054509Y006302D03*
X057462Y006302D03*
X060415Y006302D03*
X060345Y034602D03*
X057392Y034602D03*
X054440Y034602D03*
X051487Y034602D03*
X048534Y034602D03*
X045581Y034602D03*
X042629Y034602D03*
X039676Y034602D03*
X025748Y034597D03*
X022795Y034597D03*
X017461Y034597D03*
X014508Y034597D03*
X011555Y034597D03*
X008603Y034597D03*
X005083Y034597D03*
X002130Y034597D03*
X001991Y006269D03*
X004944Y006269D03*
X007897Y006269D03*
D23*
X026322Y011019D03*
X026322Y013019D03*
X031198Y013019D03*
X031198Y011019D03*
X036201Y011019D03*
X036201Y013019D03*
X041196Y013019D03*
X041196Y011019D03*
X046200Y011019D03*
X046200Y013019D03*
X051197Y013019D03*
X051197Y011019D03*
X056190Y011019D03*
X056190Y013019D03*
X061216Y013019D03*
X061216Y011019D03*
X058422Y027768D03*
X058422Y029768D03*
X053518Y029768D03*
X053518Y027768D03*
X048540Y027768D03*
X048540Y029768D03*
X043515Y029768D03*
X043515Y027768D03*
X038414Y027768D03*
X038414Y029768D03*
X033438Y029768D03*
X033438Y027768D03*
X028434Y027768D03*
X028434Y029768D03*
X023423Y029768D03*
X023423Y027768D03*
D24*
X025127Y004601D03*
X025127Y002594D03*
X028670Y002594D03*
X028670Y004601D03*
D25*
X030296Y004722D03*
X032501Y004722D03*
X032501Y002597D03*
X030296Y002597D03*
D26*
X010221Y002553D02*
X009438Y003336D01*
X009438Y007176D01*
X010848Y008587D01*
X017622Y008587D01*
X019305Y010271D01*
X019305Y019192D01*
X018564Y019192D01*
X018564Y018936D02*
X018016Y018936D01*
X018016Y018505D01*
X018016Y017928D01*
X017862Y017774D01*
X016544Y018335D02*
X016544Y019192D01*
X015710Y019192D01*
X015710Y019448D02*
X015710Y019452D01*
X015072Y019452D01*
X015072Y016679D01*
X015735Y016679D01*
X014509Y016977D02*
X014509Y019704D01*
X015710Y019704D01*
X015710Y019960D02*
X015710Y019961D01*
X013994Y019961D01*
X013994Y017482D01*
X013497Y018433D02*
X013497Y020210D01*
X015710Y020210D01*
X015710Y020216D01*
X015710Y020472D02*
X016144Y020472D01*
X016608Y020007D01*
X017556Y020007D01*
X017068Y020418D02*
X017059Y020569D01*
X016424Y020569D01*
X016266Y020728D01*
X015710Y020728D01*
X015710Y020983D02*
X016599Y020983D01*
X016599Y020992D01*
X017425Y021032D02*
X017425Y020679D01*
X017635Y020469D01*
X018561Y020469D01*
X018564Y020472D01*
X018549Y020712D02*
X017734Y020712D01*
X017646Y020800D01*
X017646Y021165D01*
X015551Y023260D01*
X007047Y023260D01*
X005356Y021568D01*
X006705Y021958D02*
X006705Y020653D01*
X005356Y019304D01*
X001991Y021046D02*
X005130Y024185D01*
X014896Y024185D01*
X014954Y024243D01*
X017893Y021305D01*
X017893Y020983D01*
X018564Y020983D01*
X018564Y020728D02*
X018549Y020712D01*
X018564Y020216D02*
X020620Y020216D01*
X020620Y014920D01*
X021362Y014920D01*
X021362Y006654D01*
X021623Y006654D01*
X021623Y003830D01*
X021027Y003234D01*
X013884Y003234D01*
X010850Y006269D01*
X013802Y006269D02*
X016456Y003615D01*
X020568Y003615D01*
X020949Y003997D01*
X020949Y014471D01*
X020250Y014471D01*
X020250Y019960D01*
X018564Y019960D01*
X018564Y019704D02*
X019910Y019704D01*
X019910Y013874D01*
X020589Y013874D01*
X020589Y005062D01*
X019872Y004346D01*
X018298Y004346D01*
X016755Y005889D01*
X016755Y006269D01*
X019591Y006385D02*
X019708Y006269D01*
X019591Y006385D02*
X019591Y019448D01*
X018564Y019448D01*
X018564Y018936D02*
X019019Y018936D01*
X019019Y013924D01*
X019019Y018813D01*
X021688Y018459D02*
X021688Y023365D01*
X019106Y023365D01*
X018334Y023961D02*
X022073Y023994D01*
X022073Y018904D01*
X028805Y018871D01*
X028805Y017469D01*
X023805Y017469D02*
X023805Y018459D01*
X021688Y018459D01*
X022414Y019284D02*
X022414Y024649D01*
X017802Y024649D01*
X017481Y025474D02*
X022796Y025474D01*
X022796Y019742D01*
X038805Y019742D01*
X038805Y017469D01*
X042721Y018767D02*
X042721Y021051D01*
X042694Y021051D01*
X043794Y020776D02*
X048805Y020776D01*
X048805Y017469D01*
X053805Y017469D02*
X053810Y021539D01*
X045074Y021539D01*
X045036Y021538D01*
X044716Y021538D01*
X045437Y022238D02*
X058810Y022238D01*
X058805Y017469D01*
X059698Y012245D02*
X059698Y012006D01*
X059730Y011974D01*
X054747Y011974D02*
X054698Y012024D01*
X054698Y012245D01*
X049698Y012245D02*
X049698Y012002D01*
X049669Y011974D01*
X044698Y012245D02*
X044690Y012245D01*
X044419Y011974D01*
X039742Y011974D02*
X039698Y012018D01*
X039698Y012245D01*
X034698Y012245D02*
X034698Y012008D01*
X034664Y011974D01*
X029698Y012010D02*
X029662Y011974D01*
X029698Y012010D02*
X029698Y012245D01*
X024851Y011974D02*
X024805Y012020D01*
X024805Y012095D01*
X019019Y013924D02*
X018945Y013999D01*
X018170Y014747D02*
X018170Y015333D01*
X018233Y015396D01*
X016335Y015394D02*
X016335Y014733D01*
X016335Y015394D02*
X016333Y015396D01*
X016335Y013985D02*
X016323Y013973D01*
X012989Y016092D02*
X012989Y019464D01*
X015710Y021239D02*
X015710Y021438D01*
X015834Y021651D01*
X015678Y022779D02*
X007527Y022779D01*
X006705Y021958D01*
X001991Y021046D02*
X001991Y006269D01*
X010221Y002553D02*
X021654Y002553D01*
X022673Y003571D01*
X022673Y006256D01*
X022661Y006269D01*
X036356Y004875D02*
X036620Y004875D01*
X037096Y005351D01*
X037096Y006308D01*
X037073Y006331D01*
X037214Y004810D02*
X038659Y004810D01*
X038818Y004651D01*
X038818Y003563D01*
X038580Y003325D01*
X037863Y003325D01*
X037856Y003331D01*
X036531Y004127D02*
X037214Y004810D01*
X036531Y004127D02*
X036356Y004127D01*
X033805Y017469D02*
X033805Y019284D01*
X022414Y019284D01*
X018688Y021364D02*
X018564Y021239D01*
X018688Y021364D02*
X018693Y021652D01*
X017425Y021032D02*
X015678Y022779D01*
X015361Y024947D02*
X014256Y024947D01*
X014599Y025501D02*
X014334Y025766D01*
X014334Y027943D01*
X017329Y027939D02*
X017329Y026915D01*
X015361Y024947D01*
X017329Y027939D02*
X017334Y027943D01*
X024920Y028571D02*
X024920Y028806D01*
X034902Y028806D02*
X034931Y028806D01*
X034902Y028806D02*
X034902Y028571D01*
X039895Y028787D02*
X039905Y028787D01*
X039905Y028571D01*
X044920Y028571D02*
X044920Y028787D01*
X049910Y028787D02*
X049910Y028571D01*
X054920Y028571D02*
X054920Y028787D01*
X059920Y028787D02*
X059920Y028571D01*
X043805Y018767D02*
X042721Y018767D01*
X043805Y018767D02*
X043805Y017469D01*
X012989Y016092D02*
X010674Y016092D01*
D27*
X007468Y017305D02*
X007468Y014237D01*
X008616Y013089D01*
X010671Y013089D01*
X010674Y013092D01*
X014087Y013092D01*
X014968Y013973D01*
X016323Y013973D01*
X016335Y013985D02*
X017695Y013985D01*
X018170Y013999D01*
X018089Y013918D01*
X018089Y012507D01*
X018170Y013999D02*
X018945Y013999D01*
X023805Y015594D02*
X060714Y015594D01*
X061576Y016455D01*
X061576Y020360D01*
X058628Y023308D01*
X058628Y025219D01*
X060919Y025219D01*
X058628Y025219D02*
X055925Y025219D01*
X050923Y025219D01*
X045921Y025219D01*
X040919Y025219D01*
X035917Y025219D01*
X030922Y025219D01*
X030922Y025225D02*
X025921Y025225D01*
X023754Y025225D01*
X023381Y024851D01*
X023423Y027768D02*
X023423Y027823D01*
X024920Y027823D01*
X023920Y029768D02*
X023423Y029768D01*
X023920Y029768D02*
X023920Y031347D01*
X028434Y029768D02*
X028920Y029768D01*
X028920Y031347D01*
X033438Y029768D02*
X033920Y029768D01*
X033920Y031347D01*
X038414Y029768D02*
X038920Y029768D01*
X038920Y031347D01*
X043515Y029768D02*
X043920Y029768D01*
X043920Y031347D01*
X044910Y028571D02*
X044920Y028571D01*
X044910Y027823D02*
X043515Y027823D01*
X043515Y027768D01*
X039905Y027823D02*
X038414Y027823D01*
X038414Y027768D01*
X034902Y027823D02*
X033438Y027823D01*
X033438Y027768D01*
X029902Y027823D02*
X028434Y027823D01*
X028434Y027768D01*
X019334Y029693D02*
X018708Y029693D01*
X018208Y029193D01*
X017460Y029193D02*
X017460Y029254D01*
X016616Y030097D01*
X016616Y030661D01*
X016334Y030943D01*
X015334Y030943D02*
X015334Y032324D01*
X017461Y034597D01*
X014334Y030943D02*
X014334Y030319D01*
X015460Y029193D01*
X015460Y028069D01*
X015334Y027943D01*
X016208Y028069D02*
X016334Y027943D01*
X016208Y028069D02*
X016208Y029193D01*
X014334Y030943D02*
X013201Y029810D01*
X011064Y029810D01*
X010095Y030780D01*
X010095Y031407D01*
X009095Y031407D02*
X009095Y031990D01*
X011555Y034597D01*
X010632Y027526D02*
X006562Y027526D01*
X007238Y026735D02*
X010177Y026735D01*
X010358Y026554D01*
X011358Y026554D02*
X011358Y026800D01*
X010632Y027526D01*
X010654Y019489D02*
X009651Y019489D01*
X007468Y017305D01*
X023805Y016342D02*
X024805Y016342D01*
X024805Y017469D01*
X023805Y015594D02*
X028807Y015594D01*
X028807Y015592D01*
X033804Y015592D01*
X038806Y015592D01*
X043803Y015592D01*
X048806Y015592D01*
X053803Y015592D01*
X053803Y015592D01*
X058806Y015592D01*
X058806Y015595D01*
X058806Y016343D02*
X059805Y016343D01*
X059805Y017469D01*
X054805Y017469D02*
X054805Y016340D01*
X053803Y016340D01*
X049805Y016340D02*
X049805Y017469D01*
X049805Y016340D02*
X048806Y016340D01*
X048806Y015592D02*
X048806Y015592D01*
X049698Y013019D02*
X051197Y013019D01*
X049698Y012993D02*
X049698Y013019D01*
X051197Y011019D02*
X051197Y009469D01*
X050805Y009469D01*
X046200Y009469D02*
X046200Y011019D01*
X046200Y009469D02*
X045805Y009469D01*
X041196Y009469D02*
X041196Y011019D01*
X041196Y009469D02*
X040805Y009469D01*
X036201Y009469D02*
X036201Y011019D01*
X036201Y009469D02*
X035805Y009469D01*
X036356Y006468D02*
X036492Y006331D01*
X037073Y006331D01*
X037856Y006331D01*
X034856Y005331D02*
X033785Y005331D01*
X033766Y005350D01*
X033766Y006341D01*
X033785Y005331D02*
X033110Y005331D01*
X032501Y004722D01*
X033401Y004107D02*
X033626Y004331D01*
X034856Y004331D01*
X033401Y004107D02*
X033401Y003498D01*
X032501Y002597D01*
X032496Y002592D01*
X032496Y002292D01*
X032546Y002341D01*
X033766Y002341D01*
X030296Y002597D02*
X030293Y002594D01*
X028670Y002594D01*
X026413Y003879D02*
X025127Y002594D01*
X026413Y003879D02*
X026413Y004840D01*
X027812Y006240D01*
X028373Y006240D01*
X028670Y004601D02*
X030175Y004601D01*
X030296Y004722D01*
X025421Y004895D02*
X025127Y004601D01*
X025421Y004895D02*
X025421Y006240D01*
X025805Y009469D02*
X026322Y009469D01*
X026322Y011019D01*
X026322Y013019D02*
X024805Y013019D01*
X024805Y012843D01*
X029698Y012993D02*
X029698Y013019D01*
X031198Y013019D01*
X031198Y011019D02*
X031198Y009469D01*
X030805Y009469D01*
X034698Y012993D02*
X034698Y013019D01*
X036201Y013019D01*
X039698Y013019D02*
X041196Y013019D01*
X039698Y012993D02*
X039698Y013019D01*
X039805Y016340D02*
X038806Y016340D01*
X039805Y016340D02*
X039805Y017469D01*
X043803Y016340D02*
X044805Y016340D01*
X044805Y017469D01*
X044698Y013019D02*
X046200Y013019D01*
X044698Y012993D02*
X044698Y013019D01*
X054698Y013019D02*
X056190Y013019D01*
X054698Y012993D02*
X054698Y013019D01*
X056190Y011019D02*
X056190Y009469D01*
X055805Y009469D01*
X060805Y009469D02*
X061216Y009469D01*
X061216Y011019D01*
X061216Y013019D02*
X059698Y013019D01*
X059698Y012993D01*
X058422Y027768D02*
X058422Y027823D01*
X059920Y027823D01*
X058920Y029768D02*
X058920Y031347D01*
X058920Y029768D02*
X058422Y029768D01*
X054924Y028571D02*
X054920Y028571D01*
X054924Y027823D02*
X053518Y027823D01*
X053518Y027768D01*
X053518Y029768D02*
X053920Y029768D01*
X053920Y031347D01*
X049920Y028571D02*
X049910Y028571D01*
X049910Y027823D02*
X048540Y027823D01*
X048540Y027768D01*
X048540Y029768D02*
X048920Y029768D01*
X048920Y031347D01*
X034805Y017469D02*
X034805Y016340D01*
X033804Y016340D01*
X029805Y016340D02*
X029805Y017469D01*
X029805Y016340D02*
X028807Y016340D01*
D28*
X018693Y021652D03*
X017068Y020418D03*
X017556Y020007D03*
X016599Y020992D03*
X015834Y021651D03*
X016537Y023364D03*
X018334Y023961D03*
X017802Y024649D03*
X017481Y025474D03*
X014599Y025501D03*
X014256Y024947D03*
X019106Y023365D03*
X023381Y024851D03*
X018016Y018505D03*
X016544Y018335D03*
X015735Y016679D03*
X014509Y016977D03*
X013994Y017482D03*
X013497Y018433D03*
X012989Y019464D03*
X018089Y012507D03*
X007238Y026735D03*
X006562Y027526D03*
X042694Y021051D03*
X043794Y020776D03*
X044716Y021538D03*
X045437Y022238D03*
D29*
X044920Y023347D02*
X044920Y024471D01*
X045921Y024471D01*
X049920Y024471D02*
X049920Y023347D01*
X049920Y024471D02*
X050923Y024471D01*
X054920Y024471D02*
X054920Y023347D01*
X054920Y024471D02*
X055925Y024471D01*
X059920Y024471D02*
X059920Y023347D01*
X059920Y024471D02*
X060919Y024471D01*
X040919Y024471D02*
X039920Y024471D01*
X039920Y023347D01*
X035917Y024471D02*
X034920Y024471D01*
X034920Y023347D01*
X030922Y024471D02*
X029920Y024471D01*
X029920Y023347D01*
X030922Y025219D02*
X030922Y025225D01*
X025921Y024477D02*
X024920Y024477D01*
X024920Y023347D01*
D30*
X021149Y022870D02*
X021149Y015468D01*
X021855Y015468D01*
X021855Y007497D01*
X024085Y007497D01*
X024085Y001578D01*
X036289Y001558D01*
X036289Y002765D01*
X035774Y003280D01*
X035774Y005475D01*
X036019Y005720D01*
X036356Y005720D01*
X037856Y004331D02*
X036289Y002765D01*
X007897Y006269D02*
X007897Y007860D01*
X005358Y010399D01*
X005358Y019302D01*
X005356Y019304D01*
X004331Y020543D02*
X004331Y009541D01*
X004944Y008928D01*
X004944Y006269D01*
X004331Y020543D02*
X005356Y021568D01*
X016537Y023364D02*
X018334Y023364D01*
X018748Y022870D01*
X021149Y022870D01*
D31*
X024920Y028806D02*
X030093Y028806D01*
X034931Y028806D01*
X034920Y028806D01*
X034920Y031347D01*
X033920Y031347D02*
X033920Y032124D01*
X034298Y032501D01*
X038039Y032501D01*
X039023Y033485D01*
X042872Y033485D01*
X043984Y034598D01*
X045577Y034598D01*
X045581Y034602D01*
X044155Y033507D02*
X047439Y033507D01*
X048534Y034602D01*
X050464Y034598D02*
X051483Y034598D01*
X051487Y034602D01*
X050464Y034598D02*
X048452Y032587D01*
X044455Y032587D01*
X043920Y032052D01*
X043920Y031347D01*
X044920Y031347D02*
X044920Y028787D01*
X044973Y028787D01*
X049910Y028787D01*
X054920Y028787D01*
X059920Y028787D01*
X059940Y028787D01*
X059920Y028787D02*
X059920Y031347D01*
X058920Y031347D02*
X058920Y033177D01*
X060345Y034602D01*
X057392Y034602D02*
X055469Y032679D01*
X054503Y032679D01*
X053920Y032096D01*
X053920Y031347D01*
X054920Y031347D02*
X054920Y028787D01*
X049920Y028787D02*
X049910Y028787D01*
X049920Y028787D02*
X049920Y031347D01*
X048920Y031347D02*
X048920Y031813D01*
X050053Y032945D01*
X052905Y032945D01*
X054440Y034480D01*
X054440Y034602D01*
X044973Y028787D02*
X039895Y028787D01*
X039895Y028806D01*
X039895Y031347D01*
X039920Y031347D01*
X038920Y031347D02*
X038920Y032034D01*
X039451Y032565D01*
X043214Y032565D01*
X044155Y033507D01*
X042629Y034602D02*
X041306Y035924D01*
X030598Y035924D01*
X028920Y034246D01*
X028920Y031347D01*
X029902Y031347D02*
X029920Y031347D01*
X029902Y031347D02*
X029902Y028806D01*
X030093Y028806D01*
X029902Y028806D02*
X029902Y028571D01*
X024920Y028806D02*
X024920Y031347D01*
X024910Y031357D01*
X024910Y033121D01*
X025748Y033959D01*
X025748Y034597D01*
X022795Y034597D01*
X034931Y028806D02*
X039895Y028806D01*
X039742Y011974D02*
X039704Y011974D01*
X039805Y011873D01*
X039805Y009469D01*
X040805Y009469D02*
X042098Y008176D01*
X045776Y008176D01*
X047650Y006302D01*
X048604Y006302D01*
X049989Y008191D02*
X047083Y008191D01*
X045805Y009469D01*
X044805Y009469D02*
X044805Y011741D01*
X044572Y011974D01*
X044419Y011974D01*
X039742Y011974D01*
X039704Y011974D02*
X034759Y011974D01*
X034805Y011928D01*
X034805Y009469D01*
X035805Y009469D02*
X035810Y009473D01*
X038820Y007333D02*
X027941Y007333D01*
X025805Y009469D01*
X024836Y009437D02*
X024805Y009469D01*
X024808Y009466D01*
X024808Y008653D01*
X025421Y008041D01*
X025421Y006240D01*
X024813Y009469D02*
X024813Y011783D01*
X024851Y011783D01*
X024851Y011974D01*
X029662Y011974D01*
X029796Y011974D01*
X029805Y011964D01*
X029805Y009469D01*
X030805Y009469D02*
X031973Y008301D01*
X040730Y008301D01*
X042698Y006333D01*
X042698Y006302D01*
X039746Y006302D02*
X039746Y006407D01*
X038820Y007333D01*
X034759Y011974D02*
X034664Y011974D01*
X029796Y011974D01*
X024813Y009469D02*
X024805Y009469D01*
X044572Y011974D02*
X049612Y011974D01*
X049805Y011781D01*
X049805Y009469D01*
X050805Y009469D02*
X052009Y008264D01*
X052022Y008264D01*
X053985Y006302D01*
X054509Y006302D01*
X055805Y007959D02*
X055805Y009469D01*
X054805Y009469D02*
X054805Y011821D01*
X054652Y011974D01*
X054747Y011974D01*
X059730Y011974D01*
X059730Y011898D01*
X059805Y011823D01*
X059805Y009469D01*
X060805Y009469D02*
X060805Y006692D01*
X060415Y006302D01*
X057462Y006302D02*
X055805Y007959D01*
X051557Y006624D02*
X051557Y006302D01*
X051557Y006624D02*
X049989Y008191D01*
X049669Y011974D02*
X054652Y011974D01*
X049669Y011974D02*
X049612Y011974D01*
M02*
