G75*
G70*
%OFA0B0*%
%FSLAX24Y24*%
%IPPOS*%
%LPD*%
%AMOC8*
5,1,8,0,0,1.08239X$1,22.5*
%
%ADD10C,0.0100*%
%ADD11C,0.0080*%
%ADD12C,0.0160*%
%ADD13C,0.0060*%
%ADD14R,0.0118X0.0059*%
%ADD15R,0.0118X0.0118*%
%ADD16R,0.0800X0.0200*%
%ADD17R,0.0200X0.0750*%
%ADD18C,0.0200*%
%ADD19R,0.4200X0.0250*%
%ADD20R,0.0750X0.0250*%
%ADD21R,0.0300X0.0250*%
%ADD22C,0.0120*%
%ADD23R,0.0750X0.0500*%
%ADD24R,0.0700X0.0300*%
%ADD25R,0.0300X0.0500*%
D10*
X009424Y012592D02*
X010174Y012592D01*
X010174Y017592D01*
X011924Y017592D01*
X011924Y012592D01*
X010174Y012592D01*
X009424Y012592D02*
X009424Y017592D01*
X010174Y017592D01*
X010154Y017989D02*
X010154Y021989D01*
X011904Y021989D01*
X011904Y017989D01*
X010154Y017989D01*
X009404Y017989D01*
X009404Y021989D01*
X010154Y021989D01*
X018639Y021579D02*
X018641Y021599D01*
X018646Y021619D01*
X018656Y021637D01*
X018668Y021654D01*
X018683Y021668D01*
X018701Y021678D01*
X018720Y021686D01*
X018740Y021690D01*
X018760Y021690D01*
X018780Y021686D01*
X018799Y021678D01*
X018817Y021668D01*
X018832Y021654D01*
X018844Y021637D01*
X018854Y021619D01*
X018859Y021599D01*
X018861Y021579D01*
X018859Y021559D01*
X018854Y021539D01*
X018844Y021521D01*
X018832Y021504D01*
X018817Y021490D01*
X018799Y021480D01*
X018780Y021472D01*
X018760Y021468D01*
X018740Y021468D01*
X018720Y021472D01*
X018701Y021480D01*
X018683Y021490D01*
X018668Y021504D01*
X018656Y021521D01*
X018646Y021539D01*
X018641Y021559D01*
X018639Y021579D01*
D11*
X011928Y001548D02*
X000909Y001548D01*
X000909Y007060D01*
X012027Y007060D01*
X012322Y007060D01*
X012027Y007060D02*
X023743Y007060D01*
X023743Y001548D01*
X011928Y001548D01*
X012322Y001548D01*
X024043Y001516D02*
X029751Y001516D01*
X029751Y007027D01*
X024043Y007027D01*
X024043Y001516D01*
X038663Y001581D02*
X049683Y001581D01*
X050076Y001581D01*
X049683Y001581D02*
X061497Y001581D01*
X061497Y007093D01*
X049781Y007093D01*
X038663Y007093D01*
X038663Y001581D01*
X049781Y007093D02*
X050076Y007093D01*
X019065Y018272D02*
X018907Y018114D01*
X015443Y018114D01*
X015285Y018272D01*
X015285Y021736D01*
X015443Y021894D01*
X018907Y021894D01*
X019065Y021736D01*
X019065Y018272D01*
X018839Y033810D02*
X007225Y033810D01*
X007225Y039322D01*
X018839Y039322D01*
X018839Y033810D01*
X021417Y033810D02*
X027126Y033810D01*
X027126Y039322D01*
X021417Y039322D01*
X021417Y033810D01*
X006461Y033810D02*
X000752Y033810D01*
X000752Y039322D01*
X006461Y039322D01*
X006461Y033810D01*
X038593Y033811D02*
X050310Y033811D01*
X061428Y033811D01*
X061428Y039322D01*
X050408Y039322D01*
X050014Y039322D01*
X050408Y039322D02*
X038593Y039322D01*
X038593Y033811D01*
X050014Y033811D02*
X050310Y033811D01*
D12*
X018433Y016296D02*
X016133Y016296D01*
X016074Y016294D01*
X016016Y016288D01*
X015957Y016279D01*
X015900Y016265D01*
X015844Y016248D01*
X015789Y016227D01*
X015735Y016203D01*
X015683Y016175D01*
X015633Y016144D01*
X015585Y016110D01*
X015540Y016073D01*
X015497Y016032D01*
X015456Y015989D01*
X015419Y015944D01*
X015385Y015896D01*
X015354Y015846D01*
X015326Y015794D01*
X015302Y015740D01*
X015281Y015685D01*
X015264Y015629D01*
X015250Y015572D01*
X015241Y015513D01*
X015235Y015455D01*
X015233Y015396D01*
X015235Y015337D01*
X015241Y015279D01*
X015250Y015220D01*
X015264Y015163D01*
X015281Y015107D01*
X015302Y015052D01*
X015326Y014998D01*
X015354Y014946D01*
X015385Y014896D01*
X015419Y014848D01*
X015456Y014803D01*
X015497Y014760D01*
X015540Y014719D01*
X015585Y014682D01*
X015633Y014648D01*
X015683Y014617D01*
X015735Y014589D01*
X015789Y014565D01*
X015844Y014544D01*
X015900Y014527D01*
X015957Y014513D01*
X016016Y014504D01*
X016074Y014498D01*
X016133Y014496D01*
X018433Y014496D01*
X018492Y014498D01*
X018550Y014504D01*
X018609Y014513D01*
X018666Y014527D01*
X018722Y014544D01*
X018777Y014565D01*
X018831Y014589D01*
X018883Y014617D01*
X018933Y014648D01*
X018981Y014682D01*
X019026Y014719D01*
X019069Y014760D01*
X019110Y014803D01*
X019147Y014848D01*
X019181Y014896D01*
X019212Y014946D01*
X019240Y014998D01*
X019264Y015052D01*
X019285Y015107D01*
X019302Y015163D01*
X019316Y015220D01*
X019325Y015279D01*
X019331Y015337D01*
X019333Y015396D01*
X019331Y015455D01*
X019325Y015513D01*
X019316Y015572D01*
X019302Y015629D01*
X019285Y015685D01*
X019264Y015740D01*
X019240Y015794D01*
X019212Y015846D01*
X019181Y015896D01*
X019147Y015944D01*
X019110Y015989D01*
X019069Y016032D01*
X019026Y016073D01*
X018981Y016110D01*
X018933Y016144D01*
X018883Y016175D01*
X018831Y016203D01*
X018777Y016227D01*
X018722Y016248D01*
X018666Y016265D01*
X018609Y016279D01*
X018550Y016288D01*
X018492Y016294D01*
X018433Y016296D01*
D13*
X018433Y016096D02*
X016133Y016096D01*
X017033Y015746D02*
X017033Y015396D01*
X016783Y015396D01*
X017033Y015396D02*
X017033Y015046D01*
X017183Y015046D02*
X017183Y015746D01*
X017383Y015746D01*
X017383Y015046D01*
X017183Y015046D01*
X017533Y015046D02*
X017533Y015396D01*
X017783Y015396D01*
X017533Y015396D02*
X017533Y015746D01*
X018433Y016096D02*
X018484Y016094D01*
X018535Y016089D01*
X018585Y016079D01*
X018635Y016066D01*
X018683Y016050D01*
X018730Y016030D01*
X018776Y016006D01*
X018819Y015980D01*
X018861Y015950D01*
X018900Y015917D01*
X018937Y015882D01*
X018971Y015844D01*
X019002Y015803D01*
X019031Y015761D01*
X019056Y015716D01*
X019077Y015670D01*
X019096Y015622D01*
X019110Y015573D01*
X019121Y015523D01*
X019129Y015473D01*
X019133Y015422D01*
X019133Y015370D01*
X019129Y015319D01*
X019121Y015269D01*
X019110Y015219D01*
X019096Y015170D01*
X019077Y015122D01*
X019056Y015076D01*
X019031Y015031D01*
X019002Y014989D01*
X018971Y014948D01*
X018937Y014910D01*
X018900Y014875D01*
X018861Y014842D01*
X018819Y014812D01*
X018776Y014786D01*
X018730Y014762D01*
X018683Y014742D01*
X018635Y014726D01*
X018585Y014713D01*
X018535Y014703D01*
X018484Y014698D01*
X018433Y014696D01*
X016133Y014696D01*
X016082Y014698D01*
X016031Y014703D01*
X015981Y014713D01*
X015931Y014726D01*
X015883Y014742D01*
X015836Y014762D01*
X015790Y014786D01*
X015747Y014812D01*
X015705Y014842D01*
X015666Y014875D01*
X015629Y014910D01*
X015595Y014948D01*
X015564Y014989D01*
X015535Y015031D01*
X015510Y015076D01*
X015489Y015122D01*
X015470Y015170D01*
X015456Y015219D01*
X015445Y015269D01*
X015437Y015319D01*
X015433Y015370D01*
X015433Y015422D01*
X015437Y015473D01*
X015445Y015523D01*
X015456Y015573D01*
X015470Y015622D01*
X015489Y015670D01*
X015510Y015716D01*
X015535Y015761D01*
X015564Y015803D01*
X015595Y015844D01*
X015629Y015882D01*
X015666Y015917D01*
X015705Y015950D01*
X015747Y015980D01*
X015790Y016006D01*
X015836Y016030D01*
X015883Y016050D01*
X015931Y016066D01*
X015981Y016079D01*
X016031Y016089D01*
X016082Y016094D01*
X016133Y016096D01*
X022305Y017119D02*
X022305Y014819D01*
X025305Y014819D01*
X025305Y015569D01*
X025266Y015571D01*
X025227Y015577D01*
X025189Y015586D01*
X025152Y015599D01*
X025116Y015616D01*
X025083Y015636D01*
X025051Y015660D01*
X025022Y015686D01*
X024996Y015715D01*
X024972Y015747D01*
X024952Y015780D01*
X024935Y015816D01*
X024922Y015853D01*
X024913Y015891D01*
X024907Y015930D01*
X024905Y015969D01*
X024907Y016008D01*
X024913Y016047D01*
X024922Y016085D01*
X024935Y016122D01*
X024952Y016158D01*
X024972Y016191D01*
X024996Y016223D01*
X025022Y016252D01*
X025051Y016278D01*
X025083Y016302D01*
X025116Y016322D01*
X025152Y016339D01*
X025189Y016352D01*
X025227Y016361D01*
X025266Y016367D01*
X025305Y016369D01*
X025305Y017119D01*
X022305Y017119D01*
X027305Y017119D02*
X027305Y014819D01*
X030305Y014819D01*
X030305Y015569D01*
X030266Y015571D01*
X030227Y015577D01*
X030189Y015586D01*
X030152Y015599D01*
X030116Y015616D01*
X030083Y015636D01*
X030051Y015660D01*
X030022Y015686D01*
X029996Y015715D01*
X029972Y015747D01*
X029952Y015780D01*
X029935Y015816D01*
X029922Y015853D01*
X029913Y015891D01*
X029907Y015930D01*
X029905Y015969D01*
X029907Y016008D01*
X029913Y016047D01*
X029922Y016085D01*
X029935Y016122D01*
X029952Y016158D01*
X029972Y016191D01*
X029996Y016223D01*
X030022Y016252D01*
X030051Y016278D01*
X030083Y016302D01*
X030116Y016322D01*
X030152Y016339D01*
X030189Y016352D01*
X030227Y016361D01*
X030266Y016367D01*
X030305Y016369D01*
X030305Y017119D01*
X027305Y017119D01*
X032305Y017119D02*
X032305Y014819D01*
X035305Y014819D01*
X035305Y015569D01*
X035266Y015571D01*
X035227Y015577D01*
X035189Y015586D01*
X035152Y015599D01*
X035116Y015616D01*
X035083Y015636D01*
X035051Y015660D01*
X035022Y015686D01*
X034996Y015715D01*
X034972Y015747D01*
X034952Y015780D01*
X034935Y015816D01*
X034922Y015853D01*
X034913Y015891D01*
X034907Y015930D01*
X034905Y015969D01*
X034907Y016008D01*
X034913Y016047D01*
X034922Y016085D01*
X034935Y016122D01*
X034952Y016158D01*
X034972Y016191D01*
X034996Y016223D01*
X035022Y016252D01*
X035051Y016278D01*
X035083Y016302D01*
X035116Y016322D01*
X035152Y016339D01*
X035189Y016352D01*
X035227Y016361D01*
X035266Y016367D01*
X035305Y016369D01*
X035305Y017119D01*
X032305Y017119D01*
X037305Y017119D02*
X037305Y014819D01*
X040305Y014819D01*
X040305Y015569D01*
X040266Y015571D01*
X040227Y015577D01*
X040189Y015586D01*
X040152Y015599D01*
X040116Y015616D01*
X040083Y015636D01*
X040051Y015660D01*
X040022Y015686D01*
X039996Y015715D01*
X039972Y015747D01*
X039952Y015780D01*
X039935Y015816D01*
X039922Y015853D01*
X039913Y015891D01*
X039907Y015930D01*
X039905Y015969D01*
X039907Y016008D01*
X039913Y016047D01*
X039922Y016085D01*
X039935Y016122D01*
X039952Y016158D01*
X039972Y016191D01*
X039996Y016223D01*
X040022Y016252D01*
X040051Y016278D01*
X040083Y016302D01*
X040116Y016322D01*
X040152Y016339D01*
X040189Y016352D01*
X040227Y016361D01*
X040266Y016367D01*
X040305Y016369D01*
X040305Y017119D01*
X037305Y017119D01*
X042305Y017119D02*
X042305Y014819D01*
X045305Y014819D01*
X045305Y015569D01*
X045266Y015571D01*
X045227Y015577D01*
X045189Y015586D01*
X045152Y015599D01*
X045116Y015616D01*
X045083Y015636D01*
X045051Y015660D01*
X045022Y015686D01*
X044996Y015715D01*
X044972Y015747D01*
X044952Y015780D01*
X044935Y015816D01*
X044922Y015853D01*
X044913Y015891D01*
X044907Y015930D01*
X044905Y015969D01*
X044907Y016008D01*
X044913Y016047D01*
X044922Y016085D01*
X044935Y016122D01*
X044952Y016158D01*
X044972Y016191D01*
X044996Y016223D01*
X045022Y016252D01*
X045051Y016278D01*
X045083Y016302D01*
X045116Y016322D01*
X045152Y016339D01*
X045189Y016352D01*
X045227Y016361D01*
X045266Y016367D01*
X045305Y016369D01*
X045305Y017119D01*
X042305Y017119D01*
X047305Y017119D02*
X047305Y014819D01*
X050305Y014819D01*
X050305Y015569D01*
X050266Y015571D01*
X050227Y015577D01*
X050189Y015586D01*
X050152Y015599D01*
X050116Y015616D01*
X050083Y015636D01*
X050051Y015660D01*
X050022Y015686D01*
X049996Y015715D01*
X049972Y015747D01*
X049952Y015780D01*
X049935Y015816D01*
X049922Y015853D01*
X049913Y015891D01*
X049907Y015930D01*
X049905Y015969D01*
X049907Y016008D01*
X049913Y016047D01*
X049922Y016085D01*
X049935Y016122D01*
X049952Y016158D01*
X049972Y016191D01*
X049996Y016223D01*
X050022Y016252D01*
X050051Y016278D01*
X050083Y016302D01*
X050116Y016322D01*
X050152Y016339D01*
X050189Y016352D01*
X050227Y016361D01*
X050266Y016367D01*
X050305Y016369D01*
X050305Y017119D01*
X047305Y017119D01*
X052305Y017119D02*
X052305Y014819D01*
X055305Y014819D01*
X055305Y015569D01*
X055266Y015571D01*
X055227Y015577D01*
X055189Y015586D01*
X055152Y015599D01*
X055116Y015616D01*
X055083Y015636D01*
X055051Y015660D01*
X055022Y015686D01*
X054996Y015715D01*
X054972Y015747D01*
X054952Y015780D01*
X054935Y015816D01*
X054922Y015853D01*
X054913Y015891D01*
X054907Y015930D01*
X054905Y015969D01*
X054907Y016008D01*
X054913Y016047D01*
X054922Y016085D01*
X054935Y016122D01*
X054952Y016158D01*
X054972Y016191D01*
X054996Y016223D01*
X055022Y016252D01*
X055051Y016278D01*
X055083Y016302D01*
X055116Y016322D01*
X055152Y016339D01*
X055189Y016352D01*
X055227Y016361D01*
X055266Y016367D01*
X055305Y016369D01*
X055305Y017119D01*
X052305Y017119D01*
X057305Y017119D02*
X057305Y014819D01*
X060305Y014819D01*
X060305Y015569D01*
X060266Y015571D01*
X060227Y015577D01*
X060189Y015586D01*
X060152Y015599D01*
X060116Y015616D01*
X060083Y015636D01*
X060051Y015660D01*
X060022Y015686D01*
X059996Y015715D01*
X059972Y015747D01*
X059952Y015780D01*
X059935Y015816D01*
X059922Y015853D01*
X059913Y015891D01*
X059907Y015930D01*
X059905Y015969D01*
X059907Y016008D01*
X059913Y016047D01*
X059922Y016085D01*
X059935Y016122D01*
X059952Y016158D01*
X059972Y016191D01*
X059996Y016223D01*
X060022Y016252D01*
X060051Y016278D01*
X060083Y016302D01*
X060116Y016322D01*
X060152Y016339D01*
X060189Y016352D01*
X060227Y016361D01*
X060266Y016367D01*
X060305Y016369D01*
X060305Y017119D01*
X057305Y017119D01*
X056590Y013469D02*
X055790Y013469D01*
X055773Y013467D01*
X055756Y013463D01*
X055740Y013456D01*
X055726Y013446D01*
X055713Y013433D01*
X055703Y013419D01*
X055696Y013403D01*
X055692Y013386D01*
X055690Y013369D01*
X055690Y010669D01*
X055692Y010652D01*
X055696Y010635D01*
X055703Y010619D01*
X055713Y010605D01*
X055726Y010592D01*
X055740Y010582D01*
X055756Y010575D01*
X055773Y010571D01*
X055790Y010569D01*
X056590Y010569D01*
X056607Y010571D01*
X056624Y010575D01*
X056640Y010582D01*
X056654Y010592D01*
X056667Y010605D01*
X056677Y010619D01*
X056684Y010635D01*
X056688Y010652D01*
X056690Y010669D01*
X056690Y013369D01*
X056688Y013386D01*
X056684Y013403D01*
X056677Y013419D01*
X056667Y013433D01*
X056654Y013446D01*
X056640Y013456D01*
X056624Y013463D01*
X056607Y013467D01*
X056590Y013469D01*
X056190Y012619D02*
X056190Y012139D01*
X056190Y011889D02*
X056190Y011419D01*
X056705Y010169D02*
X056805Y010069D01*
X056805Y008919D01*
X057805Y008919D02*
X057805Y010069D01*
X057905Y010169D01*
X061705Y010169D01*
X061805Y010069D01*
X061805Y008919D01*
X061616Y010569D02*
X060816Y010569D01*
X060799Y010571D01*
X060782Y010575D01*
X060766Y010582D01*
X060752Y010592D01*
X060739Y010605D01*
X060729Y010619D01*
X060722Y010635D01*
X060718Y010652D01*
X060716Y010669D01*
X060716Y013369D01*
X060718Y013386D01*
X060722Y013403D01*
X060729Y013419D01*
X060739Y013433D01*
X060752Y013446D01*
X060766Y013456D01*
X060782Y013463D01*
X060799Y013467D01*
X060816Y013469D01*
X061616Y013469D01*
X061633Y013467D01*
X061650Y013463D01*
X061666Y013456D01*
X061680Y013446D01*
X061693Y013433D01*
X061703Y013419D01*
X061710Y013403D01*
X061714Y013386D01*
X061716Y013369D01*
X061716Y010669D01*
X061714Y010652D01*
X061710Y010635D01*
X061703Y010619D01*
X061693Y010605D01*
X061680Y010592D01*
X061666Y010582D01*
X061650Y010575D01*
X061633Y010571D01*
X061616Y010569D01*
X061216Y011419D02*
X061216Y011889D01*
X061216Y012139D02*
X061216Y012619D01*
X056705Y010169D02*
X052905Y010169D01*
X052805Y010069D01*
X052805Y008919D01*
X051805Y008919D02*
X051805Y010069D01*
X051705Y010169D01*
X047905Y010169D01*
X047805Y010069D01*
X047805Y008919D01*
X046805Y008919D02*
X046805Y010069D01*
X046705Y010169D01*
X042905Y010169D01*
X042805Y010069D01*
X042805Y008919D01*
X041805Y008919D02*
X041805Y010069D01*
X041705Y010169D01*
X037905Y010169D01*
X037805Y010069D01*
X037805Y008919D01*
X036805Y008919D02*
X036805Y010069D01*
X036705Y010169D01*
X032905Y010169D01*
X032805Y010069D01*
X032805Y008919D01*
X031805Y008919D02*
X031805Y010069D01*
X031705Y010169D01*
X027905Y010169D01*
X027805Y010069D01*
X027805Y008919D01*
X026805Y008919D02*
X026805Y010069D01*
X026705Y010169D01*
X022905Y010169D01*
X022805Y010069D01*
X022805Y008919D01*
X025822Y010669D02*
X025822Y013369D01*
X025824Y013386D01*
X025828Y013403D01*
X025835Y013419D01*
X025845Y013433D01*
X025858Y013446D01*
X025872Y013456D01*
X025888Y013463D01*
X025905Y013467D01*
X025922Y013469D01*
X026722Y013469D01*
X026739Y013467D01*
X026756Y013463D01*
X026772Y013456D01*
X026786Y013446D01*
X026799Y013433D01*
X026809Y013419D01*
X026816Y013403D01*
X026820Y013386D01*
X026822Y013369D01*
X026822Y010669D01*
X026820Y010652D01*
X026816Y010635D01*
X026809Y010619D01*
X026799Y010605D01*
X026786Y010592D01*
X026772Y010582D01*
X026756Y010575D01*
X026739Y010571D01*
X026722Y010569D01*
X025922Y010569D01*
X025905Y010571D01*
X025888Y010575D01*
X025872Y010582D01*
X025858Y010592D01*
X025845Y010605D01*
X025835Y010619D01*
X025828Y010635D01*
X025824Y010652D01*
X025822Y010669D01*
X026322Y011419D02*
X026322Y011889D01*
X026322Y012139D02*
X026322Y012619D01*
X030698Y013369D02*
X030698Y010669D01*
X030700Y010652D01*
X030704Y010635D01*
X030711Y010619D01*
X030721Y010605D01*
X030734Y010592D01*
X030748Y010582D01*
X030764Y010575D01*
X030781Y010571D01*
X030798Y010569D01*
X031598Y010569D01*
X031615Y010571D01*
X031632Y010575D01*
X031648Y010582D01*
X031662Y010592D01*
X031675Y010605D01*
X031685Y010619D01*
X031692Y010635D01*
X031696Y010652D01*
X031698Y010669D01*
X031698Y013369D01*
X031696Y013386D01*
X031692Y013403D01*
X031685Y013419D01*
X031675Y013433D01*
X031662Y013446D01*
X031648Y013456D01*
X031632Y013463D01*
X031615Y013467D01*
X031598Y013469D01*
X030798Y013469D01*
X030781Y013467D01*
X030764Y013463D01*
X030748Y013456D01*
X030734Y013446D01*
X030721Y013433D01*
X030711Y013419D01*
X030704Y013403D01*
X030700Y013386D01*
X030698Y013369D01*
X031198Y012619D02*
X031198Y012139D01*
X031198Y011889D02*
X031198Y011419D01*
X035701Y010669D02*
X035701Y013369D01*
X035703Y013386D01*
X035707Y013403D01*
X035714Y013419D01*
X035724Y013433D01*
X035737Y013446D01*
X035751Y013456D01*
X035767Y013463D01*
X035784Y013467D01*
X035801Y013469D01*
X036601Y013469D01*
X036618Y013467D01*
X036635Y013463D01*
X036651Y013456D01*
X036665Y013446D01*
X036678Y013433D01*
X036688Y013419D01*
X036695Y013403D01*
X036699Y013386D01*
X036701Y013369D01*
X036701Y010669D01*
X036699Y010652D01*
X036695Y010635D01*
X036688Y010619D01*
X036678Y010605D01*
X036665Y010592D01*
X036651Y010582D01*
X036635Y010575D01*
X036618Y010571D01*
X036601Y010569D01*
X035801Y010569D01*
X035784Y010571D01*
X035767Y010575D01*
X035751Y010582D01*
X035737Y010592D01*
X035724Y010605D01*
X035714Y010619D01*
X035707Y010635D01*
X035703Y010652D01*
X035701Y010669D01*
X036201Y011419D02*
X036201Y011889D01*
X036201Y012139D02*
X036201Y012619D01*
X040696Y013369D02*
X040696Y010669D01*
X040698Y010652D01*
X040702Y010635D01*
X040709Y010619D01*
X040719Y010605D01*
X040732Y010592D01*
X040746Y010582D01*
X040762Y010575D01*
X040779Y010571D01*
X040796Y010569D01*
X041596Y010569D01*
X041613Y010571D01*
X041630Y010575D01*
X041646Y010582D01*
X041660Y010592D01*
X041673Y010605D01*
X041683Y010619D01*
X041690Y010635D01*
X041694Y010652D01*
X041696Y010669D01*
X041696Y013369D01*
X041694Y013386D01*
X041690Y013403D01*
X041683Y013419D01*
X041673Y013433D01*
X041660Y013446D01*
X041646Y013456D01*
X041630Y013463D01*
X041613Y013467D01*
X041596Y013469D01*
X040796Y013469D01*
X040779Y013467D01*
X040762Y013463D01*
X040746Y013456D01*
X040732Y013446D01*
X040719Y013433D01*
X040709Y013419D01*
X040702Y013403D01*
X040698Y013386D01*
X040696Y013369D01*
X041196Y012619D02*
X041196Y012139D01*
X041196Y011889D02*
X041196Y011419D01*
X045700Y010669D02*
X045700Y013369D01*
X045702Y013386D01*
X045706Y013403D01*
X045713Y013419D01*
X045723Y013433D01*
X045736Y013446D01*
X045750Y013456D01*
X045766Y013463D01*
X045783Y013467D01*
X045800Y013469D01*
X046600Y013469D01*
X046617Y013467D01*
X046634Y013463D01*
X046650Y013456D01*
X046664Y013446D01*
X046677Y013433D01*
X046687Y013419D01*
X046694Y013403D01*
X046698Y013386D01*
X046700Y013369D01*
X046700Y010669D01*
X046698Y010652D01*
X046694Y010635D01*
X046687Y010619D01*
X046677Y010605D01*
X046664Y010592D01*
X046650Y010582D01*
X046634Y010575D01*
X046617Y010571D01*
X046600Y010569D01*
X045800Y010569D01*
X045783Y010571D01*
X045766Y010575D01*
X045750Y010582D01*
X045736Y010592D01*
X045723Y010605D01*
X045713Y010619D01*
X045706Y010635D01*
X045702Y010652D01*
X045700Y010669D01*
X046200Y011419D02*
X046200Y011889D01*
X046200Y012139D02*
X046200Y012619D01*
X050697Y013369D02*
X050697Y010669D01*
X050699Y010652D01*
X050703Y010635D01*
X050710Y010619D01*
X050720Y010605D01*
X050733Y010592D01*
X050747Y010582D01*
X050763Y010575D01*
X050780Y010571D01*
X050797Y010569D01*
X051597Y010569D01*
X051614Y010571D01*
X051631Y010575D01*
X051647Y010582D01*
X051661Y010592D01*
X051674Y010605D01*
X051684Y010619D01*
X051691Y010635D01*
X051695Y010652D01*
X051697Y010669D01*
X051697Y013369D01*
X051695Y013386D01*
X051691Y013403D01*
X051684Y013419D01*
X051674Y013433D01*
X051661Y013446D01*
X051647Y013456D01*
X051631Y013463D01*
X051614Y013467D01*
X051597Y013469D01*
X050797Y013469D01*
X050780Y013467D01*
X050763Y013463D01*
X050747Y013456D01*
X050733Y013446D01*
X050720Y013433D01*
X050710Y013419D01*
X050703Y013403D01*
X050699Y013386D01*
X050697Y013369D01*
X051197Y012619D02*
X051197Y012139D01*
X051197Y011889D02*
X051197Y011419D01*
X037506Y006831D02*
X037506Y002831D01*
X035206Y002831D01*
X035206Y006831D01*
X035956Y006831D01*
X035958Y006792D01*
X035964Y006753D01*
X035973Y006715D01*
X035986Y006678D01*
X036003Y006642D01*
X036023Y006609D01*
X036047Y006577D01*
X036073Y006548D01*
X036102Y006522D01*
X036134Y006498D01*
X036167Y006478D01*
X036203Y006461D01*
X036240Y006448D01*
X036278Y006439D01*
X036317Y006433D01*
X036356Y006431D01*
X036395Y006433D01*
X036434Y006439D01*
X036472Y006448D01*
X036509Y006461D01*
X036545Y006478D01*
X036578Y006498D01*
X036610Y006522D01*
X036639Y006548D01*
X036665Y006577D01*
X036689Y006609D01*
X036709Y006642D01*
X036726Y006678D01*
X036739Y006715D01*
X036748Y006753D01*
X036754Y006792D01*
X036756Y006831D01*
X037506Y006831D01*
X034166Y005141D02*
X034166Y003541D01*
X034164Y003524D01*
X034160Y003507D01*
X034153Y003491D01*
X034143Y003477D01*
X034130Y003464D01*
X034116Y003454D01*
X034100Y003447D01*
X034083Y003443D01*
X034066Y003441D01*
X033466Y003441D01*
X033449Y003443D01*
X033432Y003447D01*
X033416Y003454D01*
X033402Y003464D01*
X033389Y003477D01*
X033379Y003491D01*
X033372Y003507D01*
X033368Y003524D01*
X033366Y003541D01*
X033366Y005141D01*
X033368Y005158D01*
X033372Y005175D01*
X033379Y005191D01*
X033389Y005205D01*
X033402Y005218D01*
X033416Y005228D01*
X033432Y005235D01*
X033449Y005239D01*
X033466Y005241D01*
X034066Y005241D01*
X034083Y005239D01*
X034100Y005235D01*
X034116Y005228D01*
X034130Y005218D01*
X034143Y005205D01*
X034153Y005191D01*
X034160Y005175D01*
X034164Y005158D01*
X034166Y005141D01*
X033766Y004591D02*
X033766Y004341D01*
X033516Y004341D01*
X033766Y004341D02*
X033516Y003941D01*
X034016Y003941D01*
X033766Y004341D01*
X034016Y004341D01*
X033766Y004341D02*
X033766Y003741D01*
X034420Y023697D02*
X034420Y024447D01*
X034459Y024449D01*
X034498Y024455D01*
X034536Y024464D01*
X034573Y024477D01*
X034609Y024494D01*
X034642Y024514D01*
X034674Y024538D01*
X034703Y024564D01*
X034729Y024593D01*
X034753Y024625D01*
X034773Y024658D01*
X034790Y024694D01*
X034803Y024731D01*
X034812Y024769D01*
X034818Y024808D01*
X034820Y024847D01*
X034818Y024886D01*
X034812Y024925D01*
X034803Y024963D01*
X034790Y025000D01*
X034773Y025036D01*
X034753Y025069D01*
X034729Y025101D01*
X034703Y025130D01*
X034674Y025156D01*
X034642Y025180D01*
X034609Y025200D01*
X034573Y025217D01*
X034536Y025230D01*
X034498Y025239D01*
X034459Y025245D01*
X034420Y025247D01*
X034420Y025997D01*
X037420Y025997D01*
X037420Y023697D01*
X034420Y023697D01*
X032420Y023697D02*
X032420Y025997D01*
X029420Y025997D01*
X029420Y025247D01*
X029459Y025245D01*
X029498Y025239D01*
X029536Y025230D01*
X029573Y025217D01*
X029609Y025200D01*
X029642Y025180D01*
X029674Y025156D01*
X029703Y025130D01*
X029729Y025101D01*
X029753Y025069D01*
X029773Y025036D01*
X029790Y025000D01*
X029803Y024963D01*
X029812Y024925D01*
X029818Y024886D01*
X029820Y024847D01*
X029818Y024808D01*
X029812Y024769D01*
X029803Y024731D01*
X029790Y024694D01*
X029773Y024658D01*
X029753Y024625D01*
X029729Y024593D01*
X029703Y024564D01*
X029674Y024538D01*
X029642Y024514D01*
X029609Y024494D01*
X029573Y024477D01*
X029536Y024464D01*
X029498Y024455D01*
X029459Y024449D01*
X029420Y024447D01*
X029420Y023697D01*
X032420Y023697D01*
X027420Y023697D02*
X027420Y025997D01*
X024420Y025997D01*
X024420Y025247D01*
X024459Y025245D01*
X024498Y025239D01*
X024536Y025230D01*
X024573Y025217D01*
X024609Y025200D01*
X024642Y025180D01*
X024674Y025156D01*
X024703Y025130D01*
X024729Y025101D01*
X024753Y025069D01*
X024773Y025036D01*
X024790Y025000D01*
X024803Y024963D01*
X024812Y024925D01*
X024818Y024886D01*
X024820Y024847D01*
X024818Y024808D01*
X024812Y024769D01*
X024803Y024731D01*
X024790Y024694D01*
X024773Y024658D01*
X024753Y024625D01*
X024729Y024593D01*
X024703Y024564D01*
X024674Y024538D01*
X024642Y024514D01*
X024609Y024494D01*
X024573Y024477D01*
X024536Y024464D01*
X024498Y024455D01*
X024459Y024449D01*
X024420Y024447D01*
X024420Y023697D01*
X027420Y023697D01*
X028034Y027318D02*
X028834Y027318D01*
X028851Y027320D01*
X028868Y027324D01*
X028884Y027331D01*
X028898Y027341D01*
X028911Y027354D01*
X028921Y027368D01*
X028928Y027384D01*
X028932Y027401D01*
X028934Y027418D01*
X028934Y030118D01*
X028932Y030135D01*
X028928Y030152D01*
X028921Y030168D01*
X028911Y030182D01*
X028898Y030195D01*
X028884Y030205D01*
X028868Y030212D01*
X028851Y030216D01*
X028834Y030218D01*
X028034Y030218D01*
X028017Y030216D01*
X028000Y030212D01*
X027984Y030205D01*
X027970Y030195D01*
X027957Y030182D01*
X027947Y030168D01*
X027940Y030152D01*
X027936Y030135D01*
X027934Y030118D01*
X027934Y027418D01*
X027936Y027401D01*
X027940Y027384D01*
X027947Y027368D01*
X027957Y027354D01*
X027970Y027341D01*
X027984Y027331D01*
X028000Y027324D01*
X028017Y027320D01*
X028034Y027318D01*
X028434Y028168D02*
X028434Y028648D01*
X028434Y028898D02*
X028434Y029368D01*
X028020Y030647D02*
X027920Y030747D01*
X027920Y031897D01*
X026920Y031897D02*
X026920Y030747D01*
X026820Y030647D01*
X023020Y030647D01*
X022920Y030747D01*
X022920Y031897D01*
X023023Y030218D02*
X023823Y030218D01*
X023840Y030216D01*
X023857Y030212D01*
X023873Y030205D01*
X023887Y030195D01*
X023900Y030182D01*
X023910Y030168D01*
X023917Y030152D01*
X023921Y030135D01*
X023923Y030118D01*
X023923Y027418D01*
X023921Y027401D01*
X023917Y027384D01*
X023910Y027368D01*
X023900Y027354D01*
X023887Y027341D01*
X023873Y027331D01*
X023857Y027324D01*
X023840Y027320D01*
X023823Y027318D01*
X023023Y027318D01*
X023006Y027320D01*
X022989Y027324D01*
X022973Y027331D01*
X022959Y027341D01*
X022946Y027354D01*
X022936Y027368D01*
X022929Y027384D01*
X022925Y027401D01*
X022923Y027418D01*
X022923Y030118D01*
X022925Y030135D01*
X022929Y030152D01*
X022936Y030168D01*
X022946Y030182D01*
X022959Y030195D01*
X022973Y030205D01*
X022989Y030212D01*
X023006Y030216D01*
X023023Y030218D01*
X023423Y029368D02*
X023423Y028898D01*
X023423Y028648D02*
X023423Y028168D01*
X019834Y029293D02*
X019834Y030093D01*
X019734Y030193D01*
X019834Y030293D01*
X019834Y031093D01*
X019734Y031193D01*
X018934Y031193D01*
X018834Y031093D01*
X018834Y030293D01*
X018934Y030193D01*
X018834Y030093D01*
X018834Y029293D01*
X018934Y029193D01*
X019734Y029193D01*
X019834Y029293D01*
X017834Y028343D02*
X017834Y030543D01*
X013834Y030543D01*
X013834Y029693D01*
X013864Y029691D01*
X013894Y029686D01*
X013923Y029677D01*
X013950Y029664D01*
X013976Y029649D01*
X014000Y029630D01*
X014021Y029609D01*
X014040Y029585D01*
X014055Y029559D01*
X014068Y029532D01*
X014077Y029503D01*
X014082Y029473D01*
X014084Y029443D01*
X014082Y029413D01*
X014077Y029383D01*
X014068Y029354D01*
X014055Y029327D01*
X014040Y029301D01*
X014021Y029277D01*
X014000Y029256D01*
X013976Y029237D01*
X013950Y029222D01*
X013923Y029209D01*
X013894Y029200D01*
X013864Y029195D01*
X013834Y029193D01*
X013834Y028343D01*
X017834Y028343D01*
X012095Y030807D02*
X012095Y031957D01*
X012095Y030807D02*
X011995Y030707D01*
X008195Y030707D01*
X008095Y030807D01*
X008095Y031957D01*
X009858Y026554D02*
X009860Y026617D01*
X009866Y026679D01*
X009876Y026741D01*
X009889Y026803D01*
X009907Y026863D01*
X009928Y026922D01*
X009953Y026980D01*
X009982Y027036D01*
X010014Y027090D01*
X010049Y027142D01*
X010087Y027191D01*
X010129Y027239D01*
X010173Y027283D01*
X010221Y027325D01*
X010270Y027363D01*
X010322Y027398D01*
X010376Y027430D01*
X010432Y027459D01*
X010490Y027484D01*
X010549Y027505D01*
X010609Y027523D01*
X010671Y027536D01*
X010733Y027546D01*
X010795Y027552D01*
X010858Y027554D01*
X010921Y027552D01*
X010983Y027546D01*
X011045Y027536D01*
X011107Y027523D01*
X011167Y027505D01*
X011226Y027484D01*
X011284Y027459D01*
X011340Y027430D01*
X011394Y027398D01*
X011446Y027363D01*
X011495Y027325D01*
X011543Y027283D01*
X011587Y027239D01*
X011629Y027191D01*
X011667Y027142D01*
X011702Y027090D01*
X011734Y027036D01*
X011763Y026980D01*
X011788Y026922D01*
X011809Y026863D01*
X011827Y026803D01*
X011840Y026741D01*
X011850Y026679D01*
X011856Y026617D01*
X011858Y026554D01*
X011856Y026491D01*
X011850Y026429D01*
X011840Y026367D01*
X011827Y026305D01*
X011809Y026245D01*
X011788Y026186D01*
X011763Y026128D01*
X011734Y026072D01*
X011702Y026018D01*
X011667Y025966D01*
X011629Y025917D01*
X011587Y025869D01*
X011543Y025825D01*
X011495Y025783D01*
X011446Y025745D01*
X011394Y025710D01*
X011340Y025678D01*
X011284Y025649D01*
X011226Y025624D01*
X011167Y025603D01*
X011107Y025585D01*
X011045Y025572D01*
X010983Y025562D01*
X010921Y025556D01*
X010858Y025554D01*
X010795Y025556D01*
X010733Y025562D01*
X010671Y025572D01*
X010609Y025585D01*
X010549Y025603D01*
X010490Y025624D01*
X010432Y025649D01*
X010376Y025678D01*
X010322Y025710D01*
X010270Y025745D01*
X010221Y025783D01*
X010173Y025825D01*
X010129Y025869D01*
X010087Y025917D01*
X010049Y025966D01*
X010014Y026018D01*
X009982Y026072D01*
X009953Y026128D01*
X009928Y026186D01*
X009907Y026245D01*
X009889Y026305D01*
X009876Y026367D01*
X009866Y026429D01*
X009860Y026491D01*
X009858Y026554D01*
X011308Y026054D02*
X011408Y026054D01*
X011408Y025954D01*
X011408Y026054D02*
X011408Y026154D01*
X011408Y026054D02*
X011508Y026054D01*
X028020Y030647D02*
X031820Y030647D01*
X031920Y030747D01*
X031920Y031897D01*
X032920Y031897D02*
X032920Y030747D01*
X033020Y030647D01*
X036820Y030647D01*
X036920Y030747D01*
X036920Y031897D01*
X037920Y031897D02*
X037920Y030747D01*
X038020Y030647D01*
X041820Y030647D01*
X041920Y030747D01*
X041920Y031897D01*
X042920Y031897D02*
X042920Y030747D01*
X043020Y030647D01*
X046820Y030647D01*
X046920Y030747D01*
X046920Y031897D01*
X047920Y031897D02*
X047920Y030747D01*
X048020Y030647D01*
X051820Y030647D01*
X051920Y030747D01*
X051920Y031897D01*
X052920Y031897D02*
X052920Y030747D01*
X053020Y030647D01*
X056820Y030647D01*
X056920Y030747D01*
X056920Y031897D01*
X057920Y031897D02*
X057920Y030747D01*
X058020Y030647D01*
X061820Y030647D01*
X061920Y030747D01*
X061920Y031897D01*
X058922Y030118D02*
X058922Y027418D01*
X058920Y027401D01*
X058916Y027384D01*
X058909Y027368D01*
X058899Y027354D01*
X058886Y027341D01*
X058872Y027331D01*
X058856Y027324D01*
X058839Y027320D01*
X058822Y027318D01*
X058022Y027318D01*
X058005Y027320D01*
X057988Y027324D01*
X057972Y027331D01*
X057958Y027341D01*
X057945Y027354D01*
X057935Y027368D01*
X057928Y027384D01*
X057924Y027401D01*
X057922Y027418D01*
X057922Y030118D01*
X057924Y030135D01*
X057928Y030152D01*
X057935Y030168D01*
X057945Y030182D01*
X057958Y030195D01*
X057972Y030205D01*
X057988Y030212D01*
X058005Y030216D01*
X058022Y030218D01*
X058822Y030218D01*
X058839Y030216D01*
X058856Y030212D01*
X058872Y030205D01*
X058886Y030195D01*
X058899Y030182D01*
X058909Y030168D01*
X058916Y030152D01*
X058920Y030135D01*
X058922Y030118D01*
X058422Y029368D02*
X058422Y028898D01*
X058422Y028648D02*
X058422Y028168D01*
X059420Y025997D02*
X059420Y025247D01*
X059459Y025245D01*
X059498Y025239D01*
X059536Y025230D01*
X059573Y025217D01*
X059609Y025200D01*
X059642Y025180D01*
X059674Y025156D01*
X059703Y025130D01*
X059729Y025101D01*
X059753Y025069D01*
X059773Y025036D01*
X059790Y025000D01*
X059803Y024963D01*
X059812Y024925D01*
X059818Y024886D01*
X059820Y024847D01*
X059818Y024808D01*
X059812Y024769D01*
X059803Y024731D01*
X059790Y024694D01*
X059773Y024658D01*
X059753Y024625D01*
X059729Y024593D01*
X059703Y024564D01*
X059674Y024538D01*
X059642Y024514D01*
X059609Y024494D01*
X059573Y024477D01*
X059536Y024464D01*
X059498Y024455D01*
X059459Y024449D01*
X059420Y024447D01*
X059420Y023697D01*
X062420Y023697D01*
X062420Y025997D01*
X059420Y025997D01*
X057420Y025997D02*
X057420Y023697D01*
X054420Y023697D01*
X054420Y024447D01*
X054459Y024449D01*
X054498Y024455D01*
X054536Y024464D01*
X054573Y024477D01*
X054609Y024494D01*
X054642Y024514D01*
X054674Y024538D01*
X054703Y024564D01*
X054729Y024593D01*
X054753Y024625D01*
X054773Y024658D01*
X054790Y024694D01*
X054803Y024731D01*
X054812Y024769D01*
X054818Y024808D01*
X054820Y024847D01*
X054818Y024886D01*
X054812Y024925D01*
X054803Y024963D01*
X054790Y025000D01*
X054773Y025036D01*
X054753Y025069D01*
X054729Y025101D01*
X054703Y025130D01*
X054674Y025156D01*
X054642Y025180D01*
X054609Y025200D01*
X054573Y025217D01*
X054536Y025230D01*
X054498Y025239D01*
X054459Y025245D01*
X054420Y025247D01*
X054420Y025997D01*
X057420Y025997D01*
X054018Y027418D02*
X054018Y030118D01*
X054016Y030135D01*
X054012Y030152D01*
X054005Y030168D01*
X053995Y030182D01*
X053982Y030195D01*
X053968Y030205D01*
X053952Y030212D01*
X053935Y030216D01*
X053918Y030218D01*
X053118Y030218D01*
X053101Y030216D01*
X053084Y030212D01*
X053068Y030205D01*
X053054Y030195D01*
X053041Y030182D01*
X053031Y030168D01*
X053024Y030152D01*
X053020Y030135D01*
X053018Y030118D01*
X053018Y027418D01*
X053020Y027401D01*
X053024Y027384D01*
X053031Y027368D01*
X053041Y027354D01*
X053054Y027341D01*
X053068Y027331D01*
X053084Y027324D01*
X053101Y027320D01*
X053118Y027318D01*
X053918Y027318D01*
X053935Y027320D01*
X053952Y027324D01*
X053968Y027331D01*
X053982Y027341D01*
X053995Y027354D01*
X054005Y027368D01*
X054012Y027384D01*
X054016Y027401D01*
X054018Y027418D01*
X053518Y028168D02*
X053518Y028648D01*
X053518Y028898D02*
X053518Y029368D01*
X049040Y030118D02*
X049040Y027418D01*
X049038Y027401D01*
X049034Y027384D01*
X049027Y027368D01*
X049017Y027354D01*
X049004Y027341D01*
X048990Y027331D01*
X048974Y027324D01*
X048957Y027320D01*
X048940Y027318D01*
X048140Y027318D01*
X048123Y027320D01*
X048106Y027324D01*
X048090Y027331D01*
X048076Y027341D01*
X048063Y027354D01*
X048053Y027368D01*
X048046Y027384D01*
X048042Y027401D01*
X048040Y027418D01*
X048040Y030118D01*
X048042Y030135D01*
X048046Y030152D01*
X048053Y030168D01*
X048063Y030182D01*
X048076Y030195D01*
X048090Y030205D01*
X048106Y030212D01*
X048123Y030216D01*
X048140Y030218D01*
X048940Y030218D01*
X048957Y030216D01*
X048974Y030212D01*
X048990Y030205D01*
X049004Y030195D01*
X049017Y030182D01*
X049027Y030168D01*
X049034Y030152D01*
X049038Y030135D01*
X049040Y030118D01*
X048540Y029368D02*
X048540Y028898D01*
X048540Y028648D02*
X048540Y028168D01*
X049420Y025997D02*
X049420Y025247D01*
X049459Y025245D01*
X049498Y025239D01*
X049536Y025230D01*
X049573Y025217D01*
X049609Y025200D01*
X049642Y025180D01*
X049674Y025156D01*
X049703Y025130D01*
X049729Y025101D01*
X049753Y025069D01*
X049773Y025036D01*
X049790Y025000D01*
X049803Y024963D01*
X049812Y024925D01*
X049818Y024886D01*
X049820Y024847D01*
X049818Y024808D01*
X049812Y024769D01*
X049803Y024731D01*
X049790Y024694D01*
X049773Y024658D01*
X049753Y024625D01*
X049729Y024593D01*
X049703Y024564D01*
X049674Y024538D01*
X049642Y024514D01*
X049609Y024494D01*
X049573Y024477D01*
X049536Y024464D01*
X049498Y024455D01*
X049459Y024449D01*
X049420Y024447D01*
X049420Y023697D01*
X052420Y023697D01*
X052420Y025997D01*
X049420Y025997D01*
X047420Y025997D02*
X047420Y023697D01*
X044420Y023697D01*
X044420Y024447D01*
X044459Y024449D01*
X044498Y024455D01*
X044536Y024464D01*
X044573Y024477D01*
X044609Y024494D01*
X044642Y024514D01*
X044674Y024538D01*
X044703Y024564D01*
X044729Y024593D01*
X044753Y024625D01*
X044773Y024658D01*
X044790Y024694D01*
X044803Y024731D01*
X044812Y024769D01*
X044818Y024808D01*
X044820Y024847D01*
X044818Y024886D01*
X044812Y024925D01*
X044803Y024963D01*
X044790Y025000D01*
X044773Y025036D01*
X044753Y025069D01*
X044729Y025101D01*
X044703Y025130D01*
X044674Y025156D01*
X044642Y025180D01*
X044609Y025200D01*
X044573Y025217D01*
X044536Y025230D01*
X044498Y025239D01*
X044459Y025245D01*
X044420Y025247D01*
X044420Y025997D01*
X047420Y025997D01*
X044015Y027418D02*
X044015Y030118D01*
X044013Y030135D01*
X044009Y030152D01*
X044002Y030168D01*
X043992Y030182D01*
X043979Y030195D01*
X043965Y030205D01*
X043949Y030212D01*
X043932Y030216D01*
X043915Y030218D01*
X043115Y030218D01*
X043098Y030216D01*
X043081Y030212D01*
X043065Y030205D01*
X043051Y030195D01*
X043038Y030182D01*
X043028Y030168D01*
X043021Y030152D01*
X043017Y030135D01*
X043015Y030118D01*
X043015Y027418D01*
X043017Y027401D01*
X043021Y027384D01*
X043028Y027368D01*
X043038Y027354D01*
X043051Y027341D01*
X043065Y027331D01*
X043081Y027324D01*
X043098Y027320D01*
X043115Y027318D01*
X043915Y027318D01*
X043932Y027320D01*
X043949Y027324D01*
X043965Y027331D01*
X043979Y027341D01*
X043992Y027354D01*
X044002Y027368D01*
X044009Y027384D01*
X044013Y027401D01*
X044015Y027418D01*
X043515Y028168D02*
X043515Y028648D01*
X043515Y028898D02*
X043515Y029368D01*
X038914Y030118D02*
X038914Y027418D01*
X038912Y027401D01*
X038908Y027384D01*
X038901Y027368D01*
X038891Y027354D01*
X038878Y027341D01*
X038864Y027331D01*
X038848Y027324D01*
X038831Y027320D01*
X038814Y027318D01*
X038014Y027318D01*
X037997Y027320D01*
X037980Y027324D01*
X037964Y027331D01*
X037950Y027341D01*
X037937Y027354D01*
X037927Y027368D01*
X037920Y027384D01*
X037916Y027401D01*
X037914Y027418D01*
X037914Y030118D01*
X037916Y030135D01*
X037920Y030152D01*
X037927Y030168D01*
X037937Y030182D01*
X037950Y030195D01*
X037964Y030205D01*
X037980Y030212D01*
X037997Y030216D01*
X038014Y030218D01*
X038814Y030218D01*
X038831Y030216D01*
X038848Y030212D01*
X038864Y030205D01*
X038878Y030195D01*
X038891Y030182D01*
X038901Y030168D01*
X038908Y030152D01*
X038912Y030135D01*
X038914Y030118D01*
X038414Y029368D02*
X038414Y028898D01*
X038414Y028648D02*
X038414Y028168D01*
X039420Y025997D02*
X039420Y025247D01*
X039459Y025245D01*
X039498Y025239D01*
X039536Y025230D01*
X039573Y025217D01*
X039609Y025200D01*
X039642Y025180D01*
X039674Y025156D01*
X039703Y025130D01*
X039729Y025101D01*
X039753Y025069D01*
X039773Y025036D01*
X039790Y025000D01*
X039803Y024963D01*
X039812Y024925D01*
X039818Y024886D01*
X039820Y024847D01*
X039818Y024808D01*
X039812Y024769D01*
X039803Y024731D01*
X039790Y024694D01*
X039773Y024658D01*
X039753Y024625D01*
X039729Y024593D01*
X039703Y024564D01*
X039674Y024538D01*
X039642Y024514D01*
X039609Y024494D01*
X039573Y024477D01*
X039536Y024464D01*
X039498Y024455D01*
X039459Y024449D01*
X039420Y024447D01*
X039420Y023697D01*
X042420Y023697D01*
X042420Y025997D01*
X039420Y025997D01*
X033938Y027418D02*
X033938Y030118D01*
X033936Y030135D01*
X033932Y030152D01*
X033925Y030168D01*
X033915Y030182D01*
X033902Y030195D01*
X033888Y030205D01*
X033872Y030212D01*
X033855Y030216D01*
X033838Y030218D01*
X033038Y030218D01*
X033021Y030216D01*
X033004Y030212D01*
X032988Y030205D01*
X032974Y030195D01*
X032961Y030182D01*
X032951Y030168D01*
X032944Y030152D01*
X032940Y030135D01*
X032938Y030118D01*
X032938Y027418D01*
X032940Y027401D01*
X032944Y027384D01*
X032951Y027368D01*
X032961Y027354D01*
X032974Y027341D01*
X032988Y027331D01*
X033004Y027324D01*
X033021Y027320D01*
X033038Y027318D01*
X033838Y027318D01*
X033855Y027320D01*
X033872Y027324D01*
X033888Y027331D01*
X033902Y027341D01*
X033915Y027354D01*
X033925Y027368D01*
X033932Y027384D01*
X033936Y027401D01*
X033938Y027418D01*
X033438Y028168D02*
X033438Y028648D01*
X033438Y028898D02*
X033438Y029368D01*
D14*
X011542Y023415D03*
X011542Y022943D03*
X009424Y022943D03*
X009424Y023415D03*
X013793Y015622D03*
X013793Y015149D03*
D15*
X013793Y015386D03*
X011542Y023179D03*
X009424Y023179D03*
D16*
X033766Y004991D03*
D17*
X033766Y005616D03*
X033766Y003066D03*
D18*
X031625Y009929D03*
X026625Y009929D03*
X036625Y009929D03*
X041625Y009929D03*
X046625Y009929D03*
X051625Y009929D03*
X056625Y009929D03*
X061625Y009929D03*
X058100Y030887D03*
X053100Y030887D03*
X048100Y030887D03*
X043100Y030887D03*
X038100Y030887D03*
X033100Y030887D03*
X028100Y030887D03*
X023100Y030887D03*
X008275Y030947D03*
D19*
X024920Y032222D03*
X029920Y032222D03*
X034920Y032222D03*
X039920Y032222D03*
X044920Y032222D03*
X049920Y032222D03*
X054920Y032222D03*
X059920Y032222D03*
X059805Y008594D03*
X054805Y008594D03*
X049805Y008594D03*
X044805Y008594D03*
X039805Y008594D03*
X034805Y008594D03*
X029805Y008594D03*
X024805Y008594D03*
D20*
X026530Y008844D03*
X028080Y008844D03*
X031530Y008844D03*
X033080Y008844D03*
X036530Y008844D03*
X038080Y008844D03*
X041530Y008844D03*
X043080Y008844D03*
X046530Y008844D03*
X048080Y008844D03*
X051530Y008844D03*
X053080Y008844D03*
X056530Y008844D03*
X058080Y008844D03*
X061530Y008844D03*
X061645Y031972D03*
X058195Y031972D03*
X056645Y031972D03*
X053195Y031972D03*
X051645Y031972D03*
X048195Y031972D03*
X046645Y031972D03*
X043195Y031972D03*
X041645Y031972D03*
X038195Y031972D03*
X036645Y031972D03*
X033195Y031972D03*
X031645Y031972D03*
X028195Y031972D03*
X026645Y031972D03*
X023195Y031972D03*
X023080Y008844D03*
D21*
X024305Y008844D03*
X025305Y008844D03*
X029305Y008844D03*
X030305Y008844D03*
X034305Y008844D03*
X035305Y008844D03*
X039305Y008844D03*
X040305Y008844D03*
X044305Y008844D03*
X045305Y008844D03*
X049305Y008844D03*
X050305Y008844D03*
X054305Y008844D03*
X055305Y008844D03*
X059305Y008844D03*
X060305Y008844D03*
X060420Y031972D03*
X059420Y031972D03*
X055420Y031972D03*
X054420Y031972D03*
X050420Y031972D03*
X049420Y031972D03*
X045420Y031972D03*
X044420Y031972D03*
X040420Y031972D03*
X039420Y031972D03*
X035420Y031972D03*
X034420Y031972D03*
X030420Y031972D03*
X029420Y031972D03*
X025420Y031972D03*
X024420Y031972D03*
D22*
X023673Y028898D02*
X023423Y028898D01*
X023173Y028898D01*
X023173Y028648D02*
X023423Y028648D01*
X023673Y028648D01*
X028184Y028648D02*
X028434Y028648D01*
X028684Y028648D01*
X028684Y028898D02*
X028434Y028898D01*
X028184Y028898D01*
X033188Y028898D02*
X033438Y028898D01*
X033688Y028898D01*
X033688Y028648D02*
X033438Y028648D01*
X033188Y028648D01*
X038164Y028648D02*
X038414Y028648D01*
X038664Y028648D01*
X038664Y028898D02*
X038414Y028898D01*
X038164Y028898D01*
X043265Y028898D02*
X043515Y028898D01*
X043765Y028898D01*
X043765Y028648D02*
X043515Y028648D01*
X043265Y028648D01*
X048290Y028648D02*
X048540Y028648D01*
X048790Y028648D01*
X048790Y028898D02*
X048540Y028898D01*
X048290Y028898D01*
X053268Y028898D02*
X053518Y028898D01*
X053768Y028898D01*
X053768Y028648D02*
X053518Y028648D01*
X053268Y028648D01*
X058172Y028648D02*
X058422Y028648D01*
X058672Y028648D01*
X058672Y028898D02*
X058422Y028898D01*
X058172Y028898D01*
X056440Y012139D02*
X056190Y012139D01*
X055940Y012139D01*
X055940Y011889D02*
X056190Y011889D01*
X056440Y011889D01*
X060966Y011889D02*
X061216Y011889D01*
X061466Y011889D01*
X061466Y012139D02*
X061216Y012139D01*
X060966Y012139D01*
X051447Y012139D02*
X051197Y012139D01*
X050947Y012139D01*
X050947Y011889D02*
X051197Y011889D01*
X051447Y011889D01*
X046450Y011889D02*
X046200Y011889D01*
X045950Y011889D01*
X045950Y012139D02*
X046200Y012139D01*
X046450Y012139D01*
X041446Y012139D02*
X041196Y012139D01*
X040946Y012139D01*
X040946Y011889D02*
X041196Y011889D01*
X041446Y011889D01*
X036451Y011889D02*
X036201Y011889D01*
X035951Y011889D01*
X035951Y012139D02*
X036201Y012139D01*
X036451Y012139D01*
X031448Y012139D02*
X031198Y012139D01*
X030948Y012139D01*
X030948Y011889D02*
X031198Y011889D01*
X031448Y011889D01*
X026572Y011889D02*
X026322Y011889D01*
X026072Y011889D01*
X026072Y012139D02*
X026322Y012139D01*
X026572Y012139D01*
D23*
X011820Y032157D03*
X008370Y032157D03*
D24*
X009095Y032257D03*
X010095Y032257D03*
X011095Y032257D03*
D25*
X010595Y032157D03*
X009595Y032157D03*
M02*
