G75*
G70*
%OFA0B0*%
%FSLAX24Y24*%
%IPPOS*%
%LPD*%
%AMOC8*
5,1,8,0,0,1.08239X$1,22.5*
%
%ADD10C,0.0160*%
%ADD11C,0.0030*%
%ADD12C,0.0000*%
%ADD13C,0.0100*%
%ADD14C,0.0080*%
%ADD15C,0.0060*%
%ADD16C,0.0050*%
%ADD17C,0.0040*%
%ADD18R,0.0118X0.0059*%
%ADD19R,0.0118X0.0118*%
%ADD20R,0.0800X0.0200*%
%ADD21R,0.0200X0.0750*%
%ADD22C,0.0200*%
%ADD23R,0.4200X0.0250*%
%ADD24R,0.0750X0.0250*%
%ADD25R,0.0300X0.0250*%
%ADD26C,0.0120*%
%ADD27R,0.0750X0.0500*%
%ADD28R,0.0700X0.0300*%
%ADD29R,0.0300X0.0500*%
D10*
X000190Y000579D02*
X063182Y000579D01*
X063182Y039949D01*
X000190Y039949D01*
X000190Y000579D01*
X016133Y014496D02*
X018433Y014496D01*
X018492Y014498D01*
X018550Y014504D01*
X018609Y014513D01*
X018666Y014527D01*
X018722Y014544D01*
X018777Y014565D01*
X018831Y014589D01*
X018883Y014617D01*
X018933Y014648D01*
X018981Y014682D01*
X019026Y014719D01*
X019069Y014760D01*
X019110Y014803D01*
X019147Y014848D01*
X019181Y014896D01*
X019212Y014946D01*
X019240Y014998D01*
X019264Y015052D01*
X019285Y015107D01*
X019302Y015163D01*
X019316Y015220D01*
X019325Y015279D01*
X019331Y015337D01*
X019333Y015396D01*
X019331Y015455D01*
X019325Y015513D01*
X019316Y015572D01*
X019302Y015629D01*
X019285Y015685D01*
X019264Y015740D01*
X019240Y015794D01*
X019212Y015846D01*
X019181Y015896D01*
X019147Y015944D01*
X019110Y015989D01*
X019069Y016032D01*
X019026Y016073D01*
X018981Y016110D01*
X018933Y016144D01*
X018883Y016175D01*
X018831Y016203D01*
X018777Y016227D01*
X018722Y016248D01*
X018666Y016265D01*
X018609Y016279D01*
X018550Y016288D01*
X018492Y016294D01*
X018433Y016296D01*
X016133Y016296D01*
X016074Y016294D01*
X016016Y016288D01*
X015957Y016279D01*
X015900Y016265D01*
X015844Y016248D01*
X015789Y016227D01*
X015735Y016203D01*
X015683Y016175D01*
X015633Y016144D01*
X015585Y016110D01*
X015540Y016073D01*
X015497Y016032D01*
X015456Y015989D01*
X015419Y015944D01*
X015385Y015896D01*
X015354Y015846D01*
X015326Y015794D01*
X015302Y015740D01*
X015281Y015685D01*
X015264Y015629D01*
X015250Y015572D01*
X015241Y015513D01*
X015235Y015455D01*
X015233Y015396D01*
X015235Y015337D01*
X015241Y015279D01*
X015250Y015220D01*
X015264Y015163D01*
X015281Y015107D01*
X015302Y015052D01*
X015326Y014998D01*
X015354Y014946D01*
X015385Y014896D01*
X015419Y014848D01*
X015456Y014803D01*
X015497Y014760D01*
X015540Y014719D01*
X015585Y014682D01*
X015633Y014648D01*
X015683Y014617D01*
X015735Y014589D01*
X015789Y014565D01*
X015844Y014544D01*
X015900Y014527D01*
X015957Y014513D01*
X016016Y014504D01*
X016074Y014498D01*
X016133Y014496D01*
D11*
X012615Y014439D02*
X012245Y014439D01*
X012245Y014625D01*
X012306Y014686D01*
X012430Y014686D01*
X012492Y014625D01*
X012492Y014439D01*
X012492Y014808D02*
X012492Y014993D01*
X012430Y015055D01*
X012306Y015055D01*
X012245Y014993D01*
X012245Y014808D01*
X012615Y014808D01*
X012492Y014931D02*
X012615Y015055D01*
X012553Y015176D02*
X012615Y015238D01*
X012615Y015361D01*
X012553Y015423D01*
X012306Y015423D01*
X012245Y015361D01*
X012245Y015238D01*
X012306Y015176D01*
X012553Y015176D01*
X012553Y015544D02*
X012615Y015606D01*
X012615Y015729D01*
X012553Y015791D01*
X012430Y015791D01*
X012430Y015668D01*
X012306Y015791D02*
X012245Y015729D01*
X012245Y015606D01*
X012306Y015544D01*
X012553Y015544D01*
X008997Y015939D02*
X008873Y016063D01*
X008935Y016063D02*
X008750Y016063D01*
X008750Y015939D02*
X008750Y016310D01*
X008935Y016310D01*
X008997Y016248D01*
X008997Y016125D01*
X008935Y016063D01*
X008629Y015939D02*
X008382Y015939D01*
X008382Y016310D01*
X008260Y016248D02*
X008199Y016310D01*
X008075Y016310D01*
X008013Y016248D01*
X008013Y016001D01*
X008075Y015939D01*
X008199Y015939D01*
X008260Y016001D01*
X007892Y015939D02*
X007892Y016310D01*
X007769Y016186D01*
X007645Y016310D01*
X007645Y015939D01*
X007895Y015310D02*
X008080Y015310D01*
X008142Y015248D01*
X008142Y015125D01*
X008080Y015063D01*
X007895Y015063D01*
X007895Y014939D02*
X007895Y015310D01*
X008263Y015248D02*
X008263Y015001D01*
X008325Y014939D01*
X008449Y014939D01*
X008510Y015001D01*
X008510Y015125D01*
X008387Y015125D01*
X008510Y015248D02*
X008449Y015310D01*
X008325Y015310D01*
X008263Y015248D01*
X008632Y015248D02*
X008632Y015001D01*
X008693Y014939D01*
X008817Y014939D01*
X008879Y015001D01*
X008879Y015248D02*
X008817Y015310D01*
X008693Y015310D01*
X008632Y015248D01*
X008632Y014310D02*
X008817Y014310D01*
X008879Y014248D01*
X008879Y014001D01*
X008817Y013939D01*
X008632Y013939D01*
X008632Y014310D01*
X008510Y014248D02*
X008449Y014310D01*
X008325Y014310D01*
X008263Y014248D01*
X008263Y014001D01*
X008325Y013939D01*
X008449Y013939D01*
X008510Y014001D01*
X008510Y014125D01*
X008387Y014125D01*
X008142Y014125D02*
X008080Y014063D01*
X007895Y014063D01*
X007895Y013939D02*
X007895Y014310D01*
X008080Y014310D01*
X008142Y014248D01*
X008142Y014125D01*
X008080Y013310D02*
X007957Y013310D01*
X007895Y013248D01*
X007895Y013001D01*
X007957Y012939D01*
X008080Y012939D01*
X008142Y013001D01*
X008142Y013125D01*
X008019Y013125D01*
X008142Y013248D02*
X008080Y013310D01*
X008263Y013310D02*
X008510Y012939D01*
X008510Y013310D01*
X008632Y013310D02*
X008817Y013310D01*
X008879Y013248D01*
X008879Y013001D01*
X008817Y012939D01*
X008632Y012939D01*
X008632Y013310D01*
X008263Y013310D02*
X008263Y012939D01*
X008575Y016939D02*
X008513Y017001D01*
X008575Y016939D02*
X008699Y016939D01*
X008760Y017001D01*
X008760Y017125D01*
X008699Y017186D01*
X008637Y017186D01*
X008513Y017125D01*
X008513Y017310D01*
X008760Y017310D01*
X008882Y017310D02*
X008882Y017063D01*
X009005Y016939D01*
X009129Y017063D01*
X009129Y017310D01*
X008392Y017125D02*
X008145Y017125D01*
X008269Y017248D02*
X008269Y017001D01*
X012245Y019189D02*
X012245Y019375D01*
X012306Y019436D01*
X012430Y019436D01*
X012492Y019375D01*
X012492Y019189D01*
X012615Y019189D02*
X012245Y019189D01*
X012492Y019313D02*
X012615Y019436D01*
X012553Y019558D02*
X012615Y019619D01*
X012615Y019743D01*
X012553Y019805D01*
X012492Y019805D01*
X012430Y019743D01*
X012430Y019619D01*
X012368Y019558D01*
X012306Y019558D01*
X012245Y019619D01*
X012245Y019743D01*
X012306Y019805D01*
X012306Y019926D02*
X012245Y019988D01*
X012245Y020111D01*
X012306Y020173D01*
X012368Y020173D01*
X012615Y019926D01*
X012615Y020173D01*
X012553Y020294D02*
X012615Y020356D01*
X012615Y020479D01*
X012553Y020541D01*
X012492Y020541D01*
X012430Y020479D01*
X012430Y020418D01*
X012430Y020479D02*
X012368Y020541D01*
X012306Y020541D01*
X012245Y020479D01*
X012245Y020356D01*
X012306Y020294D01*
X012306Y020663D02*
X012245Y020724D01*
X012245Y020848D01*
X012306Y020909D01*
X012368Y020909D01*
X012615Y020663D01*
X012615Y020909D01*
X012430Y022439D02*
X012369Y022501D01*
X012369Y022748D01*
X012430Y022686D02*
X012307Y022686D01*
X012185Y022686D02*
X012000Y022686D01*
X011939Y022625D01*
X011939Y022501D01*
X012000Y022439D01*
X012185Y022439D01*
X011817Y022563D02*
X011570Y022563D01*
X011570Y022625D02*
X011632Y022686D01*
X011755Y022686D01*
X011817Y022625D01*
X011817Y022563D01*
X011755Y022439D02*
X011632Y022439D01*
X011570Y022501D01*
X011570Y022625D01*
X011449Y022686D02*
X011387Y022686D01*
X011263Y022563D01*
X011142Y022563D02*
X011142Y022810D01*
X011263Y022686D02*
X011263Y022439D01*
X011142Y022563D02*
X011019Y022439D01*
X010895Y022563D01*
X010895Y022810D01*
X010006Y022625D02*
X010006Y022439D01*
X010006Y022625D02*
X009944Y022686D01*
X009759Y022686D01*
X009759Y022439D01*
X009637Y022439D02*
X009513Y022439D01*
X009575Y022439D02*
X009575Y022686D01*
X009513Y022686D01*
X009575Y022810D02*
X009575Y022871D01*
X009392Y022810D02*
X009392Y022563D01*
X009269Y022439D01*
X009145Y022563D01*
X009145Y022810D01*
X019995Y028251D02*
X020056Y028189D01*
X020303Y028189D01*
X020365Y028251D01*
X020365Y028375D01*
X020303Y028436D01*
X020365Y028558D02*
X020118Y028558D01*
X019995Y028681D01*
X020118Y028805D01*
X020365Y028805D01*
X020365Y028926D02*
X019995Y028926D01*
X020365Y029173D01*
X019995Y029173D01*
X020180Y028805D02*
X020180Y028558D01*
X020056Y028436D02*
X019995Y028375D01*
X019995Y028251D01*
X019995Y029663D02*
X020365Y029663D01*
X020365Y029909D01*
X020365Y030031D02*
X020365Y030154D01*
X020365Y030093D02*
X019995Y030093D01*
X019995Y030154D02*
X019995Y030031D01*
X019995Y030276D02*
X020365Y030523D01*
X019995Y030523D01*
X019995Y030645D02*
X020365Y030645D01*
X020365Y030892D01*
X020180Y030768D02*
X020180Y030645D01*
X019995Y030645D02*
X019995Y030892D01*
X019995Y030276D02*
X020365Y030276D01*
X019995Y031381D02*
X019995Y031628D01*
X019995Y031750D02*
X020365Y031750D01*
X020365Y031997D01*
X020365Y032118D02*
X019995Y032118D01*
X019995Y032303D01*
X020056Y032365D01*
X020180Y032365D01*
X020242Y032303D01*
X020242Y032118D01*
X020242Y032241D02*
X020365Y032365D01*
X020365Y032486D02*
X019995Y032486D01*
X020118Y032610D01*
X019995Y032733D01*
X020365Y032733D01*
X019995Y031997D02*
X019995Y031750D01*
X020180Y031750D02*
X020180Y031873D01*
X020365Y031505D02*
X019995Y031505D01*
X018365Y033189D02*
X018365Y033560D01*
X018365Y033375D02*
X018118Y033375D01*
X018118Y033560D02*
X018118Y033189D01*
X017997Y033128D02*
X017750Y033128D01*
X017629Y033189D02*
X017629Y033560D01*
X017382Y033560D02*
X017629Y033189D01*
X017382Y033189D02*
X017382Y033560D01*
X017260Y033436D02*
X017260Y033189D01*
X017260Y033375D02*
X017013Y033375D01*
X017013Y033436D02*
X017137Y033560D01*
X017260Y033436D01*
X017013Y033436D02*
X017013Y033189D01*
X016892Y033251D02*
X016830Y033189D01*
X016707Y033189D01*
X016645Y033251D01*
X016645Y033498D01*
X016707Y033560D01*
X016830Y033560D01*
X016892Y033498D01*
X015365Y033189D02*
X015118Y033189D01*
X015118Y033560D01*
X014997Y033128D02*
X014750Y033128D01*
X014629Y033189D02*
X014629Y033560D01*
X014382Y033560D02*
X014382Y033189D01*
X014260Y033189D02*
X014260Y033436D01*
X014137Y033560D01*
X014013Y033436D01*
X014013Y033189D01*
X013892Y033251D02*
X013830Y033189D01*
X013707Y033189D01*
X013645Y033251D01*
X013645Y033498D01*
X013707Y033560D01*
X013830Y033560D01*
X013892Y033498D01*
X014013Y033375D02*
X014260Y033375D01*
X014382Y033560D02*
X014629Y033189D01*
X012431Y033251D02*
X012369Y033189D01*
X012246Y033189D01*
X012184Y033251D01*
X012184Y033313D01*
X012246Y033375D01*
X012369Y033375D01*
X012431Y033313D01*
X012431Y033251D01*
X012369Y033375D02*
X012431Y033436D01*
X012431Y033498D01*
X012369Y033560D01*
X012246Y033560D01*
X012184Y033498D01*
X012184Y033436D01*
X012246Y033375D01*
X012062Y033251D02*
X012000Y033251D01*
X012000Y033189D01*
X012062Y033189D01*
X012062Y033251D01*
X011879Y033251D02*
X011879Y033313D01*
X011817Y033375D01*
X011755Y033375D01*
X011817Y033375D02*
X011879Y033436D01*
X011879Y033498D01*
X011817Y033560D01*
X011693Y033560D01*
X011632Y033498D01*
X011632Y033251D02*
X011693Y033189D01*
X011817Y033189D01*
X011879Y033251D01*
X011510Y033189D02*
X011263Y033189D01*
X011387Y033189D02*
X011387Y033560D01*
X011263Y033436D01*
X011142Y033375D02*
X010895Y033375D01*
X011019Y033498D02*
X011019Y033251D01*
X008879Y033251D02*
X008879Y033498D01*
X008817Y033560D01*
X008632Y033560D01*
X008632Y033189D01*
X008817Y033189D01*
X008879Y033251D01*
X008510Y033189D02*
X008510Y033560D01*
X008263Y033560D02*
X008510Y033189D01*
X008263Y033189D02*
X008263Y033560D01*
X008142Y033498D02*
X008080Y033560D01*
X007957Y033560D01*
X007895Y033498D01*
X007895Y033251D01*
X007957Y033189D01*
X008080Y033189D01*
X008142Y033251D01*
X008142Y033375D01*
X008019Y033375D01*
X005629Y033251D02*
X005629Y033498D01*
X005567Y033560D01*
X005382Y033560D01*
X005382Y033189D01*
X005567Y033189D01*
X005629Y033251D01*
X005260Y033189D02*
X005260Y033560D01*
X005013Y033560D02*
X005013Y033189D01*
X004892Y033251D02*
X004892Y033375D01*
X004769Y033375D01*
X004892Y033498D02*
X004830Y033560D01*
X004707Y033560D01*
X004645Y033498D01*
X004645Y033251D01*
X004707Y033189D01*
X004830Y033189D01*
X004892Y033251D01*
X005013Y033560D02*
X005260Y033189D01*
X002629Y033313D02*
X002629Y033560D01*
X002629Y033313D02*
X002505Y033189D01*
X002382Y033313D01*
X002382Y033560D01*
X002260Y033560D02*
X002013Y033560D01*
X002013Y033375D01*
X002137Y033436D01*
X002199Y033436D01*
X002260Y033375D01*
X002260Y033251D01*
X002199Y033189D01*
X002075Y033189D01*
X002013Y033251D01*
X001892Y033375D02*
X001645Y033375D01*
X001769Y033498D02*
X001769Y033251D01*
X023395Y033189D02*
X023642Y033436D01*
X023642Y033498D01*
X023580Y033560D01*
X023457Y033560D01*
X023395Y033498D01*
X023395Y033189D02*
X023642Y033189D01*
X023763Y033251D02*
X023825Y033189D01*
X023949Y033189D01*
X024010Y033251D01*
X024010Y033313D01*
X023949Y033375D01*
X023887Y033375D01*
X023949Y033375D02*
X024010Y033436D01*
X024010Y033498D01*
X023949Y033560D01*
X023825Y033560D01*
X023763Y033498D01*
X024132Y033498D02*
X024132Y033251D01*
X024379Y033498D01*
X024379Y033251D01*
X024317Y033189D01*
X024193Y033189D01*
X024132Y033251D01*
X024132Y033498D02*
X024193Y033560D01*
X024317Y033560D01*
X024379Y033498D01*
X024500Y033436D02*
X024623Y033560D01*
X024747Y033436D01*
X024747Y033189D01*
X024868Y033251D02*
X024930Y033189D01*
X025053Y033189D01*
X025115Y033251D01*
X025237Y033313D02*
X025237Y033436D01*
X025360Y033560D01*
X025482Y033560D02*
X025729Y033560D01*
X025850Y033436D02*
X025974Y033560D01*
X026097Y033436D01*
X026097Y033189D01*
X026219Y033251D02*
X026280Y033189D01*
X026404Y033189D01*
X026466Y033251D01*
X026466Y033313D01*
X026404Y033375D01*
X026280Y033375D01*
X026219Y033436D01*
X026219Y033498D01*
X026280Y033560D01*
X026404Y033560D01*
X026466Y033498D01*
X026587Y033560D02*
X026587Y033189D01*
X026834Y033189D01*
X026955Y033189D02*
X027079Y033313D01*
X027079Y033436D01*
X026955Y033560D01*
X026834Y033560D02*
X026587Y033560D01*
X026587Y033375D02*
X026710Y033375D01*
X026097Y033375D02*
X025850Y033375D01*
X025850Y033436D02*
X025850Y033189D01*
X025606Y033375D02*
X025482Y033375D01*
X025482Y033560D02*
X025482Y033189D01*
X025360Y033189D02*
X025237Y033313D01*
X025115Y033498D02*
X025053Y033560D01*
X024930Y033560D01*
X024868Y033498D01*
X024868Y033251D01*
X024747Y033375D02*
X024500Y033375D01*
X024500Y033436D02*
X024500Y033189D01*
X036145Y033251D02*
X036207Y033189D01*
X036330Y033189D01*
X036392Y033251D01*
X036392Y033498D01*
X036330Y033560D01*
X036207Y033560D01*
X036145Y033498D01*
X036145Y033251D01*
X036513Y033251D02*
X036575Y033189D01*
X036699Y033189D01*
X036760Y033251D01*
X036760Y033560D01*
X036882Y033560D02*
X037129Y033560D01*
X037250Y033560D02*
X037435Y033560D01*
X037497Y033498D01*
X037497Y033375D01*
X037435Y033313D01*
X037250Y033313D01*
X037250Y033189D02*
X037250Y033560D01*
X037005Y033560D02*
X037005Y033189D01*
X036513Y033251D02*
X036513Y033560D01*
X037618Y033560D02*
X037618Y033251D01*
X037680Y033189D01*
X037803Y033189D01*
X037865Y033251D01*
X037865Y033560D01*
X037987Y033560D02*
X038233Y033560D01*
X038110Y033560D02*
X038110Y033189D01*
X038355Y033251D02*
X038417Y033189D01*
X038540Y033189D01*
X038602Y033251D01*
X038602Y033313D01*
X038540Y033375D01*
X038417Y033375D01*
X038355Y033436D01*
X038355Y033498D01*
X038417Y033560D01*
X038540Y033560D01*
X038602Y033498D01*
X039645Y033498D02*
X039645Y033436D01*
X039707Y033375D01*
X039892Y033375D01*
X039892Y033498D02*
X039830Y033560D01*
X039707Y033560D01*
X039645Y033498D01*
X039645Y033251D02*
X039707Y033189D01*
X039830Y033189D01*
X039892Y033251D01*
X039892Y033498D01*
X042145Y033436D02*
X042269Y033560D01*
X042269Y033189D01*
X042392Y033189D02*
X042145Y033189D01*
X042513Y033251D02*
X042760Y033498D01*
X042760Y033251D01*
X042699Y033189D01*
X042575Y033189D01*
X042513Y033251D01*
X042513Y033498D01*
X042575Y033560D01*
X042699Y033560D01*
X042760Y033498D01*
X045145Y033436D02*
X045269Y033560D01*
X045269Y033189D01*
X045392Y033189D02*
X045145Y033189D01*
X045513Y033189D02*
X045760Y033189D01*
X045637Y033189D02*
X045637Y033560D01*
X045513Y033436D01*
X048145Y033436D02*
X048269Y033560D01*
X048269Y033189D01*
X048392Y033189D02*
X048145Y033189D01*
X048513Y033189D02*
X048760Y033436D01*
X048760Y033498D01*
X048699Y033560D01*
X048575Y033560D01*
X048513Y033498D01*
X048513Y033189D02*
X048760Y033189D01*
X051145Y033189D02*
X051392Y033189D01*
X051269Y033189D02*
X051269Y033560D01*
X051145Y033436D01*
X051513Y033498D02*
X051575Y033560D01*
X051699Y033560D01*
X051760Y033498D01*
X051760Y033436D01*
X051699Y033375D01*
X051760Y033313D01*
X051760Y033251D01*
X051699Y033189D01*
X051575Y033189D01*
X051513Y033251D01*
X051637Y033375D02*
X051699Y033375D01*
X054145Y033436D02*
X054269Y033560D01*
X054269Y033189D01*
X054392Y033189D02*
X054145Y033189D01*
X054513Y033375D02*
X054760Y033375D01*
X054699Y033560D02*
X054513Y033375D01*
X054699Y033560D02*
X054699Y033189D01*
X057145Y033189D02*
X057392Y033189D01*
X057269Y033189D02*
X057269Y033560D01*
X057145Y033436D01*
X057513Y033375D02*
X057637Y033436D01*
X057699Y033436D01*
X057760Y033375D01*
X057760Y033251D01*
X057699Y033189D01*
X057575Y033189D01*
X057513Y033251D01*
X057513Y033375D02*
X057513Y033560D01*
X057760Y033560D01*
X059895Y033436D02*
X060019Y033560D01*
X060019Y033189D01*
X060142Y033189D02*
X059895Y033189D01*
X060263Y033251D02*
X060263Y033375D01*
X060449Y033375D01*
X060510Y033313D01*
X060510Y033251D01*
X060449Y033189D01*
X060325Y033189D01*
X060263Y033251D01*
X060263Y033375D02*
X060387Y033498D01*
X060510Y033560D01*
X022892Y007748D02*
X022892Y007686D01*
X022830Y007625D01*
X022707Y007625D01*
X022645Y007686D01*
X022645Y007748D01*
X022707Y007810D01*
X022830Y007810D01*
X022892Y007748D01*
X022830Y007625D02*
X022892Y007563D01*
X022892Y007501D01*
X022830Y007439D01*
X022707Y007439D01*
X022645Y007501D01*
X022645Y007563D01*
X022707Y007625D01*
X024645Y007560D02*
X024645Y007189D01*
X024645Y007375D02*
X024769Y007375D01*
X024645Y007560D02*
X024892Y007560D01*
X025013Y007436D02*
X025137Y007560D01*
X025260Y007436D01*
X025260Y007189D01*
X025382Y007251D02*
X025443Y007189D01*
X025567Y007189D01*
X025629Y007251D01*
X025629Y007313D01*
X025567Y007375D01*
X025443Y007375D01*
X025382Y007436D01*
X025382Y007498D01*
X025443Y007560D01*
X025567Y007560D01*
X025629Y007498D01*
X025750Y007560D02*
X025750Y007189D01*
X025997Y007189D01*
X025873Y007375D02*
X025750Y007375D01*
X025750Y007560D02*
X025997Y007560D01*
X027145Y007560D02*
X027145Y007189D01*
X027392Y007189D02*
X027145Y007560D01*
X027392Y007560D02*
X027392Y007189D01*
X027513Y007189D02*
X027760Y007189D01*
X027882Y007251D02*
X027943Y007189D01*
X028067Y007189D01*
X028129Y007251D01*
X028129Y007560D01*
X028250Y007560D02*
X028497Y007560D01*
X028618Y007560D02*
X028618Y007189D01*
X028618Y007313D02*
X028803Y007313D01*
X028865Y007375D01*
X028865Y007498D01*
X028803Y007560D01*
X028618Y007560D01*
X028373Y007560D02*
X028373Y007189D01*
X028742Y007313D02*
X028865Y007189D01*
X028987Y007189D02*
X028987Y007436D01*
X029110Y007560D01*
X029233Y007436D01*
X029233Y007189D01*
X029355Y007189D02*
X029602Y007189D01*
X029355Y007189D02*
X029355Y007560D01*
X029233Y007375D02*
X028987Y007375D01*
X027882Y007251D02*
X027882Y007560D01*
X027760Y007560D02*
X027513Y007560D01*
X027513Y007189D01*
X027513Y007375D02*
X027637Y007375D01*
X029895Y007375D02*
X030142Y007189D01*
X030263Y007375D02*
X030510Y007375D01*
X030632Y007375D02*
X030879Y007375D01*
X031000Y007498D02*
X031062Y007560D01*
X031185Y007560D01*
X031247Y007498D01*
X031247Y007436D01*
X031000Y007189D01*
X031247Y007189D01*
X031368Y007251D02*
X031430Y007189D01*
X031553Y007189D01*
X031615Y007251D01*
X031615Y007313D01*
X031553Y007375D01*
X031492Y007375D01*
X031553Y007375D02*
X031615Y007436D01*
X031615Y007498D01*
X031553Y007560D01*
X031430Y007560D01*
X031368Y007498D01*
X031737Y007498D02*
X031798Y007560D01*
X031922Y007560D01*
X031983Y007498D01*
X031737Y007251D01*
X031798Y007189D01*
X031922Y007189D01*
X031983Y007251D01*
X031983Y007498D01*
X032105Y007436D02*
X032228Y007560D01*
X032352Y007436D01*
X032352Y007189D01*
X032473Y007251D02*
X032535Y007189D01*
X032658Y007189D01*
X032720Y007251D01*
X032473Y007251D02*
X032473Y007498D01*
X032535Y007560D01*
X032658Y007560D01*
X032720Y007498D01*
X032352Y007375D02*
X032105Y007375D01*
X032105Y007436D02*
X032105Y007189D01*
X031737Y007251D02*
X031737Y007498D01*
X030142Y007560D02*
X029895Y007375D01*
X025260Y007375D02*
X025013Y007375D01*
X025013Y007436D02*
X025013Y007189D01*
X019892Y007748D02*
X019645Y007501D01*
X019645Y007439D01*
X019645Y007810D02*
X019892Y007810D01*
X019892Y007748D01*
X016892Y007810D02*
X016769Y007748D01*
X016645Y007625D01*
X016830Y007625D01*
X016892Y007563D01*
X016892Y007501D01*
X016830Y007439D01*
X016707Y007439D01*
X016645Y007501D01*
X016645Y007625D01*
X013892Y007625D02*
X013892Y007501D01*
X013830Y007439D01*
X013707Y007439D01*
X013645Y007501D01*
X013645Y007625D02*
X013769Y007686D01*
X013830Y007686D01*
X013892Y007625D01*
X013892Y007810D02*
X013645Y007810D01*
X013645Y007625D01*
X011142Y007625D02*
X010895Y007625D01*
X011080Y007810D01*
X011080Y007439D01*
X008142Y007501D02*
X008080Y007439D01*
X007957Y007439D01*
X007895Y007501D01*
X008019Y007625D02*
X008080Y007625D01*
X008142Y007686D01*
X008142Y007748D01*
X008080Y007810D01*
X007957Y007810D01*
X007895Y007748D01*
X008080Y007625D02*
X008142Y007563D01*
X008142Y007501D01*
X005142Y007439D02*
X004895Y007439D01*
X005142Y007686D01*
X005142Y007748D01*
X005080Y007810D01*
X004957Y007810D01*
X004895Y007748D01*
X002861Y008251D02*
X002799Y008189D01*
X002676Y008189D01*
X002614Y008251D01*
X002676Y008375D02*
X002799Y008375D01*
X002861Y008313D01*
X002861Y008251D01*
X002676Y008375D02*
X002614Y008436D01*
X002614Y008498D01*
X002676Y008560D01*
X002799Y008560D01*
X002861Y008498D01*
X002492Y008560D02*
X002246Y008560D01*
X002124Y008560D02*
X002124Y008251D01*
X002062Y008189D01*
X001939Y008189D01*
X001877Y008251D01*
X001877Y008560D01*
X001756Y008498D02*
X001756Y008375D01*
X001694Y008313D01*
X001509Y008313D01*
X001509Y008189D02*
X001509Y008560D01*
X001694Y008560D01*
X001756Y008498D01*
X001387Y008560D02*
X001387Y008189D01*
X001141Y008560D01*
X001141Y008189D01*
X001019Y008189D02*
X000895Y008189D01*
X000957Y008189D02*
X000957Y008560D01*
X000895Y008560D02*
X001019Y008560D01*
X001895Y007686D02*
X002019Y007810D01*
X002019Y007439D01*
X002142Y007439D02*
X001895Y007439D01*
X002369Y008189D02*
X002369Y008560D01*
X036395Y007498D02*
X036395Y007251D01*
X036457Y007189D01*
X036580Y007189D01*
X036642Y007251D01*
X036642Y007498D01*
X036580Y007560D01*
X036457Y007560D01*
X036395Y007498D01*
X036763Y007560D02*
X036763Y007251D01*
X036825Y007189D01*
X036949Y007189D01*
X037010Y007251D01*
X037010Y007560D01*
X037132Y007560D02*
X037379Y007560D01*
X037500Y007560D02*
X037500Y007189D01*
X037500Y007313D02*
X037685Y007313D01*
X037747Y007375D01*
X037747Y007498D01*
X037685Y007560D01*
X037500Y007560D01*
X037255Y007560D02*
X037255Y007189D01*
X037868Y007251D02*
X037930Y007189D01*
X038053Y007189D01*
X038115Y007251D01*
X038115Y007560D01*
X038237Y007560D02*
X038483Y007560D01*
X038360Y007560D02*
X038360Y007189D01*
X038605Y007251D02*
X038667Y007189D01*
X038790Y007189D01*
X038852Y007251D01*
X038852Y007313D01*
X038790Y007375D01*
X038667Y007375D01*
X038605Y007436D01*
X038605Y007498D01*
X038667Y007560D01*
X038790Y007560D01*
X038852Y007498D01*
X039645Y007436D02*
X039769Y007560D01*
X039769Y007189D01*
X039892Y007189D02*
X039645Y007189D01*
X037868Y007251D02*
X037868Y007560D01*
X042645Y007498D02*
X042707Y007560D01*
X042830Y007560D01*
X042892Y007498D01*
X042892Y007436D01*
X042645Y007189D01*
X042892Y007189D01*
X045395Y007251D02*
X045457Y007189D01*
X045580Y007189D01*
X045642Y007251D01*
X045642Y007313D01*
X045580Y007375D01*
X045519Y007375D01*
X045580Y007375D02*
X045642Y007436D01*
X045642Y007498D01*
X045580Y007560D01*
X045457Y007560D01*
X045395Y007498D01*
X048395Y007375D02*
X048642Y007375D01*
X048580Y007560D02*
X048395Y007375D01*
X048580Y007560D02*
X048580Y007189D01*
X051395Y007251D02*
X051457Y007189D01*
X051580Y007189D01*
X051642Y007251D01*
X051642Y007375D01*
X051580Y007436D01*
X051519Y007436D01*
X051395Y007375D01*
X051395Y007560D01*
X051642Y007560D01*
X054395Y007375D02*
X054580Y007375D01*
X054642Y007313D01*
X054642Y007251D01*
X054580Y007189D01*
X054457Y007189D01*
X054395Y007251D01*
X054395Y007375D01*
X054519Y007498D01*
X054642Y007560D01*
X057395Y007560D02*
X057642Y007560D01*
X057642Y007498D01*
X057395Y007251D01*
X057395Y007189D01*
X060145Y007251D02*
X060145Y007313D01*
X060207Y007375D01*
X060330Y007375D01*
X060392Y007313D01*
X060392Y007251D01*
X060330Y007189D01*
X060207Y007189D01*
X060145Y007251D01*
X060207Y007375D02*
X060145Y007436D01*
X060145Y007498D01*
X060207Y007560D01*
X060330Y007560D01*
X060392Y007498D01*
X060392Y007436D01*
X060330Y007375D01*
D12*
X061555Y007682D02*
X061557Y007732D01*
X061563Y007782D01*
X061573Y007831D01*
X061587Y007879D01*
X061604Y007926D01*
X061625Y007971D01*
X061650Y008015D01*
X061678Y008056D01*
X061710Y008095D01*
X061744Y008132D01*
X061781Y008166D01*
X061821Y008196D01*
X061863Y008223D01*
X061907Y008247D01*
X061953Y008268D01*
X062000Y008284D01*
X062048Y008297D01*
X062098Y008306D01*
X062147Y008311D01*
X062198Y008312D01*
X062248Y008309D01*
X062297Y008302D01*
X062346Y008291D01*
X062394Y008276D01*
X062440Y008258D01*
X062485Y008236D01*
X062528Y008210D01*
X062569Y008181D01*
X062608Y008149D01*
X062644Y008114D01*
X062676Y008076D01*
X062706Y008036D01*
X062733Y007993D01*
X062756Y007949D01*
X062775Y007903D01*
X062791Y007855D01*
X062803Y007806D01*
X062811Y007757D01*
X062815Y007707D01*
X062815Y007657D01*
X062811Y007607D01*
X062803Y007558D01*
X062791Y007509D01*
X062775Y007461D01*
X062756Y007415D01*
X062733Y007371D01*
X062706Y007328D01*
X062676Y007288D01*
X062644Y007250D01*
X062608Y007215D01*
X062569Y007183D01*
X062528Y007154D01*
X062485Y007128D01*
X062440Y007106D01*
X062394Y007088D01*
X062346Y007073D01*
X062297Y007062D01*
X062248Y007055D01*
X062198Y007052D01*
X062147Y007053D01*
X062098Y007058D01*
X062048Y007067D01*
X062000Y007080D01*
X061953Y007096D01*
X061907Y007117D01*
X061863Y007141D01*
X061821Y007168D01*
X061781Y007198D01*
X061744Y007232D01*
X061710Y007269D01*
X061678Y007308D01*
X061650Y007349D01*
X061625Y007393D01*
X061604Y007438D01*
X061587Y007485D01*
X061573Y007533D01*
X061563Y007582D01*
X061557Y007632D01*
X061555Y007682D01*
X037703Y022107D02*
X037705Y022157D01*
X037711Y022207D01*
X037721Y022256D01*
X037735Y022304D01*
X037752Y022351D01*
X037773Y022396D01*
X037798Y022440D01*
X037826Y022481D01*
X037858Y022520D01*
X037892Y022557D01*
X037929Y022591D01*
X037969Y022621D01*
X038011Y022648D01*
X038055Y022672D01*
X038101Y022693D01*
X038148Y022709D01*
X038196Y022722D01*
X038246Y022731D01*
X038295Y022736D01*
X038346Y022737D01*
X038396Y022734D01*
X038445Y022727D01*
X038494Y022716D01*
X038542Y022701D01*
X038588Y022683D01*
X038633Y022661D01*
X038676Y022635D01*
X038717Y022606D01*
X038756Y022574D01*
X038792Y022539D01*
X038824Y022501D01*
X038854Y022461D01*
X038881Y022418D01*
X038904Y022374D01*
X038923Y022328D01*
X038939Y022280D01*
X038951Y022231D01*
X038959Y022182D01*
X038963Y022132D01*
X038963Y022082D01*
X038959Y022032D01*
X038951Y021983D01*
X038939Y021934D01*
X038923Y021886D01*
X038904Y021840D01*
X038881Y021796D01*
X038854Y021753D01*
X038824Y021713D01*
X038792Y021675D01*
X038756Y021640D01*
X038717Y021608D01*
X038676Y021579D01*
X038633Y021553D01*
X038588Y021531D01*
X038542Y021513D01*
X038494Y021498D01*
X038445Y021487D01*
X038396Y021480D01*
X038346Y021477D01*
X038295Y021478D01*
X038246Y021483D01*
X038196Y021492D01*
X038148Y021505D01*
X038101Y021521D01*
X038055Y021542D01*
X038011Y021566D01*
X037969Y021593D01*
X037929Y021623D01*
X037892Y021657D01*
X037858Y021694D01*
X037826Y021733D01*
X037798Y021774D01*
X037773Y021818D01*
X037752Y021863D01*
X037735Y021910D01*
X037721Y021958D01*
X037711Y022007D01*
X037705Y022057D01*
X037703Y022107D01*
X030813Y037847D02*
X030815Y037897D01*
X030821Y037947D01*
X030831Y037996D01*
X030845Y038044D01*
X030862Y038091D01*
X030883Y038136D01*
X030908Y038180D01*
X030936Y038221D01*
X030968Y038260D01*
X031002Y038297D01*
X031039Y038331D01*
X031079Y038361D01*
X031121Y038388D01*
X031165Y038412D01*
X031211Y038433D01*
X031258Y038449D01*
X031306Y038462D01*
X031356Y038471D01*
X031405Y038476D01*
X031456Y038477D01*
X031506Y038474D01*
X031555Y038467D01*
X031604Y038456D01*
X031652Y038441D01*
X031698Y038423D01*
X031743Y038401D01*
X031786Y038375D01*
X031827Y038346D01*
X031866Y038314D01*
X031902Y038279D01*
X031934Y038241D01*
X031964Y038201D01*
X031991Y038158D01*
X032014Y038114D01*
X032033Y038068D01*
X032049Y038020D01*
X032061Y037971D01*
X032069Y037922D01*
X032073Y037872D01*
X032073Y037822D01*
X032069Y037772D01*
X032061Y037723D01*
X032049Y037674D01*
X032033Y037626D01*
X032014Y037580D01*
X031991Y037536D01*
X031964Y037493D01*
X031934Y037453D01*
X031902Y037415D01*
X031866Y037380D01*
X031827Y037348D01*
X031786Y037319D01*
X031743Y037293D01*
X031698Y037271D01*
X031652Y037253D01*
X031604Y037238D01*
X031555Y037227D01*
X031506Y037220D01*
X031456Y037217D01*
X031405Y037218D01*
X031356Y037223D01*
X031306Y037232D01*
X031258Y037245D01*
X031211Y037261D01*
X031165Y037282D01*
X031121Y037306D01*
X031079Y037333D01*
X031039Y037363D01*
X031002Y037397D01*
X030968Y037434D01*
X030936Y037473D01*
X030908Y037514D01*
X030883Y037558D01*
X030862Y037603D01*
X030845Y037650D01*
X030831Y037698D01*
X030821Y037747D01*
X030815Y037797D01*
X030813Y037847D01*
X000865Y031605D02*
X000867Y031655D01*
X000873Y031705D01*
X000883Y031754D01*
X000897Y031802D01*
X000914Y031849D01*
X000935Y031894D01*
X000960Y031938D01*
X000988Y031979D01*
X001020Y032018D01*
X001054Y032055D01*
X001091Y032089D01*
X001131Y032119D01*
X001173Y032146D01*
X001217Y032170D01*
X001263Y032191D01*
X001310Y032207D01*
X001358Y032220D01*
X001408Y032229D01*
X001457Y032234D01*
X001508Y032235D01*
X001558Y032232D01*
X001607Y032225D01*
X001656Y032214D01*
X001704Y032199D01*
X001750Y032181D01*
X001795Y032159D01*
X001838Y032133D01*
X001879Y032104D01*
X001918Y032072D01*
X001954Y032037D01*
X001986Y031999D01*
X002016Y031959D01*
X002043Y031916D01*
X002066Y031872D01*
X002085Y031826D01*
X002101Y031778D01*
X002113Y031729D01*
X002121Y031680D01*
X002125Y031630D01*
X002125Y031580D01*
X002121Y031530D01*
X002113Y031481D01*
X002101Y031432D01*
X002085Y031384D01*
X002066Y031338D01*
X002043Y031294D01*
X002016Y031251D01*
X001986Y031211D01*
X001954Y031173D01*
X001918Y031138D01*
X001879Y031106D01*
X001838Y031077D01*
X001795Y031051D01*
X001750Y031029D01*
X001704Y031011D01*
X001656Y030996D01*
X001607Y030985D01*
X001558Y030978D01*
X001508Y030975D01*
X001457Y030976D01*
X001408Y030981D01*
X001358Y030990D01*
X001310Y031003D01*
X001263Y031019D01*
X001217Y031040D01*
X001173Y031064D01*
X001131Y031091D01*
X001091Y031121D01*
X001054Y031155D01*
X001020Y031192D01*
X000988Y031231D01*
X000960Y031272D01*
X000935Y031316D01*
X000914Y031361D01*
X000897Y031408D01*
X000883Y031456D01*
X000873Y031505D01*
X000867Y031555D01*
X000865Y031605D01*
X002493Y010111D02*
X002495Y010161D01*
X002501Y010211D01*
X002511Y010260D01*
X002525Y010308D01*
X002542Y010355D01*
X002563Y010400D01*
X002588Y010444D01*
X002616Y010485D01*
X002648Y010524D01*
X002682Y010561D01*
X002719Y010595D01*
X002759Y010625D01*
X002801Y010652D01*
X002845Y010676D01*
X002891Y010697D01*
X002938Y010713D01*
X002986Y010726D01*
X003036Y010735D01*
X003085Y010740D01*
X003136Y010741D01*
X003186Y010738D01*
X003235Y010731D01*
X003284Y010720D01*
X003332Y010705D01*
X003378Y010687D01*
X003423Y010665D01*
X003466Y010639D01*
X003507Y010610D01*
X003546Y010578D01*
X003582Y010543D01*
X003614Y010505D01*
X003644Y010465D01*
X003671Y010422D01*
X003694Y010378D01*
X003713Y010332D01*
X003729Y010284D01*
X003741Y010235D01*
X003749Y010186D01*
X003753Y010136D01*
X003753Y010086D01*
X003749Y010036D01*
X003741Y009987D01*
X003729Y009938D01*
X003713Y009890D01*
X003694Y009844D01*
X003671Y009800D01*
X003644Y009757D01*
X003614Y009717D01*
X003582Y009679D01*
X003546Y009644D01*
X003507Y009612D01*
X003466Y009583D01*
X003423Y009557D01*
X003378Y009535D01*
X003332Y009517D01*
X003284Y009502D01*
X003235Y009491D01*
X003186Y009484D01*
X003136Y009481D01*
X003085Y009482D01*
X003036Y009487D01*
X002986Y009496D01*
X002938Y009509D01*
X002891Y009525D01*
X002845Y009546D01*
X002801Y009570D01*
X002759Y009597D01*
X002719Y009627D01*
X002682Y009661D01*
X002648Y009698D01*
X002616Y009737D01*
X002588Y009778D01*
X002563Y009822D01*
X002542Y009867D01*
X002525Y009914D01*
X002511Y009962D01*
X002501Y010011D01*
X002495Y010061D01*
X002493Y010111D01*
X061575Y033288D02*
X061577Y033338D01*
X061583Y033388D01*
X061593Y033437D01*
X061607Y033485D01*
X061624Y033532D01*
X061645Y033577D01*
X061670Y033621D01*
X061698Y033662D01*
X061730Y033701D01*
X061764Y033738D01*
X061801Y033772D01*
X061841Y033802D01*
X061883Y033829D01*
X061927Y033853D01*
X061973Y033874D01*
X062020Y033890D01*
X062068Y033903D01*
X062118Y033912D01*
X062167Y033917D01*
X062218Y033918D01*
X062268Y033915D01*
X062317Y033908D01*
X062366Y033897D01*
X062414Y033882D01*
X062460Y033864D01*
X062505Y033842D01*
X062548Y033816D01*
X062589Y033787D01*
X062628Y033755D01*
X062664Y033720D01*
X062696Y033682D01*
X062726Y033642D01*
X062753Y033599D01*
X062776Y033555D01*
X062795Y033509D01*
X062811Y033461D01*
X062823Y033412D01*
X062831Y033363D01*
X062835Y033313D01*
X062835Y033263D01*
X062831Y033213D01*
X062823Y033164D01*
X062811Y033115D01*
X062795Y033067D01*
X062776Y033021D01*
X062753Y032977D01*
X062726Y032934D01*
X062696Y032894D01*
X062664Y032856D01*
X062628Y032821D01*
X062589Y032789D01*
X062548Y032760D01*
X062505Y032734D01*
X062460Y032712D01*
X062414Y032694D01*
X062366Y032679D01*
X062317Y032668D01*
X062268Y032661D01*
X062218Y032658D01*
X062167Y032659D01*
X062118Y032664D01*
X062068Y032673D01*
X062020Y032686D01*
X061973Y032702D01*
X061927Y032723D01*
X061883Y032747D01*
X061841Y032774D01*
X061801Y032804D01*
X061764Y032838D01*
X061730Y032875D01*
X061698Y032914D01*
X061670Y032955D01*
X061645Y032999D01*
X061624Y033044D01*
X061607Y033091D01*
X061593Y033139D01*
X061583Y033188D01*
X061577Y033238D01*
X061575Y033288D01*
D13*
X018639Y021579D02*
X018641Y021599D01*
X018646Y021619D01*
X018656Y021637D01*
X018668Y021654D01*
X018683Y021668D01*
X018701Y021678D01*
X018720Y021686D01*
X018740Y021690D01*
X018760Y021690D01*
X018780Y021686D01*
X018799Y021678D01*
X018817Y021668D01*
X018832Y021654D01*
X018844Y021637D01*
X018854Y021619D01*
X018859Y021599D01*
X018861Y021579D01*
X018859Y021559D01*
X018854Y021539D01*
X018844Y021521D01*
X018832Y021504D01*
X018817Y021490D01*
X018799Y021480D01*
X018780Y021472D01*
X018760Y021468D01*
X018740Y021468D01*
X018720Y021472D01*
X018701Y021480D01*
X018683Y021490D01*
X018668Y021504D01*
X018656Y021521D01*
X018646Y021539D01*
X018641Y021559D01*
X018639Y021579D01*
X011904Y021989D02*
X011904Y017989D01*
X010154Y017989D01*
X010154Y021989D01*
X011904Y021989D01*
X010154Y021989D02*
X009404Y021989D01*
X009404Y017989D01*
X010154Y017989D01*
X010174Y017592D02*
X010174Y012592D01*
X009424Y012592D01*
X009424Y017592D01*
X010174Y017592D01*
X011924Y017592D01*
X011924Y012592D01*
X010174Y012592D01*
D14*
X012027Y007060D02*
X000909Y007060D01*
X000909Y001548D01*
X011928Y001548D01*
X012322Y001548D01*
X011928Y001548D02*
X023743Y001548D01*
X023743Y007060D01*
X012027Y007060D01*
X012322Y007060D01*
X024043Y007027D02*
X024043Y001516D01*
X029751Y001516D01*
X029751Y007027D01*
X024043Y007027D01*
X038663Y007093D02*
X038663Y001581D01*
X049683Y001581D01*
X050076Y001581D01*
X049683Y001581D02*
X061497Y001581D01*
X061497Y007093D01*
X049781Y007093D01*
X038663Y007093D01*
X049781Y007093D02*
X050076Y007093D01*
X019065Y018272D02*
X018907Y018114D01*
X015443Y018114D01*
X015285Y018272D01*
X015285Y021736D01*
X015443Y021894D01*
X018907Y021894D01*
X019065Y021736D01*
X019065Y018272D01*
X018839Y033810D02*
X007225Y033810D01*
X007225Y039322D01*
X018839Y039322D01*
X018839Y033810D01*
X021417Y033810D02*
X027126Y033810D01*
X027126Y039322D01*
X021417Y039322D01*
X021417Y033810D01*
X006461Y033810D02*
X000752Y033810D01*
X000752Y039322D01*
X006461Y039322D01*
X006461Y033810D01*
X038593Y033811D02*
X050310Y033811D01*
X061428Y033811D01*
X061428Y039322D01*
X050408Y039322D01*
X050014Y039322D01*
X050408Y039322D02*
X038593Y039322D01*
X038593Y033811D01*
X050014Y033811D02*
X050310Y033811D01*
D15*
X051920Y031897D02*
X051920Y030747D01*
X051820Y030647D01*
X048020Y030647D01*
X047920Y030747D01*
X047920Y031897D01*
X046920Y031897D02*
X046920Y030747D01*
X046820Y030647D01*
X043020Y030647D01*
X042920Y030747D01*
X042920Y031897D01*
X041920Y031897D02*
X041920Y030747D01*
X041820Y030647D01*
X038020Y030647D01*
X037920Y030747D01*
X037920Y031897D01*
X036920Y031897D02*
X036920Y030747D01*
X036820Y030647D01*
X033020Y030647D01*
X032920Y030747D01*
X032920Y031897D01*
X031920Y031897D02*
X031920Y030747D01*
X031820Y030647D01*
X028020Y030647D01*
X027920Y030747D01*
X027920Y031897D01*
X026920Y031897D02*
X026920Y030747D01*
X026820Y030647D01*
X023020Y030647D01*
X022920Y030747D01*
X022920Y031897D01*
X023023Y030218D02*
X023823Y030218D01*
X023840Y030216D01*
X023857Y030212D01*
X023873Y030205D01*
X023887Y030195D01*
X023900Y030182D01*
X023910Y030168D01*
X023917Y030152D01*
X023921Y030135D01*
X023923Y030118D01*
X023923Y027418D01*
X023921Y027401D01*
X023917Y027384D01*
X023910Y027368D01*
X023900Y027354D01*
X023887Y027341D01*
X023873Y027331D01*
X023857Y027324D01*
X023840Y027320D01*
X023823Y027318D01*
X023023Y027318D01*
X023006Y027320D01*
X022989Y027324D01*
X022973Y027331D01*
X022959Y027341D01*
X022946Y027354D01*
X022936Y027368D01*
X022929Y027384D01*
X022925Y027401D01*
X022923Y027418D01*
X022923Y030118D01*
X022925Y030135D01*
X022929Y030152D01*
X022936Y030168D01*
X022946Y030182D01*
X022959Y030195D01*
X022973Y030205D01*
X022989Y030212D01*
X023006Y030216D01*
X023023Y030218D01*
X023423Y029368D02*
X023423Y028898D01*
X023423Y028648D02*
X023423Y028168D01*
X019834Y029293D02*
X019834Y030093D01*
X019734Y030193D01*
X019834Y030293D01*
X019834Y031093D01*
X019734Y031193D01*
X018934Y031193D01*
X018834Y031093D01*
X018834Y030293D01*
X018934Y030193D01*
X018834Y030093D01*
X018834Y029293D01*
X018934Y029193D01*
X019734Y029193D01*
X019834Y029293D01*
X017834Y028343D02*
X017834Y030543D01*
X013834Y030543D01*
X013834Y029693D01*
X013864Y029691D01*
X013894Y029686D01*
X013923Y029677D01*
X013950Y029664D01*
X013976Y029649D01*
X014000Y029630D01*
X014021Y029609D01*
X014040Y029585D01*
X014055Y029559D01*
X014068Y029532D01*
X014077Y029503D01*
X014082Y029473D01*
X014084Y029443D01*
X014082Y029413D01*
X014077Y029383D01*
X014068Y029354D01*
X014055Y029327D01*
X014040Y029301D01*
X014021Y029277D01*
X014000Y029256D01*
X013976Y029237D01*
X013950Y029222D01*
X013923Y029209D01*
X013894Y029200D01*
X013864Y029195D01*
X013834Y029193D01*
X013834Y028343D01*
X017834Y028343D01*
X012095Y030807D02*
X012095Y031957D01*
X012095Y030807D02*
X011995Y030707D01*
X008195Y030707D01*
X008095Y030807D01*
X008095Y031957D01*
X009858Y026554D02*
X009860Y026617D01*
X009866Y026679D01*
X009876Y026741D01*
X009889Y026803D01*
X009907Y026863D01*
X009928Y026922D01*
X009953Y026980D01*
X009982Y027036D01*
X010014Y027090D01*
X010049Y027142D01*
X010087Y027191D01*
X010129Y027239D01*
X010173Y027283D01*
X010221Y027325D01*
X010270Y027363D01*
X010322Y027398D01*
X010376Y027430D01*
X010432Y027459D01*
X010490Y027484D01*
X010549Y027505D01*
X010609Y027523D01*
X010671Y027536D01*
X010733Y027546D01*
X010795Y027552D01*
X010858Y027554D01*
X010921Y027552D01*
X010983Y027546D01*
X011045Y027536D01*
X011107Y027523D01*
X011167Y027505D01*
X011226Y027484D01*
X011284Y027459D01*
X011340Y027430D01*
X011394Y027398D01*
X011446Y027363D01*
X011495Y027325D01*
X011543Y027283D01*
X011587Y027239D01*
X011629Y027191D01*
X011667Y027142D01*
X011702Y027090D01*
X011734Y027036D01*
X011763Y026980D01*
X011788Y026922D01*
X011809Y026863D01*
X011827Y026803D01*
X011840Y026741D01*
X011850Y026679D01*
X011856Y026617D01*
X011858Y026554D01*
X011856Y026491D01*
X011850Y026429D01*
X011840Y026367D01*
X011827Y026305D01*
X011809Y026245D01*
X011788Y026186D01*
X011763Y026128D01*
X011734Y026072D01*
X011702Y026018D01*
X011667Y025966D01*
X011629Y025917D01*
X011587Y025869D01*
X011543Y025825D01*
X011495Y025783D01*
X011446Y025745D01*
X011394Y025710D01*
X011340Y025678D01*
X011284Y025649D01*
X011226Y025624D01*
X011167Y025603D01*
X011107Y025585D01*
X011045Y025572D01*
X010983Y025562D01*
X010921Y025556D01*
X010858Y025554D01*
X010795Y025556D01*
X010733Y025562D01*
X010671Y025572D01*
X010609Y025585D01*
X010549Y025603D01*
X010490Y025624D01*
X010432Y025649D01*
X010376Y025678D01*
X010322Y025710D01*
X010270Y025745D01*
X010221Y025783D01*
X010173Y025825D01*
X010129Y025869D01*
X010087Y025917D01*
X010049Y025966D01*
X010014Y026018D01*
X009982Y026072D01*
X009953Y026128D01*
X009928Y026186D01*
X009907Y026245D01*
X009889Y026305D01*
X009876Y026367D01*
X009866Y026429D01*
X009860Y026491D01*
X009858Y026554D01*
X011308Y026054D02*
X011408Y026054D01*
X011408Y025954D01*
X011408Y026054D02*
X011408Y026154D01*
X011408Y026054D02*
X011508Y026054D01*
X012425Y021952D02*
X012425Y021725D01*
X012425Y021838D02*
X012085Y021838D01*
X012198Y021725D01*
X012085Y021584D02*
X012425Y021357D01*
X012425Y021584D02*
X012085Y021357D01*
X012137Y017402D02*
X012080Y017345D01*
X012080Y017232D01*
X012137Y017175D01*
X012080Y017034D02*
X012420Y016807D01*
X012420Y017034D02*
X012080Y016807D01*
X012420Y017175D02*
X012193Y017402D01*
X012137Y017402D01*
X012420Y017402D02*
X012420Y017175D01*
X016133Y016096D02*
X018433Y016096D01*
X018484Y016094D01*
X018535Y016089D01*
X018585Y016079D01*
X018635Y016066D01*
X018683Y016050D01*
X018730Y016030D01*
X018776Y016006D01*
X018819Y015980D01*
X018861Y015950D01*
X018900Y015917D01*
X018937Y015882D01*
X018971Y015844D01*
X019002Y015803D01*
X019031Y015761D01*
X019056Y015716D01*
X019077Y015670D01*
X019096Y015622D01*
X019110Y015573D01*
X019121Y015523D01*
X019129Y015473D01*
X019133Y015422D01*
X019133Y015370D01*
X019129Y015319D01*
X019121Y015269D01*
X019110Y015219D01*
X019096Y015170D01*
X019077Y015122D01*
X019056Y015076D01*
X019031Y015031D01*
X019002Y014989D01*
X018971Y014948D01*
X018937Y014910D01*
X018900Y014875D01*
X018861Y014842D01*
X018819Y014812D01*
X018776Y014786D01*
X018730Y014762D01*
X018683Y014742D01*
X018635Y014726D01*
X018585Y014713D01*
X018535Y014703D01*
X018484Y014698D01*
X018433Y014696D01*
X016133Y014696D01*
X017033Y015046D02*
X017033Y015396D01*
X016783Y015396D01*
X017033Y015396D02*
X017033Y015746D01*
X017183Y015746D02*
X017183Y015046D01*
X017383Y015046D01*
X017383Y015746D01*
X017183Y015746D01*
X017533Y015746D02*
X017533Y015396D01*
X017783Y015396D01*
X017533Y015396D02*
X017533Y015046D01*
X016133Y014696D02*
X016082Y014698D01*
X016031Y014703D01*
X015981Y014713D01*
X015931Y014726D01*
X015883Y014742D01*
X015836Y014762D01*
X015790Y014786D01*
X015747Y014812D01*
X015705Y014842D01*
X015666Y014875D01*
X015629Y014910D01*
X015595Y014948D01*
X015564Y014989D01*
X015535Y015031D01*
X015510Y015076D01*
X015489Y015122D01*
X015470Y015170D01*
X015456Y015219D01*
X015445Y015269D01*
X015437Y015319D01*
X015433Y015370D01*
X015433Y015422D01*
X015437Y015473D01*
X015445Y015523D01*
X015456Y015573D01*
X015470Y015622D01*
X015489Y015670D01*
X015510Y015716D01*
X015535Y015761D01*
X015564Y015803D01*
X015595Y015844D01*
X015629Y015882D01*
X015666Y015917D01*
X015705Y015950D01*
X015747Y015980D01*
X015790Y016006D01*
X015836Y016030D01*
X015883Y016050D01*
X015931Y016066D01*
X015981Y016079D01*
X016031Y016089D01*
X016082Y016094D01*
X016133Y016096D01*
X019905Y019915D02*
X019905Y020129D01*
X019905Y020022D02*
X020545Y020022D01*
X020545Y019915D02*
X020545Y020129D01*
X020438Y020345D02*
X020545Y020452D01*
X020545Y020665D01*
X020438Y020772D01*
X020438Y020989D02*
X020332Y020989D01*
X020225Y021096D01*
X020225Y021310D01*
X020332Y021416D01*
X020438Y021416D01*
X020545Y021310D01*
X020545Y021096D01*
X020438Y020989D01*
X020225Y021096D02*
X020118Y020989D01*
X020011Y020989D01*
X019905Y021096D01*
X019905Y021310D01*
X020011Y021416D01*
X020118Y021416D01*
X020225Y021310D01*
X020011Y020772D02*
X019905Y020665D01*
X019905Y020452D01*
X020011Y020345D01*
X020438Y020345D01*
X022305Y017119D02*
X022305Y014819D01*
X025305Y014819D01*
X025305Y015569D01*
X025266Y015571D01*
X025227Y015577D01*
X025189Y015586D01*
X025152Y015599D01*
X025116Y015616D01*
X025083Y015636D01*
X025051Y015660D01*
X025022Y015686D01*
X024996Y015715D01*
X024972Y015747D01*
X024952Y015780D01*
X024935Y015816D01*
X024922Y015853D01*
X024913Y015891D01*
X024907Y015930D01*
X024905Y015969D01*
X024907Y016008D01*
X024913Y016047D01*
X024922Y016085D01*
X024935Y016122D01*
X024952Y016158D01*
X024972Y016191D01*
X024996Y016223D01*
X025022Y016252D01*
X025051Y016278D01*
X025083Y016302D01*
X025116Y016322D01*
X025152Y016339D01*
X025189Y016352D01*
X025227Y016361D01*
X025266Y016367D01*
X025305Y016369D01*
X025305Y017119D01*
X022305Y017119D01*
X027305Y017119D02*
X027305Y014819D01*
X030305Y014819D01*
X030305Y015569D01*
X030266Y015571D01*
X030227Y015577D01*
X030189Y015586D01*
X030152Y015599D01*
X030116Y015616D01*
X030083Y015636D01*
X030051Y015660D01*
X030022Y015686D01*
X029996Y015715D01*
X029972Y015747D01*
X029952Y015780D01*
X029935Y015816D01*
X029922Y015853D01*
X029913Y015891D01*
X029907Y015930D01*
X029905Y015969D01*
X029907Y016008D01*
X029913Y016047D01*
X029922Y016085D01*
X029935Y016122D01*
X029952Y016158D01*
X029972Y016191D01*
X029996Y016223D01*
X030022Y016252D01*
X030051Y016278D01*
X030083Y016302D01*
X030116Y016322D01*
X030152Y016339D01*
X030189Y016352D01*
X030227Y016361D01*
X030266Y016367D01*
X030305Y016369D01*
X030305Y017119D01*
X027305Y017119D01*
X032305Y017119D02*
X032305Y014819D01*
X035305Y014819D01*
X035305Y015569D01*
X035266Y015571D01*
X035227Y015577D01*
X035189Y015586D01*
X035152Y015599D01*
X035116Y015616D01*
X035083Y015636D01*
X035051Y015660D01*
X035022Y015686D01*
X034996Y015715D01*
X034972Y015747D01*
X034952Y015780D01*
X034935Y015816D01*
X034922Y015853D01*
X034913Y015891D01*
X034907Y015930D01*
X034905Y015969D01*
X034907Y016008D01*
X034913Y016047D01*
X034922Y016085D01*
X034935Y016122D01*
X034952Y016158D01*
X034972Y016191D01*
X034996Y016223D01*
X035022Y016252D01*
X035051Y016278D01*
X035083Y016302D01*
X035116Y016322D01*
X035152Y016339D01*
X035189Y016352D01*
X035227Y016361D01*
X035266Y016367D01*
X035305Y016369D01*
X035305Y017119D01*
X032305Y017119D01*
X037305Y017119D02*
X037305Y014819D01*
X040305Y014819D01*
X040305Y015569D01*
X040266Y015571D01*
X040227Y015577D01*
X040189Y015586D01*
X040152Y015599D01*
X040116Y015616D01*
X040083Y015636D01*
X040051Y015660D01*
X040022Y015686D01*
X039996Y015715D01*
X039972Y015747D01*
X039952Y015780D01*
X039935Y015816D01*
X039922Y015853D01*
X039913Y015891D01*
X039907Y015930D01*
X039905Y015969D01*
X039907Y016008D01*
X039913Y016047D01*
X039922Y016085D01*
X039935Y016122D01*
X039952Y016158D01*
X039972Y016191D01*
X039996Y016223D01*
X040022Y016252D01*
X040051Y016278D01*
X040083Y016302D01*
X040116Y016322D01*
X040152Y016339D01*
X040189Y016352D01*
X040227Y016361D01*
X040266Y016367D01*
X040305Y016369D01*
X040305Y017119D01*
X037305Y017119D01*
X042305Y017119D02*
X042305Y014819D01*
X045305Y014819D01*
X045305Y015569D01*
X045266Y015571D01*
X045227Y015577D01*
X045189Y015586D01*
X045152Y015599D01*
X045116Y015616D01*
X045083Y015636D01*
X045051Y015660D01*
X045022Y015686D01*
X044996Y015715D01*
X044972Y015747D01*
X044952Y015780D01*
X044935Y015816D01*
X044922Y015853D01*
X044913Y015891D01*
X044907Y015930D01*
X044905Y015969D01*
X044907Y016008D01*
X044913Y016047D01*
X044922Y016085D01*
X044935Y016122D01*
X044952Y016158D01*
X044972Y016191D01*
X044996Y016223D01*
X045022Y016252D01*
X045051Y016278D01*
X045083Y016302D01*
X045116Y016322D01*
X045152Y016339D01*
X045189Y016352D01*
X045227Y016361D01*
X045266Y016367D01*
X045305Y016369D01*
X045305Y017119D01*
X042305Y017119D01*
X047305Y017119D02*
X047305Y014819D01*
X050305Y014819D01*
X050305Y015569D01*
X050266Y015571D01*
X050227Y015577D01*
X050189Y015586D01*
X050152Y015599D01*
X050116Y015616D01*
X050083Y015636D01*
X050051Y015660D01*
X050022Y015686D01*
X049996Y015715D01*
X049972Y015747D01*
X049952Y015780D01*
X049935Y015816D01*
X049922Y015853D01*
X049913Y015891D01*
X049907Y015930D01*
X049905Y015969D01*
X049907Y016008D01*
X049913Y016047D01*
X049922Y016085D01*
X049935Y016122D01*
X049952Y016158D01*
X049972Y016191D01*
X049996Y016223D01*
X050022Y016252D01*
X050051Y016278D01*
X050083Y016302D01*
X050116Y016322D01*
X050152Y016339D01*
X050189Y016352D01*
X050227Y016361D01*
X050266Y016367D01*
X050305Y016369D01*
X050305Y017119D01*
X047305Y017119D01*
X052305Y017119D02*
X052305Y014819D01*
X055305Y014819D01*
X055305Y015569D01*
X055266Y015571D01*
X055227Y015577D01*
X055189Y015586D01*
X055152Y015599D01*
X055116Y015616D01*
X055083Y015636D01*
X055051Y015660D01*
X055022Y015686D01*
X054996Y015715D01*
X054972Y015747D01*
X054952Y015780D01*
X054935Y015816D01*
X054922Y015853D01*
X054913Y015891D01*
X054907Y015930D01*
X054905Y015969D01*
X054907Y016008D01*
X054913Y016047D01*
X054922Y016085D01*
X054935Y016122D01*
X054952Y016158D01*
X054972Y016191D01*
X054996Y016223D01*
X055022Y016252D01*
X055051Y016278D01*
X055083Y016302D01*
X055116Y016322D01*
X055152Y016339D01*
X055189Y016352D01*
X055227Y016361D01*
X055266Y016367D01*
X055305Y016369D01*
X055305Y017119D01*
X052305Y017119D01*
X057305Y017119D02*
X057305Y014819D01*
X060305Y014819D01*
X060305Y015569D01*
X060266Y015571D01*
X060227Y015577D01*
X060189Y015586D01*
X060152Y015599D01*
X060116Y015616D01*
X060083Y015636D01*
X060051Y015660D01*
X060022Y015686D01*
X059996Y015715D01*
X059972Y015747D01*
X059952Y015780D01*
X059935Y015816D01*
X059922Y015853D01*
X059913Y015891D01*
X059907Y015930D01*
X059905Y015969D01*
X059907Y016008D01*
X059913Y016047D01*
X059922Y016085D01*
X059935Y016122D01*
X059952Y016158D01*
X059972Y016191D01*
X059996Y016223D01*
X060022Y016252D01*
X060051Y016278D01*
X060083Y016302D01*
X060116Y016322D01*
X060152Y016339D01*
X060189Y016352D01*
X060227Y016361D01*
X060266Y016367D01*
X060305Y016369D01*
X060305Y017119D01*
X057305Y017119D01*
X056590Y013469D02*
X055790Y013469D01*
X055773Y013467D01*
X055756Y013463D01*
X055740Y013456D01*
X055726Y013446D01*
X055713Y013433D01*
X055703Y013419D01*
X055696Y013403D01*
X055692Y013386D01*
X055690Y013369D01*
X055690Y010669D01*
X055692Y010652D01*
X055696Y010635D01*
X055703Y010619D01*
X055713Y010605D01*
X055726Y010592D01*
X055740Y010582D01*
X055756Y010575D01*
X055773Y010571D01*
X055790Y010569D01*
X056590Y010569D01*
X056607Y010571D01*
X056624Y010575D01*
X056640Y010582D01*
X056654Y010592D01*
X056667Y010605D01*
X056677Y010619D01*
X056684Y010635D01*
X056688Y010652D01*
X056690Y010669D01*
X056690Y013369D01*
X056688Y013386D01*
X056684Y013403D01*
X056677Y013419D01*
X056667Y013433D01*
X056654Y013446D01*
X056640Y013456D01*
X056624Y013463D01*
X056607Y013467D01*
X056590Y013469D01*
X056190Y012619D02*
X056190Y012139D01*
X056190Y011889D02*
X056190Y011419D01*
X056705Y010169D02*
X056805Y010069D01*
X056805Y008919D01*
X057805Y008919D02*
X057805Y010069D01*
X057905Y010169D01*
X061705Y010169D01*
X061805Y010069D01*
X061805Y008919D01*
X061616Y010569D02*
X060816Y010569D01*
X060799Y010571D01*
X060782Y010575D01*
X060766Y010582D01*
X060752Y010592D01*
X060739Y010605D01*
X060729Y010619D01*
X060722Y010635D01*
X060718Y010652D01*
X060716Y010669D01*
X060716Y013369D01*
X060718Y013386D01*
X060722Y013403D01*
X060729Y013419D01*
X060739Y013433D01*
X060752Y013446D01*
X060766Y013456D01*
X060782Y013463D01*
X060799Y013467D01*
X060816Y013469D01*
X061616Y013469D01*
X061633Y013467D01*
X061650Y013463D01*
X061666Y013456D01*
X061680Y013446D01*
X061693Y013433D01*
X061703Y013419D01*
X061710Y013403D01*
X061714Y013386D01*
X061716Y013369D01*
X061716Y010669D01*
X061714Y010652D01*
X061710Y010635D01*
X061703Y010619D01*
X061693Y010605D01*
X061680Y010592D01*
X061666Y010582D01*
X061650Y010575D01*
X061633Y010571D01*
X061616Y010569D01*
X061216Y011419D02*
X061216Y011889D01*
X061216Y012139D02*
X061216Y012619D01*
X056705Y010169D02*
X052905Y010169D01*
X052805Y010069D01*
X052805Y008919D01*
X051805Y008919D02*
X051805Y010069D01*
X051705Y010169D01*
X047905Y010169D01*
X047805Y010069D01*
X047805Y008919D01*
X046805Y008919D02*
X046805Y010069D01*
X046705Y010169D01*
X042905Y010169D01*
X042805Y010069D01*
X042805Y008919D01*
X041805Y008919D02*
X041805Y010069D01*
X041705Y010169D01*
X037905Y010169D01*
X037805Y010069D01*
X037805Y008919D01*
X036805Y008919D02*
X036805Y010069D01*
X036705Y010169D01*
X032905Y010169D01*
X032805Y010069D01*
X032805Y008919D01*
X031805Y008919D02*
X031805Y010069D01*
X031705Y010169D01*
X027905Y010169D01*
X027805Y010069D01*
X027805Y008919D01*
X026805Y008919D02*
X026805Y010069D01*
X026705Y010169D01*
X022905Y010169D01*
X022805Y010069D01*
X022805Y008919D01*
X025822Y010669D02*
X025822Y013369D01*
X025824Y013386D01*
X025828Y013403D01*
X025835Y013419D01*
X025845Y013433D01*
X025858Y013446D01*
X025872Y013456D01*
X025888Y013463D01*
X025905Y013467D01*
X025922Y013469D01*
X026722Y013469D01*
X026739Y013467D01*
X026756Y013463D01*
X026772Y013456D01*
X026786Y013446D01*
X026799Y013433D01*
X026809Y013419D01*
X026816Y013403D01*
X026820Y013386D01*
X026822Y013369D01*
X026822Y010669D01*
X026820Y010652D01*
X026816Y010635D01*
X026809Y010619D01*
X026799Y010605D01*
X026786Y010592D01*
X026772Y010582D01*
X026756Y010575D01*
X026739Y010571D01*
X026722Y010569D01*
X025922Y010569D01*
X025905Y010571D01*
X025888Y010575D01*
X025872Y010582D01*
X025858Y010592D01*
X025845Y010605D01*
X025835Y010619D01*
X025828Y010635D01*
X025824Y010652D01*
X025822Y010669D01*
X026322Y011419D02*
X026322Y011889D01*
X026322Y012139D02*
X026322Y012619D01*
X030698Y013369D02*
X030698Y010669D01*
X030700Y010652D01*
X030704Y010635D01*
X030711Y010619D01*
X030721Y010605D01*
X030734Y010592D01*
X030748Y010582D01*
X030764Y010575D01*
X030781Y010571D01*
X030798Y010569D01*
X031598Y010569D01*
X031615Y010571D01*
X031632Y010575D01*
X031648Y010582D01*
X031662Y010592D01*
X031675Y010605D01*
X031685Y010619D01*
X031692Y010635D01*
X031696Y010652D01*
X031698Y010669D01*
X031698Y013369D01*
X031696Y013386D01*
X031692Y013403D01*
X031685Y013419D01*
X031675Y013433D01*
X031662Y013446D01*
X031648Y013456D01*
X031632Y013463D01*
X031615Y013467D01*
X031598Y013469D01*
X030798Y013469D01*
X030781Y013467D01*
X030764Y013463D01*
X030748Y013456D01*
X030734Y013446D01*
X030721Y013433D01*
X030711Y013419D01*
X030704Y013403D01*
X030700Y013386D01*
X030698Y013369D01*
X031198Y012619D02*
X031198Y012139D01*
X031198Y011889D02*
X031198Y011419D01*
X035701Y010669D02*
X035701Y013369D01*
X035703Y013386D01*
X035707Y013403D01*
X035714Y013419D01*
X035724Y013433D01*
X035737Y013446D01*
X035751Y013456D01*
X035767Y013463D01*
X035784Y013467D01*
X035801Y013469D01*
X036601Y013469D01*
X036618Y013467D01*
X036635Y013463D01*
X036651Y013456D01*
X036665Y013446D01*
X036678Y013433D01*
X036688Y013419D01*
X036695Y013403D01*
X036699Y013386D01*
X036701Y013369D01*
X036701Y010669D01*
X036699Y010652D01*
X036695Y010635D01*
X036688Y010619D01*
X036678Y010605D01*
X036665Y010592D01*
X036651Y010582D01*
X036635Y010575D01*
X036618Y010571D01*
X036601Y010569D01*
X035801Y010569D01*
X035784Y010571D01*
X035767Y010575D01*
X035751Y010582D01*
X035737Y010592D01*
X035724Y010605D01*
X035714Y010619D01*
X035707Y010635D01*
X035703Y010652D01*
X035701Y010669D01*
X036201Y011419D02*
X036201Y011889D01*
X036201Y012139D02*
X036201Y012619D01*
X040696Y013369D02*
X040696Y010669D01*
X040698Y010652D01*
X040702Y010635D01*
X040709Y010619D01*
X040719Y010605D01*
X040732Y010592D01*
X040746Y010582D01*
X040762Y010575D01*
X040779Y010571D01*
X040796Y010569D01*
X041596Y010569D01*
X041613Y010571D01*
X041630Y010575D01*
X041646Y010582D01*
X041660Y010592D01*
X041673Y010605D01*
X041683Y010619D01*
X041690Y010635D01*
X041694Y010652D01*
X041696Y010669D01*
X041696Y013369D01*
X041694Y013386D01*
X041690Y013403D01*
X041683Y013419D01*
X041673Y013433D01*
X041660Y013446D01*
X041646Y013456D01*
X041630Y013463D01*
X041613Y013467D01*
X041596Y013469D01*
X040796Y013469D01*
X040779Y013467D01*
X040762Y013463D01*
X040746Y013456D01*
X040732Y013446D01*
X040719Y013433D01*
X040709Y013419D01*
X040702Y013403D01*
X040698Y013386D01*
X040696Y013369D01*
X041196Y012619D02*
X041196Y012139D01*
X041196Y011889D02*
X041196Y011419D01*
X045700Y010669D02*
X045700Y013369D01*
X045702Y013386D01*
X045706Y013403D01*
X045713Y013419D01*
X045723Y013433D01*
X045736Y013446D01*
X045750Y013456D01*
X045766Y013463D01*
X045783Y013467D01*
X045800Y013469D01*
X046600Y013469D01*
X046617Y013467D01*
X046634Y013463D01*
X046650Y013456D01*
X046664Y013446D01*
X046677Y013433D01*
X046687Y013419D01*
X046694Y013403D01*
X046698Y013386D01*
X046700Y013369D01*
X046700Y010669D01*
X046698Y010652D01*
X046694Y010635D01*
X046687Y010619D01*
X046677Y010605D01*
X046664Y010592D01*
X046650Y010582D01*
X046634Y010575D01*
X046617Y010571D01*
X046600Y010569D01*
X045800Y010569D01*
X045783Y010571D01*
X045766Y010575D01*
X045750Y010582D01*
X045736Y010592D01*
X045723Y010605D01*
X045713Y010619D01*
X045706Y010635D01*
X045702Y010652D01*
X045700Y010669D01*
X046200Y011419D02*
X046200Y011889D01*
X046200Y012139D02*
X046200Y012619D01*
X050697Y013369D02*
X050697Y010669D01*
X050699Y010652D01*
X050703Y010635D01*
X050710Y010619D01*
X050720Y010605D01*
X050733Y010592D01*
X050747Y010582D01*
X050763Y010575D01*
X050780Y010571D01*
X050797Y010569D01*
X051597Y010569D01*
X051614Y010571D01*
X051631Y010575D01*
X051647Y010582D01*
X051661Y010592D01*
X051674Y010605D01*
X051684Y010619D01*
X051691Y010635D01*
X051695Y010652D01*
X051697Y010669D01*
X051697Y013369D01*
X051695Y013386D01*
X051691Y013403D01*
X051684Y013419D01*
X051674Y013433D01*
X051661Y013446D01*
X051647Y013456D01*
X051631Y013463D01*
X051614Y013467D01*
X051597Y013469D01*
X050797Y013469D01*
X050780Y013467D01*
X050763Y013463D01*
X050747Y013456D01*
X050733Y013446D01*
X050720Y013433D01*
X050710Y013419D01*
X050703Y013403D01*
X050699Y013386D01*
X050697Y013369D01*
X051197Y012619D02*
X051197Y012139D01*
X051197Y011889D02*
X051197Y011419D01*
X037506Y006831D02*
X037506Y002831D01*
X035206Y002831D01*
X035206Y006831D01*
X035956Y006831D01*
X035958Y006792D01*
X035964Y006753D01*
X035973Y006715D01*
X035986Y006678D01*
X036003Y006642D01*
X036023Y006609D01*
X036047Y006577D01*
X036073Y006548D01*
X036102Y006522D01*
X036134Y006498D01*
X036167Y006478D01*
X036203Y006461D01*
X036240Y006448D01*
X036278Y006439D01*
X036317Y006433D01*
X036356Y006431D01*
X036395Y006433D01*
X036434Y006439D01*
X036472Y006448D01*
X036509Y006461D01*
X036545Y006478D01*
X036578Y006498D01*
X036610Y006522D01*
X036639Y006548D01*
X036665Y006577D01*
X036689Y006609D01*
X036709Y006642D01*
X036726Y006678D01*
X036739Y006715D01*
X036748Y006753D01*
X036754Y006792D01*
X036756Y006831D01*
X037506Y006831D01*
X034166Y005141D02*
X034166Y003541D01*
X034164Y003524D01*
X034160Y003507D01*
X034153Y003491D01*
X034143Y003477D01*
X034130Y003464D01*
X034116Y003454D01*
X034100Y003447D01*
X034083Y003443D01*
X034066Y003441D01*
X033466Y003441D01*
X033449Y003443D01*
X033432Y003447D01*
X033416Y003454D01*
X033402Y003464D01*
X033389Y003477D01*
X033379Y003491D01*
X033372Y003507D01*
X033368Y003524D01*
X033366Y003541D01*
X033366Y005141D01*
X033368Y005158D01*
X033372Y005175D01*
X033379Y005191D01*
X033389Y005205D01*
X033402Y005218D01*
X033416Y005228D01*
X033432Y005235D01*
X033449Y005239D01*
X033466Y005241D01*
X034066Y005241D01*
X034083Y005239D01*
X034100Y005235D01*
X034116Y005228D01*
X034130Y005218D01*
X034143Y005205D01*
X034153Y005191D01*
X034160Y005175D01*
X034164Y005158D01*
X034166Y005141D01*
X033766Y004591D02*
X033766Y004341D01*
X033516Y004341D01*
X033766Y004341D02*
X033516Y003941D01*
X034016Y003941D01*
X033766Y004341D01*
X034016Y004341D01*
X033766Y004341D02*
X033766Y003741D01*
X034420Y023697D02*
X034420Y024447D01*
X034459Y024449D01*
X034498Y024455D01*
X034536Y024464D01*
X034573Y024477D01*
X034609Y024494D01*
X034642Y024514D01*
X034674Y024538D01*
X034703Y024564D01*
X034729Y024593D01*
X034753Y024625D01*
X034773Y024658D01*
X034790Y024694D01*
X034803Y024731D01*
X034812Y024769D01*
X034818Y024808D01*
X034820Y024847D01*
X034818Y024886D01*
X034812Y024925D01*
X034803Y024963D01*
X034790Y025000D01*
X034773Y025036D01*
X034753Y025069D01*
X034729Y025101D01*
X034703Y025130D01*
X034674Y025156D01*
X034642Y025180D01*
X034609Y025200D01*
X034573Y025217D01*
X034536Y025230D01*
X034498Y025239D01*
X034459Y025245D01*
X034420Y025247D01*
X034420Y025997D01*
X037420Y025997D01*
X037420Y023697D01*
X034420Y023697D01*
X032420Y023697D02*
X032420Y025997D01*
X029420Y025997D01*
X029420Y025247D01*
X029459Y025245D01*
X029498Y025239D01*
X029536Y025230D01*
X029573Y025217D01*
X029609Y025200D01*
X029642Y025180D01*
X029674Y025156D01*
X029703Y025130D01*
X029729Y025101D01*
X029753Y025069D01*
X029773Y025036D01*
X029790Y025000D01*
X029803Y024963D01*
X029812Y024925D01*
X029818Y024886D01*
X029820Y024847D01*
X029818Y024808D01*
X029812Y024769D01*
X029803Y024731D01*
X029790Y024694D01*
X029773Y024658D01*
X029753Y024625D01*
X029729Y024593D01*
X029703Y024564D01*
X029674Y024538D01*
X029642Y024514D01*
X029609Y024494D01*
X029573Y024477D01*
X029536Y024464D01*
X029498Y024455D01*
X029459Y024449D01*
X029420Y024447D01*
X029420Y023697D01*
X032420Y023697D01*
X027420Y023697D02*
X027420Y025997D01*
X024420Y025997D01*
X024420Y025247D01*
X024459Y025245D01*
X024498Y025239D01*
X024536Y025230D01*
X024573Y025217D01*
X024609Y025200D01*
X024642Y025180D01*
X024674Y025156D01*
X024703Y025130D01*
X024729Y025101D01*
X024753Y025069D01*
X024773Y025036D01*
X024790Y025000D01*
X024803Y024963D01*
X024812Y024925D01*
X024818Y024886D01*
X024820Y024847D01*
X024818Y024808D01*
X024812Y024769D01*
X024803Y024731D01*
X024790Y024694D01*
X024773Y024658D01*
X024753Y024625D01*
X024729Y024593D01*
X024703Y024564D01*
X024674Y024538D01*
X024642Y024514D01*
X024609Y024494D01*
X024573Y024477D01*
X024536Y024464D01*
X024498Y024455D01*
X024459Y024449D01*
X024420Y024447D01*
X024420Y023697D01*
X027420Y023697D01*
X028034Y027318D02*
X028834Y027318D01*
X028851Y027320D01*
X028868Y027324D01*
X028884Y027331D01*
X028898Y027341D01*
X028911Y027354D01*
X028921Y027368D01*
X028928Y027384D01*
X028932Y027401D01*
X028934Y027418D01*
X028934Y030118D01*
X028932Y030135D01*
X028928Y030152D01*
X028921Y030168D01*
X028911Y030182D01*
X028898Y030195D01*
X028884Y030205D01*
X028868Y030212D01*
X028851Y030216D01*
X028834Y030218D01*
X028034Y030218D01*
X028017Y030216D01*
X028000Y030212D01*
X027984Y030205D01*
X027970Y030195D01*
X027957Y030182D01*
X027947Y030168D01*
X027940Y030152D01*
X027936Y030135D01*
X027934Y030118D01*
X027934Y027418D01*
X027936Y027401D01*
X027940Y027384D01*
X027947Y027368D01*
X027957Y027354D01*
X027970Y027341D01*
X027984Y027331D01*
X028000Y027324D01*
X028017Y027320D01*
X028034Y027318D01*
X028434Y028168D02*
X028434Y028648D01*
X028434Y028898D02*
X028434Y029368D01*
X032938Y030118D02*
X032938Y027418D01*
X032940Y027401D01*
X032944Y027384D01*
X032951Y027368D01*
X032961Y027354D01*
X032974Y027341D01*
X032988Y027331D01*
X033004Y027324D01*
X033021Y027320D01*
X033038Y027318D01*
X033838Y027318D01*
X033855Y027320D01*
X033872Y027324D01*
X033888Y027331D01*
X033902Y027341D01*
X033915Y027354D01*
X033925Y027368D01*
X033932Y027384D01*
X033936Y027401D01*
X033938Y027418D01*
X033938Y030118D01*
X033936Y030135D01*
X033932Y030152D01*
X033925Y030168D01*
X033915Y030182D01*
X033902Y030195D01*
X033888Y030205D01*
X033872Y030212D01*
X033855Y030216D01*
X033838Y030218D01*
X033038Y030218D01*
X033021Y030216D01*
X033004Y030212D01*
X032988Y030205D01*
X032974Y030195D01*
X032961Y030182D01*
X032951Y030168D01*
X032944Y030152D01*
X032940Y030135D01*
X032938Y030118D01*
X033438Y029368D02*
X033438Y028898D01*
X033438Y028648D02*
X033438Y028168D01*
X037914Y027418D02*
X037914Y030118D01*
X037916Y030135D01*
X037920Y030152D01*
X037927Y030168D01*
X037937Y030182D01*
X037950Y030195D01*
X037964Y030205D01*
X037980Y030212D01*
X037997Y030216D01*
X038014Y030218D01*
X038814Y030218D01*
X038831Y030216D01*
X038848Y030212D01*
X038864Y030205D01*
X038878Y030195D01*
X038891Y030182D01*
X038901Y030168D01*
X038908Y030152D01*
X038912Y030135D01*
X038914Y030118D01*
X038914Y027418D01*
X038912Y027401D01*
X038908Y027384D01*
X038901Y027368D01*
X038891Y027354D01*
X038878Y027341D01*
X038864Y027331D01*
X038848Y027324D01*
X038831Y027320D01*
X038814Y027318D01*
X038014Y027318D01*
X037997Y027320D01*
X037980Y027324D01*
X037964Y027331D01*
X037950Y027341D01*
X037937Y027354D01*
X037927Y027368D01*
X037920Y027384D01*
X037916Y027401D01*
X037914Y027418D01*
X038414Y028168D02*
X038414Y028648D01*
X038414Y028898D02*
X038414Y029368D01*
X043015Y030118D02*
X043015Y027418D01*
X043017Y027401D01*
X043021Y027384D01*
X043028Y027368D01*
X043038Y027354D01*
X043051Y027341D01*
X043065Y027331D01*
X043081Y027324D01*
X043098Y027320D01*
X043115Y027318D01*
X043915Y027318D01*
X043932Y027320D01*
X043949Y027324D01*
X043965Y027331D01*
X043979Y027341D01*
X043992Y027354D01*
X044002Y027368D01*
X044009Y027384D01*
X044013Y027401D01*
X044015Y027418D01*
X044015Y030118D01*
X044013Y030135D01*
X044009Y030152D01*
X044002Y030168D01*
X043992Y030182D01*
X043979Y030195D01*
X043965Y030205D01*
X043949Y030212D01*
X043932Y030216D01*
X043915Y030218D01*
X043115Y030218D01*
X043098Y030216D01*
X043081Y030212D01*
X043065Y030205D01*
X043051Y030195D01*
X043038Y030182D01*
X043028Y030168D01*
X043021Y030152D01*
X043017Y030135D01*
X043015Y030118D01*
X043515Y029368D02*
X043515Y028898D01*
X043515Y028648D02*
X043515Y028168D01*
X044420Y025997D02*
X044420Y025247D01*
X044459Y025245D01*
X044498Y025239D01*
X044536Y025230D01*
X044573Y025217D01*
X044609Y025200D01*
X044642Y025180D01*
X044674Y025156D01*
X044703Y025130D01*
X044729Y025101D01*
X044753Y025069D01*
X044773Y025036D01*
X044790Y025000D01*
X044803Y024963D01*
X044812Y024925D01*
X044818Y024886D01*
X044820Y024847D01*
X044818Y024808D01*
X044812Y024769D01*
X044803Y024731D01*
X044790Y024694D01*
X044773Y024658D01*
X044753Y024625D01*
X044729Y024593D01*
X044703Y024564D01*
X044674Y024538D01*
X044642Y024514D01*
X044609Y024494D01*
X044573Y024477D01*
X044536Y024464D01*
X044498Y024455D01*
X044459Y024449D01*
X044420Y024447D01*
X044420Y023697D01*
X047420Y023697D01*
X047420Y025997D01*
X044420Y025997D01*
X042420Y025997D02*
X042420Y023697D01*
X039420Y023697D01*
X039420Y024447D01*
X039459Y024449D01*
X039498Y024455D01*
X039536Y024464D01*
X039573Y024477D01*
X039609Y024494D01*
X039642Y024514D01*
X039674Y024538D01*
X039703Y024564D01*
X039729Y024593D01*
X039753Y024625D01*
X039773Y024658D01*
X039790Y024694D01*
X039803Y024731D01*
X039812Y024769D01*
X039818Y024808D01*
X039820Y024847D01*
X039818Y024886D01*
X039812Y024925D01*
X039803Y024963D01*
X039790Y025000D01*
X039773Y025036D01*
X039753Y025069D01*
X039729Y025101D01*
X039703Y025130D01*
X039674Y025156D01*
X039642Y025180D01*
X039609Y025200D01*
X039573Y025217D01*
X039536Y025230D01*
X039498Y025239D01*
X039459Y025245D01*
X039420Y025247D01*
X039420Y025997D01*
X042420Y025997D01*
X048040Y027418D02*
X048040Y030118D01*
X048042Y030135D01*
X048046Y030152D01*
X048053Y030168D01*
X048063Y030182D01*
X048076Y030195D01*
X048090Y030205D01*
X048106Y030212D01*
X048123Y030216D01*
X048140Y030218D01*
X048940Y030218D01*
X048957Y030216D01*
X048974Y030212D01*
X048990Y030205D01*
X049004Y030195D01*
X049017Y030182D01*
X049027Y030168D01*
X049034Y030152D01*
X049038Y030135D01*
X049040Y030118D01*
X049040Y027418D01*
X049038Y027401D01*
X049034Y027384D01*
X049027Y027368D01*
X049017Y027354D01*
X049004Y027341D01*
X048990Y027331D01*
X048974Y027324D01*
X048957Y027320D01*
X048940Y027318D01*
X048140Y027318D01*
X048123Y027320D01*
X048106Y027324D01*
X048090Y027331D01*
X048076Y027341D01*
X048063Y027354D01*
X048053Y027368D01*
X048046Y027384D01*
X048042Y027401D01*
X048040Y027418D01*
X048540Y028168D02*
X048540Y028648D01*
X048540Y028898D02*
X048540Y029368D01*
X053018Y030118D02*
X053018Y027418D01*
X053020Y027401D01*
X053024Y027384D01*
X053031Y027368D01*
X053041Y027354D01*
X053054Y027341D01*
X053068Y027331D01*
X053084Y027324D01*
X053101Y027320D01*
X053118Y027318D01*
X053918Y027318D01*
X053935Y027320D01*
X053952Y027324D01*
X053968Y027331D01*
X053982Y027341D01*
X053995Y027354D01*
X054005Y027368D01*
X054012Y027384D01*
X054016Y027401D01*
X054018Y027418D01*
X054018Y030118D01*
X054016Y030135D01*
X054012Y030152D01*
X054005Y030168D01*
X053995Y030182D01*
X053982Y030195D01*
X053968Y030205D01*
X053952Y030212D01*
X053935Y030216D01*
X053918Y030218D01*
X053118Y030218D01*
X053101Y030216D01*
X053084Y030212D01*
X053068Y030205D01*
X053054Y030195D01*
X053041Y030182D01*
X053031Y030168D01*
X053024Y030152D01*
X053020Y030135D01*
X053018Y030118D01*
X053020Y030647D02*
X052920Y030747D01*
X052920Y031897D01*
X053020Y030647D02*
X056820Y030647D01*
X056920Y030747D01*
X056920Y031897D01*
X057920Y031897D02*
X057920Y030747D01*
X058020Y030647D01*
X061820Y030647D01*
X061920Y030747D01*
X061920Y031897D01*
X058922Y030118D02*
X058922Y027418D01*
X058920Y027401D01*
X058916Y027384D01*
X058909Y027368D01*
X058899Y027354D01*
X058886Y027341D01*
X058872Y027331D01*
X058856Y027324D01*
X058839Y027320D01*
X058822Y027318D01*
X058022Y027318D01*
X058005Y027320D01*
X057988Y027324D01*
X057972Y027331D01*
X057958Y027341D01*
X057945Y027354D01*
X057935Y027368D01*
X057928Y027384D01*
X057924Y027401D01*
X057922Y027418D01*
X057922Y030118D01*
X057924Y030135D01*
X057928Y030152D01*
X057935Y030168D01*
X057945Y030182D01*
X057958Y030195D01*
X057972Y030205D01*
X057988Y030212D01*
X058005Y030216D01*
X058022Y030218D01*
X058822Y030218D01*
X058839Y030216D01*
X058856Y030212D01*
X058872Y030205D01*
X058886Y030195D01*
X058899Y030182D01*
X058909Y030168D01*
X058916Y030152D01*
X058920Y030135D01*
X058922Y030118D01*
X058422Y029368D02*
X058422Y028898D01*
X058422Y028648D02*
X058422Y028168D01*
X059420Y025997D02*
X059420Y025247D01*
X059459Y025245D01*
X059498Y025239D01*
X059536Y025230D01*
X059573Y025217D01*
X059609Y025200D01*
X059642Y025180D01*
X059674Y025156D01*
X059703Y025130D01*
X059729Y025101D01*
X059753Y025069D01*
X059773Y025036D01*
X059790Y025000D01*
X059803Y024963D01*
X059812Y024925D01*
X059818Y024886D01*
X059820Y024847D01*
X059818Y024808D01*
X059812Y024769D01*
X059803Y024731D01*
X059790Y024694D01*
X059773Y024658D01*
X059753Y024625D01*
X059729Y024593D01*
X059703Y024564D01*
X059674Y024538D01*
X059642Y024514D01*
X059609Y024494D01*
X059573Y024477D01*
X059536Y024464D01*
X059498Y024455D01*
X059459Y024449D01*
X059420Y024447D01*
X059420Y023697D01*
X062420Y023697D01*
X062420Y025997D01*
X059420Y025997D01*
X057420Y025997D02*
X057420Y023697D01*
X054420Y023697D01*
X054420Y024447D01*
X054459Y024449D01*
X054498Y024455D01*
X054536Y024464D01*
X054573Y024477D01*
X054609Y024494D01*
X054642Y024514D01*
X054674Y024538D01*
X054703Y024564D01*
X054729Y024593D01*
X054753Y024625D01*
X054773Y024658D01*
X054790Y024694D01*
X054803Y024731D01*
X054812Y024769D01*
X054818Y024808D01*
X054820Y024847D01*
X054818Y024886D01*
X054812Y024925D01*
X054803Y024963D01*
X054790Y025000D01*
X054773Y025036D01*
X054753Y025069D01*
X054729Y025101D01*
X054703Y025130D01*
X054674Y025156D01*
X054642Y025180D01*
X054609Y025200D01*
X054573Y025217D01*
X054536Y025230D01*
X054498Y025239D01*
X054459Y025245D01*
X054420Y025247D01*
X054420Y025997D01*
X057420Y025997D01*
X053518Y028168D02*
X053518Y028648D01*
X053518Y028898D02*
X053518Y029368D01*
X052420Y025997D02*
X049420Y025997D01*
X049420Y025247D01*
X049459Y025245D01*
X049498Y025239D01*
X049536Y025230D01*
X049573Y025217D01*
X049609Y025200D01*
X049642Y025180D01*
X049674Y025156D01*
X049703Y025130D01*
X049729Y025101D01*
X049753Y025069D01*
X049773Y025036D01*
X049790Y025000D01*
X049803Y024963D01*
X049812Y024925D01*
X049818Y024886D01*
X049820Y024847D01*
X049818Y024808D01*
X049812Y024769D01*
X049803Y024731D01*
X049790Y024694D01*
X049773Y024658D01*
X049753Y024625D01*
X049729Y024593D01*
X049703Y024564D01*
X049674Y024538D01*
X049642Y024514D01*
X049609Y024494D01*
X049573Y024477D01*
X049536Y024464D01*
X049498Y024455D01*
X049459Y024449D01*
X049420Y024447D01*
X049420Y023697D01*
X052420Y023697D01*
X052420Y025997D01*
D16*
X051472Y026964D02*
X051397Y026889D01*
X051247Y026889D01*
X051172Y026964D01*
X051012Y026889D02*
X050711Y026889D01*
X050862Y026889D02*
X050862Y027340D01*
X050711Y027190D01*
X050551Y027265D02*
X050476Y027340D01*
X050326Y027340D01*
X050251Y027265D01*
X050251Y026964D01*
X050326Y026889D01*
X050476Y026889D01*
X050551Y026964D01*
X050094Y026889D02*
X049944Y026889D01*
X050019Y026889D02*
X050019Y027340D01*
X049944Y027340D02*
X050094Y027340D01*
X051172Y027265D02*
X051247Y027340D01*
X051397Y027340D01*
X051472Y027265D01*
X051472Y027190D01*
X051397Y027115D01*
X051472Y027040D01*
X051472Y026964D01*
X051397Y027115D02*
X051322Y027115D01*
X052393Y027518D02*
X052468Y027443D01*
X052768Y027443D01*
X052843Y027518D01*
X052843Y027668D01*
X052768Y027743D01*
X052843Y027903D02*
X052843Y028204D01*
X052843Y028054D02*
X052393Y028054D01*
X052543Y027903D01*
X052468Y027743D02*
X052393Y027668D01*
X052393Y027518D01*
X052468Y028364D02*
X052543Y028364D01*
X052618Y028439D01*
X052618Y028664D01*
X052768Y028664D02*
X052468Y028664D01*
X052393Y028589D01*
X052393Y028439D01*
X052468Y028364D01*
X052768Y028364D02*
X052843Y028439D01*
X052843Y028589D01*
X052768Y028664D01*
X054944Y027340D02*
X055094Y027340D01*
X055019Y027340D02*
X055019Y026889D01*
X054944Y026889D02*
X055094Y026889D01*
X055251Y026964D02*
X055326Y026889D01*
X055476Y026889D01*
X055551Y026964D01*
X055711Y026889D02*
X056012Y026889D01*
X055862Y026889D02*
X055862Y027340D01*
X055711Y027190D01*
X055551Y027265D02*
X055476Y027340D01*
X055326Y027340D01*
X055251Y027265D01*
X055251Y026964D01*
X056172Y026964D02*
X056247Y026889D01*
X056397Y026889D01*
X056472Y026964D01*
X056472Y027040D01*
X056397Y027115D01*
X056172Y027115D01*
X056172Y026964D01*
X056172Y027115D02*
X056322Y027265D01*
X056472Y027340D01*
X057297Y027518D02*
X057372Y027443D01*
X057672Y027443D01*
X057747Y027518D01*
X057747Y027668D01*
X057672Y027743D01*
X057747Y027903D02*
X057447Y028204D01*
X057372Y028204D01*
X057297Y028129D01*
X057297Y027978D01*
X057372Y027903D01*
X057372Y027743D02*
X057297Y027668D01*
X057297Y027518D01*
X057747Y027903D02*
X057747Y028204D01*
X057747Y028364D02*
X057747Y028664D01*
X057747Y028514D02*
X057297Y028514D01*
X057447Y028364D01*
X059944Y027340D02*
X060094Y027340D01*
X060019Y027340D02*
X060019Y026889D01*
X059944Y026889D02*
X060094Y026889D01*
X060251Y026964D02*
X060326Y026889D01*
X060476Y026889D01*
X060551Y026964D01*
X060711Y026889D02*
X061012Y026889D01*
X060862Y026889D02*
X060862Y027340D01*
X060711Y027190D01*
X060551Y027265D02*
X060476Y027340D01*
X060326Y027340D01*
X060251Y027265D01*
X060251Y026964D01*
X061172Y026964D02*
X061172Y027040D01*
X061247Y027115D01*
X061397Y027115D01*
X061472Y027040D01*
X061472Y026964D01*
X061397Y026889D01*
X061247Y026889D01*
X061172Y026964D01*
X061247Y027115D02*
X061172Y027190D01*
X061172Y027265D01*
X061247Y027340D01*
X061397Y027340D01*
X061472Y027265D01*
X061472Y027190D01*
X061397Y027115D01*
X060687Y032349D02*
X060537Y032349D01*
X060462Y032424D01*
X060462Y032574D02*
X060612Y032649D01*
X060687Y032649D01*
X060762Y032574D01*
X060762Y032424D01*
X060687Y032349D01*
X060462Y032574D02*
X060462Y032799D01*
X060762Y032799D01*
X060151Y032799D02*
X060151Y032349D01*
X060001Y032349D02*
X060302Y032349D01*
X060001Y032649D02*
X060151Y032799D01*
X059841Y032799D02*
X059541Y032799D01*
X059691Y032799D02*
X059691Y032349D01*
X055737Y032424D02*
X055662Y032349D01*
X055512Y032349D01*
X055437Y032424D01*
X055277Y032349D02*
X054977Y032349D01*
X055127Y032349D02*
X055127Y032799D01*
X054977Y032649D01*
X054817Y032799D02*
X054516Y032799D01*
X054667Y032799D02*
X054667Y032349D01*
X055437Y032724D02*
X055512Y032799D01*
X055662Y032799D01*
X055737Y032724D01*
X055737Y032649D01*
X055662Y032574D01*
X055737Y032499D01*
X055737Y032424D01*
X055662Y032574D02*
X055587Y032574D01*
X050787Y032349D02*
X050486Y032349D01*
X050636Y032349D02*
X050636Y032799D01*
X050486Y032649D01*
X050326Y032349D02*
X050026Y032349D01*
X050176Y032349D02*
X050176Y032799D01*
X050026Y032649D01*
X049866Y032799D02*
X049566Y032799D01*
X049716Y032799D02*
X049716Y032349D01*
X045351Y032424D02*
X045351Y032724D01*
X045276Y032799D01*
X045126Y032799D01*
X045050Y032724D01*
X045050Y032649D01*
X045126Y032574D01*
X045351Y032574D01*
X045351Y032424D02*
X045276Y032349D01*
X045126Y032349D01*
X045050Y032424D01*
X044740Y032349D02*
X044740Y032799D01*
X044590Y032799D02*
X044890Y032799D01*
X040326Y032799D02*
X040326Y032724D01*
X040026Y032424D01*
X040026Y032349D01*
X039716Y032349D02*
X039716Y032799D01*
X039566Y032799D02*
X039866Y032799D01*
X040026Y032799D02*
X040326Y032799D01*
X035375Y032824D02*
X035075Y032824D01*
X035075Y032599D01*
X035225Y032674D01*
X035300Y032674D01*
X035375Y032599D01*
X035375Y032449D01*
X035300Y032374D01*
X035150Y032374D01*
X035075Y032449D01*
X034765Y032374D02*
X034765Y032824D01*
X034615Y032824D02*
X034915Y032824D01*
X030302Y032749D02*
X030302Y032674D01*
X030227Y032599D01*
X030302Y032524D01*
X030302Y032449D01*
X030227Y032374D01*
X030076Y032374D01*
X030001Y032449D01*
X030151Y032599D02*
X030227Y032599D01*
X030302Y032749D02*
X030227Y032824D01*
X030076Y032824D01*
X030001Y032749D01*
X029841Y032824D02*
X029541Y032824D01*
X029691Y032824D02*
X029691Y032374D01*
X025351Y032374D02*
X025051Y032374D01*
X025201Y032374D02*
X025201Y032824D01*
X025051Y032674D01*
X024890Y032824D02*
X024590Y032824D01*
X024740Y032824D02*
X024740Y032374D01*
X022748Y028204D02*
X022748Y027903D01*
X022447Y028204D01*
X022372Y028204D01*
X022297Y028129D01*
X022297Y027978D01*
X022372Y027903D01*
X022372Y027743D02*
X022297Y027668D01*
X022297Y027518D01*
X022372Y027443D01*
X022673Y027443D01*
X022748Y027518D01*
X022748Y027668D01*
X022673Y027743D01*
X024943Y027407D02*
X025093Y027407D01*
X025018Y027407D02*
X025018Y026956D01*
X024943Y026956D02*
X025093Y026956D01*
X025250Y027031D02*
X025325Y026956D01*
X025475Y026956D01*
X025550Y027031D01*
X025710Y026956D02*
X026010Y026956D01*
X025860Y026956D02*
X025860Y027407D01*
X025710Y027257D01*
X025550Y027332D02*
X025475Y027407D01*
X025325Y027407D01*
X025250Y027332D01*
X025250Y027031D01*
X027309Y027518D02*
X027384Y027443D01*
X027684Y027443D01*
X027759Y027518D01*
X027759Y027668D01*
X027684Y027743D01*
X027534Y027903D02*
X027534Y028204D01*
X027759Y028129D02*
X027309Y028129D01*
X027534Y027903D01*
X027384Y027743D02*
X027309Y027668D01*
X027309Y027518D01*
X029905Y027340D02*
X030055Y027340D01*
X029980Y027340D02*
X029980Y026889D01*
X029905Y026889D02*
X030055Y026889D01*
X030212Y026964D02*
X030287Y026889D01*
X030437Y026889D01*
X030512Y026964D01*
X030672Y026964D02*
X030747Y026889D01*
X030897Y026889D01*
X030972Y026964D01*
X030972Y027040D01*
X030897Y027115D01*
X030822Y027115D01*
X030897Y027115D02*
X030972Y027190D01*
X030972Y027265D01*
X030897Y027340D01*
X030747Y027340D01*
X030672Y027265D01*
X030512Y027265D02*
X030437Y027340D01*
X030287Y027340D01*
X030212Y027265D01*
X030212Y026964D01*
X032313Y027518D02*
X032388Y027443D01*
X032688Y027443D01*
X032763Y027518D01*
X032763Y027668D01*
X032688Y027743D01*
X032688Y027903D02*
X032763Y027978D01*
X032763Y028129D01*
X032688Y028204D01*
X032388Y028204D01*
X032313Y028129D01*
X032313Y027978D01*
X032388Y027903D01*
X032463Y027903D01*
X032538Y027978D01*
X032538Y028204D01*
X032388Y027743D02*
X032313Y027668D01*
X032313Y027518D01*
X035155Y027340D02*
X035305Y027340D01*
X035230Y027340D02*
X035230Y026889D01*
X035155Y026889D02*
X035305Y026889D01*
X035462Y026964D02*
X035537Y026889D01*
X035687Y026889D01*
X035762Y026964D01*
X035922Y026964D02*
X035997Y026889D01*
X036147Y026889D01*
X036222Y026964D01*
X036222Y027040D01*
X036147Y027115D01*
X035922Y027115D01*
X035922Y026964D01*
X035922Y027115D02*
X036072Y027265D01*
X036222Y027340D01*
X035762Y027265D02*
X035687Y027340D01*
X035537Y027340D01*
X035462Y027265D01*
X035462Y026964D01*
X037289Y027518D02*
X037364Y027443D01*
X037664Y027443D01*
X037739Y027518D01*
X037739Y027668D01*
X037664Y027743D01*
X037739Y027903D02*
X037739Y028204D01*
X037739Y028054D02*
X037289Y028054D01*
X037439Y027903D01*
X037364Y027743D02*
X037289Y027668D01*
X037289Y027518D01*
X037364Y028364D02*
X037289Y028439D01*
X037289Y028589D01*
X037364Y028664D01*
X037439Y028664D01*
X037739Y028364D01*
X037739Y028664D01*
X040428Y027460D02*
X040578Y027460D01*
X040503Y027460D02*
X040503Y027009D01*
X040428Y027009D02*
X040578Y027009D01*
X040735Y027084D02*
X040810Y027009D01*
X040960Y027009D01*
X041035Y027084D01*
X041195Y027084D02*
X041270Y027009D01*
X041420Y027009D01*
X041495Y027084D01*
X041495Y027385D01*
X041420Y027460D01*
X041270Y027460D01*
X041195Y027385D01*
X041195Y027310D01*
X041270Y027235D01*
X041495Y027235D01*
X041035Y027385D02*
X040960Y027460D01*
X040810Y027460D01*
X040735Y027385D01*
X040735Y027084D01*
X042390Y027518D02*
X042465Y027443D01*
X042765Y027443D01*
X042840Y027518D01*
X042840Y027668D01*
X042765Y027743D01*
X042840Y027903D02*
X042840Y028204D01*
X042840Y028054D02*
X042390Y028054D01*
X042540Y027903D01*
X042465Y027743D02*
X042390Y027668D01*
X042390Y027518D01*
X042615Y028364D02*
X042615Y028664D01*
X042840Y028589D02*
X042390Y028589D01*
X042615Y028364D01*
X044944Y027340D02*
X045094Y027340D01*
X045019Y027340D02*
X045019Y026889D01*
X044944Y026889D02*
X045094Y026889D01*
X045251Y026964D02*
X045326Y026889D01*
X045476Y026889D01*
X045551Y026964D01*
X045711Y026889D02*
X046012Y026889D01*
X045862Y026889D02*
X045862Y027340D01*
X045711Y027190D01*
X045551Y027265D02*
X045476Y027340D01*
X045326Y027340D01*
X045251Y027265D01*
X045251Y026964D01*
X046172Y026889D02*
X046472Y026889D01*
X046322Y026889D02*
X046322Y027340D01*
X046172Y027190D01*
X047414Y027518D02*
X047489Y027443D01*
X047790Y027443D01*
X047865Y027518D01*
X047865Y027668D01*
X047790Y027743D01*
X047865Y027903D02*
X047865Y028204D01*
X047865Y028054D02*
X047414Y028054D01*
X047564Y027903D01*
X047489Y027743D02*
X047414Y027668D01*
X047414Y027518D01*
X047414Y028364D02*
X047414Y028664D01*
X047489Y028664D01*
X047790Y028364D01*
X047865Y028364D01*
X048461Y018675D02*
X048611Y018675D01*
X048536Y018675D02*
X048536Y018224D01*
X048461Y018224D02*
X048611Y018224D01*
X048768Y018299D02*
X048843Y018224D01*
X048993Y018224D01*
X049068Y018299D01*
X049228Y018299D02*
X049228Y018224D01*
X049228Y018299D02*
X049528Y018600D01*
X049528Y018675D01*
X049228Y018675D01*
X049068Y018600D02*
X048993Y018675D01*
X048843Y018675D01*
X048768Y018600D01*
X048768Y018299D01*
X044739Y018299D02*
X044664Y018224D01*
X044514Y018224D01*
X044438Y018299D01*
X044739Y018600D01*
X044739Y018299D01*
X044438Y018299D02*
X044438Y018600D01*
X044514Y018675D01*
X044664Y018675D01*
X044739Y018600D01*
X044278Y018224D02*
X043978Y018224D01*
X044128Y018224D02*
X044128Y018675D01*
X043978Y018525D01*
X043818Y018600D02*
X043743Y018675D01*
X043593Y018675D01*
X043518Y018600D01*
X043518Y018299D01*
X043593Y018224D01*
X043743Y018224D01*
X043818Y018299D01*
X043361Y018224D02*
X043211Y018224D01*
X043286Y018224D02*
X043286Y018675D01*
X043211Y018675D02*
X043361Y018675D01*
X039739Y018600D02*
X039664Y018675D01*
X039514Y018675D01*
X039438Y018600D01*
X039739Y018600D02*
X039739Y018525D01*
X039438Y018224D01*
X039739Y018224D01*
X039278Y018224D02*
X038978Y018224D01*
X039128Y018224D02*
X039128Y018675D01*
X038978Y018525D01*
X038818Y018600D02*
X038743Y018675D01*
X038593Y018675D01*
X038518Y018600D01*
X038518Y018299D01*
X038593Y018224D01*
X038743Y018224D01*
X038818Y018299D01*
X038361Y018224D02*
X038211Y018224D01*
X038286Y018224D02*
X038286Y018675D01*
X038211Y018675D02*
X038361Y018675D01*
X034739Y018450D02*
X034438Y018450D01*
X034664Y018675D01*
X034664Y018224D01*
X034278Y018224D02*
X033978Y018224D01*
X034128Y018224D02*
X034128Y018675D01*
X033978Y018525D01*
X033818Y018600D02*
X033743Y018675D01*
X033593Y018675D01*
X033518Y018600D01*
X033518Y018299D01*
X033593Y018224D01*
X033743Y018224D01*
X033818Y018299D01*
X033361Y018224D02*
X033211Y018224D01*
X033286Y018224D02*
X033286Y018675D01*
X033211Y018675D02*
X033361Y018675D01*
X029739Y018675D02*
X029739Y018600D01*
X029438Y018299D01*
X029438Y018224D01*
X029278Y018224D02*
X028978Y018224D01*
X029128Y018224D02*
X029128Y018675D01*
X028978Y018525D01*
X028818Y018600D02*
X028743Y018675D01*
X028593Y018675D01*
X028518Y018600D01*
X028518Y018299D01*
X028593Y018224D01*
X028743Y018224D01*
X028818Y018299D01*
X028361Y018224D02*
X028211Y018224D01*
X028286Y018224D02*
X028286Y018675D01*
X028211Y018675D02*
X028361Y018675D01*
X029438Y018675D02*
X029739Y018675D01*
X024739Y018600D02*
X024739Y018299D01*
X024664Y018224D01*
X024514Y018224D01*
X024438Y018299D01*
X024514Y018450D02*
X024739Y018450D01*
X024739Y018600D02*
X024664Y018675D01*
X024514Y018675D01*
X024438Y018600D01*
X024438Y018525D01*
X024514Y018450D01*
X024278Y018224D02*
X023978Y018224D01*
X024128Y018224D02*
X024128Y018675D01*
X023978Y018525D01*
X023818Y018600D02*
X023743Y018675D01*
X023593Y018675D01*
X023518Y018600D01*
X023518Y018299D01*
X023593Y018224D01*
X023743Y018224D01*
X023818Y018299D01*
X023361Y018224D02*
X023211Y018224D01*
X023286Y018224D02*
X023286Y018675D01*
X023211Y018675D02*
X023361Y018675D01*
X020101Y015741D02*
X020101Y015290D01*
X019951Y015290D02*
X020251Y015290D01*
X019951Y015590D02*
X020101Y015741D01*
X019791Y015665D02*
X019791Y015365D01*
X019716Y015290D01*
X019566Y015290D01*
X019491Y015365D01*
X019491Y015665D01*
X019566Y015741D01*
X019716Y015741D01*
X019791Y015665D01*
X019641Y015440D02*
X019791Y015290D01*
X025246Y012158D02*
X025246Y012008D01*
X025321Y011933D01*
X025321Y011773D02*
X025246Y011698D01*
X025246Y011548D01*
X025321Y011473D01*
X025321Y011313D02*
X025246Y011238D01*
X025246Y011087D01*
X025321Y011012D01*
X025622Y011012D01*
X025697Y011087D01*
X025697Y011238D01*
X025622Y011313D01*
X025697Y011473D02*
X025396Y011773D01*
X025321Y011773D01*
X025697Y011773D02*
X025697Y011473D01*
X025697Y011933D02*
X025396Y012233D01*
X025321Y012233D01*
X025246Y012158D01*
X025697Y012233D02*
X025697Y011933D01*
X030123Y011948D02*
X030123Y011798D01*
X030198Y011723D01*
X030198Y011563D02*
X030123Y011488D01*
X030123Y011337D01*
X030198Y011262D01*
X030498Y011262D01*
X030573Y011337D01*
X030573Y011488D01*
X030498Y011563D01*
X030573Y011723D02*
X030273Y012023D01*
X030198Y012023D01*
X030123Y011948D01*
X030198Y012183D02*
X030123Y012258D01*
X030123Y012408D01*
X030198Y012483D01*
X030498Y012183D01*
X030573Y012258D01*
X030573Y012408D01*
X030498Y012483D01*
X030198Y012483D01*
X030198Y012183D02*
X030498Y012183D01*
X030573Y012023D02*
X030573Y011723D01*
X035125Y011873D02*
X035576Y011873D01*
X035576Y011723D02*
X035576Y012023D01*
X035501Y012183D02*
X035426Y012183D01*
X035350Y012258D01*
X035350Y012408D01*
X035426Y012483D01*
X035501Y012483D01*
X035576Y012408D01*
X035576Y012258D01*
X035501Y012183D01*
X035350Y012258D02*
X035275Y012183D01*
X035200Y012183D01*
X035125Y012258D01*
X035125Y012408D01*
X035200Y012483D01*
X035275Y012483D01*
X035350Y012408D01*
X035125Y011873D02*
X035275Y011723D01*
X035200Y011563D02*
X035125Y011488D01*
X035125Y011337D01*
X035200Y011262D01*
X035501Y011262D01*
X035576Y011337D01*
X035576Y011488D01*
X035501Y011563D01*
X040121Y011488D02*
X040121Y011337D01*
X040196Y011262D01*
X040496Y011262D01*
X040571Y011337D01*
X040571Y011488D01*
X040496Y011563D01*
X040571Y011723D02*
X040571Y012023D01*
X040571Y011873D02*
X040121Y011873D01*
X040271Y011723D01*
X040196Y011563D02*
X040121Y011488D01*
X040121Y012183D02*
X040346Y012183D01*
X040271Y012333D01*
X040271Y012408D01*
X040346Y012483D01*
X040496Y012483D01*
X040571Y012408D01*
X040571Y012258D01*
X040496Y012183D01*
X040121Y012183D02*
X040121Y012483D01*
X045124Y012408D02*
X045200Y012483D01*
X045275Y012483D01*
X045350Y012408D01*
X045425Y012483D01*
X045500Y012483D01*
X045575Y012408D01*
X045575Y012258D01*
X045500Y012183D01*
X045575Y012023D02*
X045575Y011723D01*
X045575Y011873D02*
X045124Y011873D01*
X045275Y011723D01*
X045200Y011563D02*
X045124Y011488D01*
X045124Y011337D01*
X045200Y011262D01*
X045500Y011262D01*
X045575Y011337D01*
X045575Y011488D01*
X045500Y011563D01*
X045200Y012183D02*
X045124Y012258D01*
X045124Y012408D01*
X045350Y012408D02*
X045350Y012333D01*
X050121Y012258D02*
X050121Y012408D01*
X050196Y012483D01*
X050497Y012183D01*
X050572Y012258D01*
X050572Y012408D01*
X050497Y012483D01*
X050196Y012483D01*
X050121Y012258D02*
X050196Y012183D01*
X050497Y012183D01*
X050572Y012023D02*
X050572Y011723D01*
X050572Y011873D02*
X050121Y011873D01*
X050272Y011723D01*
X050196Y011563D02*
X050121Y011488D01*
X050121Y011337D01*
X050196Y011262D01*
X050497Y011262D01*
X050572Y011337D01*
X050572Y011488D01*
X050497Y011563D01*
X055115Y011548D02*
X055190Y011473D01*
X055490Y011473D01*
X055565Y011548D01*
X055565Y011698D01*
X055490Y011773D01*
X055490Y011933D02*
X055565Y012008D01*
X055565Y012158D01*
X055490Y012233D01*
X055340Y012233D01*
X055265Y012158D01*
X055265Y012083D01*
X055340Y011933D01*
X055115Y011933D01*
X055115Y012233D01*
X055190Y011773D02*
X055115Y011698D01*
X055115Y011548D01*
X054845Y008324D02*
X054620Y008099D01*
X054920Y008099D01*
X054845Y007874D02*
X054845Y008324D01*
X054460Y008324D02*
X054159Y008324D01*
X054309Y008324D02*
X054309Y007874D01*
X049920Y007949D02*
X049920Y008024D01*
X049845Y008099D01*
X049620Y008099D01*
X049620Y007949D01*
X049695Y007874D01*
X049845Y007874D01*
X049920Y007949D01*
X049770Y008249D02*
X049620Y008099D01*
X049770Y008249D02*
X049920Y008324D01*
X049460Y008324D02*
X049159Y008324D01*
X049309Y008324D02*
X049309Y007874D01*
X044920Y007949D02*
X044845Y007874D01*
X044695Y007874D01*
X044620Y007949D01*
X044620Y008024D01*
X044695Y008099D01*
X044845Y008099D01*
X044920Y008024D01*
X044920Y007949D01*
X044845Y008099D02*
X044920Y008174D01*
X044920Y008249D01*
X044845Y008324D01*
X044695Y008324D01*
X044620Y008249D01*
X044620Y008174D01*
X044695Y008099D01*
X044460Y008324D02*
X044159Y008324D01*
X044309Y008324D02*
X044309Y007874D01*
X040170Y007949D02*
X040095Y007874D01*
X039945Y007874D01*
X039870Y007949D01*
X040170Y008249D01*
X040170Y007949D01*
X040170Y008249D02*
X040095Y008324D01*
X039945Y008324D01*
X039870Y008249D01*
X039870Y007949D01*
X039710Y007874D02*
X039409Y007874D01*
X039559Y007874D02*
X039559Y008324D01*
X039409Y008174D01*
X039249Y008324D02*
X038949Y008324D01*
X039099Y008324D02*
X039099Y007874D01*
X035170Y007874D02*
X034870Y007874D01*
X035170Y008174D01*
X035170Y008249D01*
X035095Y008324D01*
X034945Y008324D01*
X034870Y008249D01*
X034559Y008324D02*
X034559Y007874D01*
X034409Y007874D02*
X034710Y007874D01*
X034409Y008174D02*
X034559Y008324D01*
X034249Y008324D02*
X033949Y008324D01*
X034099Y008324D02*
X034099Y007874D01*
X030170Y008099D02*
X029870Y008099D01*
X030095Y008324D01*
X030095Y007874D01*
X029710Y007874D02*
X029409Y007874D01*
X029559Y007874D02*
X029559Y008324D01*
X029409Y008174D01*
X029249Y008324D02*
X028949Y008324D01*
X029099Y008324D02*
X029099Y007874D01*
X025170Y007949D02*
X025170Y008024D01*
X025095Y008099D01*
X024870Y008099D01*
X024870Y007949D01*
X024945Y007874D01*
X025095Y007874D01*
X025170Y007949D01*
X025020Y008249D02*
X024870Y008099D01*
X025020Y008249D02*
X025170Y008324D01*
X024559Y008324D02*
X024559Y007874D01*
X024409Y007874D02*
X024710Y007874D01*
X024409Y008174D02*
X024559Y008324D01*
X024249Y008324D02*
X023949Y008324D01*
X024099Y008324D02*
X024099Y007874D01*
X032791Y002656D02*
X033241Y002656D01*
X033241Y002506D02*
X033241Y002806D01*
X032941Y002506D02*
X032791Y002656D01*
X032866Y002346D02*
X032791Y002271D01*
X032791Y002045D01*
X033241Y002045D01*
X033241Y002271D01*
X033166Y002346D01*
X032866Y002346D01*
X053461Y018224D02*
X053611Y018224D01*
X053536Y018224D02*
X053536Y018675D01*
X053461Y018675D02*
X053611Y018675D01*
X053768Y018600D02*
X053768Y018299D01*
X053843Y018224D01*
X053993Y018224D01*
X054068Y018299D01*
X054228Y018450D02*
X054528Y018450D01*
X054453Y018675D02*
X054228Y018450D01*
X054068Y018600D02*
X053993Y018675D01*
X053843Y018675D01*
X053768Y018600D01*
X054453Y018675D02*
X054453Y018224D01*
X058461Y018224D02*
X058611Y018224D01*
X058536Y018224D02*
X058536Y018675D01*
X058461Y018675D02*
X058611Y018675D01*
X058768Y018600D02*
X058768Y018299D01*
X058843Y018224D01*
X058993Y018224D01*
X059068Y018299D01*
X059228Y018224D02*
X059528Y018525D01*
X059528Y018600D01*
X059453Y018675D01*
X059303Y018675D01*
X059228Y018600D01*
X059068Y018600D02*
X058993Y018675D01*
X058843Y018675D01*
X058768Y018600D01*
X059228Y018224D02*
X059528Y018224D01*
X060215Y012233D02*
X060140Y012158D01*
X060140Y012008D01*
X060215Y011933D01*
X060215Y011773D02*
X060140Y011698D01*
X060140Y011548D01*
X060215Y011473D01*
X060516Y011473D01*
X060591Y011548D01*
X060591Y011698D01*
X060516Y011773D01*
X060516Y011933D02*
X060591Y012008D01*
X060591Y012158D01*
X060516Y012233D01*
X060441Y012233D01*
X060366Y012158D01*
X060366Y012083D01*
X060366Y012158D02*
X060291Y012233D01*
X060215Y012233D01*
X059845Y008324D02*
X059695Y008324D01*
X059620Y008249D01*
X059460Y008324D02*
X059159Y008324D01*
X059309Y008324D02*
X059309Y007874D01*
X059620Y007874D02*
X059920Y008174D01*
X059920Y008249D01*
X059845Y008324D01*
X059920Y007874D02*
X059620Y007874D01*
X013649Y028318D02*
X013649Y028468D01*
X013649Y028393D02*
X013198Y028393D01*
X013198Y028318D02*
X013198Y028468D01*
X013273Y028625D02*
X013574Y028625D01*
X013649Y028700D01*
X013649Y028850D01*
X013574Y028925D01*
X013574Y029085D02*
X013649Y029160D01*
X013649Y029311D01*
X013574Y029386D01*
X013424Y029386D01*
X013349Y029311D01*
X013349Y029236D01*
X013424Y029085D01*
X013198Y029085D01*
X013198Y029386D01*
X013273Y028925D02*
X013198Y028850D01*
X013198Y028700D01*
X013273Y028625D01*
X009711Y027060D02*
X009411Y027060D01*
X009411Y026835D01*
X009561Y026910D01*
X009636Y026910D01*
X009711Y026835D01*
X009711Y026685D01*
X009636Y026610D01*
X009486Y026610D01*
X009411Y026685D01*
X009251Y026610D02*
X008951Y026610D01*
X009251Y026910D01*
X009251Y026985D01*
X009176Y027060D01*
X009026Y027060D01*
X008951Y026985D01*
X008791Y026985D02*
X008716Y027060D01*
X008566Y027060D01*
X008490Y026985D01*
X008490Y026685D01*
X008566Y026610D01*
X008716Y026610D01*
X008791Y026685D01*
X008887Y030052D02*
X009188Y030352D01*
X009188Y030427D01*
X009112Y030502D01*
X008962Y030502D01*
X008887Y030427D01*
X008727Y030427D02*
X008652Y030502D01*
X008502Y030502D01*
X008427Y030427D01*
X008427Y030127D01*
X008502Y030052D01*
X008652Y030052D01*
X008727Y030127D01*
X008887Y030052D02*
X009188Y030052D01*
X009348Y030052D02*
X009648Y030052D01*
X009498Y030052D02*
X009498Y030502D01*
X009348Y030352D01*
X008270Y030502D02*
X008120Y030502D01*
X008195Y030502D02*
X008195Y030052D01*
X008120Y030052D02*
X008270Y030052D01*
D17*
X008831Y029000D02*
X008755Y028923D01*
X008755Y028616D01*
X008831Y028540D01*
X008985Y028540D01*
X009062Y028616D01*
X009215Y028540D02*
X009522Y028847D01*
X009522Y028923D01*
X009445Y029000D01*
X009292Y029000D01*
X009215Y028923D01*
X009062Y028923D02*
X008985Y029000D01*
X008831Y029000D01*
X009215Y028540D02*
X009522Y028540D01*
X009676Y028616D02*
X009752Y028540D01*
X009906Y028540D01*
X009982Y028616D01*
X009982Y028693D01*
X009906Y028770D01*
X009829Y028770D01*
X009906Y028770D02*
X009982Y028847D01*
X009982Y028923D01*
X009906Y029000D01*
X009752Y029000D01*
X009676Y028923D01*
X010044Y028921D02*
X010044Y028614D01*
X010120Y028537D01*
X010274Y028537D01*
X010351Y028614D01*
X010504Y028537D02*
X010811Y028844D01*
X010811Y028921D01*
X010734Y028998D01*
X010581Y028998D01*
X010504Y028921D01*
X010351Y028921D02*
X010274Y028998D01*
X010120Y028998D01*
X010044Y028921D01*
X010504Y028537D02*
X010811Y028537D01*
X010964Y028767D02*
X011271Y028767D01*
X011194Y028537D02*
X011194Y028998D01*
X010964Y028767D01*
X015164Y026289D02*
X015164Y025982D01*
X015240Y025905D01*
X015394Y025905D01*
X015471Y025982D01*
X015624Y025905D02*
X015931Y025905D01*
X015778Y025905D02*
X015778Y026366D01*
X015624Y026212D01*
X015471Y026289D02*
X015394Y026366D01*
X015240Y026366D01*
X015164Y026289D01*
X016084Y026136D02*
X016084Y025982D01*
X016161Y025905D01*
X016315Y025905D01*
X016391Y025982D01*
X016391Y026059D01*
X016315Y026136D01*
X016084Y026136D01*
X016238Y026289D01*
X016391Y026366D01*
X012335Y023923D02*
X012335Y023846D01*
X012258Y023770D01*
X012335Y023693D01*
X012335Y023616D01*
X012258Y023540D01*
X012105Y023540D01*
X012028Y023616D01*
X011875Y023616D02*
X011875Y023923D01*
X011798Y024000D01*
X011568Y024000D01*
X011568Y023540D01*
X011798Y023540D01*
X011875Y023616D01*
X012182Y023770D02*
X012258Y023770D01*
X012335Y023923D02*
X012258Y024000D01*
X012105Y024000D01*
X012028Y023923D01*
X011414Y024000D02*
X011107Y024000D01*
X011107Y023540D01*
X011414Y023540D01*
X011261Y023770D02*
X011107Y023770D01*
X010954Y023540D02*
X010647Y023540D01*
X010647Y024000D01*
X010242Y023920D02*
X010165Y023997D01*
X010012Y023997D01*
X009935Y023920D01*
X009782Y023920D02*
X009705Y023997D01*
X009475Y023997D01*
X009475Y023537D01*
X009705Y023537D01*
X009782Y023613D01*
X009782Y023920D01*
X009935Y023537D02*
X010242Y023844D01*
X010242Y023920D01*
X010242Y023537D02*
X009935Y023537D01*
X009321Y023537D02*
X009014Y023537D01*
X009014Y023997D01*
X009321Y023997D01*
X009168Y023767D02*
X009014Y023767D01*
X008861Y023537D02*
X008554Y023537D01*
X008554Y023997D01*
X008726Y025027D02*
X008726Y025488D01*
X008956Y025488D01*
X009033Y025411D01*
X009033Y025257D01*
X008956Y025181D01*
X008726Y025181D01*
X008879Y025181D02*
X009033Y025027D01*
X009186Y025104D02*
X009263Y025027D01*
X009416Y025027D01*
X009493Y025104D01*
X009493Y025257D01*
X009416Y025334D01*
X009339Y025334D01*
X009186Y025257D01*
X009186Y025488D01*
X009493Y025488D01*
X009646Y025257D02*
X009953Y025257D01*
X009877Y025027D02*
X009877Y025488D01*
X009646Y025257D01*
X010799Y025218D02*
X011029Y025218D01*
X011106Y025294D01*
X011106Y025448D01*
X011029Y025524D01*
X010799Y025524D01*
X010799Y025064D01*
X010952Y025218D02*
X011106Y025064D01*
X011259Y025141D02*
X011336Y025064D01*
X011489Y025064D01*
X011566Y025141D01*
X011566Y025294D01*
X011489Y025371D01*
X011413Y025371D01*
X011259Y025294D01*
X011259Y025524D01*
X011566Y025524D01*
X011720Y025524D02*
X011720Y025294D01*
X011873Y025371D01*
X011950Y025371D01*
X012027Y025294D01*
X012027Y025141D01*
X011950Y025064D01*
X011796Y025064D01*
X011720Y025141D01*
X011720Y025524D02*
X012027Y025524D01*
X023154Y025555D02*
X023154Y025248D01*
X023384Y025248D01*
X023307Y025402D01*
X023307Y025479D01*
X023384Y025555D01*
X023538Y025555D01*
X023614Y025479D01*
X023614Y025325D01*
X023538Y025248D01*
X023614Y025095D02*
X023461Y024941D01*
X023461Y025018D02*
X023461Y024788D01*
X023614Y024788D02*
X023154Y024788D01*
X023154Y025018D01*
X023231Y025095D01*
X023384Y025095D01*
X023461Y025018D01*
X028179Y024991D02*
X028332Y024837D01*
X028255Y024684D02*
X028409Y024684D01*
X028486Y024607D01*
X028486Y024377D01*
X028639Y024377D02*
X028179Y024377D01*
X028179Y024607D01*
X028255Y024684D01*
X028486Y024530D02*
X028639Y024684D01*
X028639Y024837D02*
X028639Y025144D01*
X028639Y025297D02*
X028639Y025604D01*
X028639Y025451D02*
X028179Y025451D01*
X028332Y025297D01*
X028179Y024991D02*
X028639Y024991D01*
X033179Y024966D02*
X033332Y024813D01*
X033255Y024659D02*
X033409Y024659D01*
X033486Y024582D01*
X033486Y024352D01*
X033639Y024352D02*
X033179Y024352D01*
X033179Y024582D01*
X033255Y024659D01*
X033486Y024506D02*
X033639Y024659D01*
X033639Y024813D02*
X033639Y025119D01*
X033639Y024966D02*
X033179Y024966D01*
X033255Y025273D02*
X033332Y025273D01*
X033409Y025350D01*
X033409Y025503D01*
X033486Y025580D01*
X033562Y025580D01*
X033639Y025503D01*
X033639Y025350D01*
X033562Y025273D01*
X033486Y025273D01*
X033409Y025350D01*
X033409Y025503D02*
X033332Y025580D01*
X033255Y025580D01*
X033179Y025503D01*
X033179Y025350D01*
X033255Y025273D01*
X038188Y025503D02*
X038418Y025273D01*
X038418Y025580D01*
X038648Y025503D02*
X038188Y025503D01*
X038264Y025119D02*
X038188Y025043D01*
X038188Y024889D01*
X038264Y024813D01*
X038264Y024659D02*
X038418Y024659D01*
X038495Y024582D01*
X038495Y024352D01*
X038648Y024352D02*
X038188Y024352D01*
X038188Y024582D01*
X038264Y024659D01*
X038495Y024506D02*
X038648Y024659D01*
X038648Y024813D02*
X038341Y025119D01*
X038264Y025119D01*
X038648Y025119D02*
X038648Y024813D01*
X043261Y024914D02*
X043338Y024837D01*
X043261Y024914D02*
X043261Y025067D01*
X043338Y025144D01*
X043415Y025144D01*
X043492Y025067D01*
X043568Y025144D01*
X043645Y025144D01*
X043722Y025067D01*
X043722Y024914D01*
X043645Y024837D01*
X043722Y024684D02*
X043568Y024530D01*
X043568Y024607D02*
X043568Y024377D01*
X043722Y024377D02*
X043261Y024377D01*
X043261Y024607D01*
X043338Y024684D01*
X043492Y024684D01*
X043568Y024607D01*
X043492Y024991D02*
X043492Y025067D01*
X043415Y025297D02*
X043261Y025451D01*
X043722Y025451D01*
X043722Y025604D02*
X043722Y025297D01*
X048297Y025157D02*
X048297Y025464D01*
X048374Y025464D01*
X048681Y025157D01*
X048757Y025157D01*
X048681Y025003D02*
X048757Y024927D01*
X048757Y024773D01*
X048681Y024696D01*
X048757Y024543D02*
X048604Y024389D01*
X048604Y024466D02*
X048604Y024236D01*
X048757Y024236D02*
X048297Y024236D01*
X048297Y024466D01*
X048374Y024543D01*
X048527Y024543D01*
X048604Y024466D01*
X048374Y024696D02*
X048297Y024773D01*
X048297Y024927D01*
X048374Y025003D01*
X048451Y025003D01*
X048527Y024927D01*
X048604Y025003D01*
X048681Y025003D01*
X048527Y024927D02*
X048527Y024850D01*
X053297Y024927D02*
X053527Y024696D01*
X053527Y025003D01*
X053374Y025157D02*
X053297Y025233D01*
X053297Y025387D01*
X053374Y025464D01*
X053451Y025464D01*
X053527Y025387D01*
X053604Y025464D01*
X053681Y025464D01*
X053757Y025387D01*
X053757Y025233D01*
X053681Y025157D01*
X053527Y025310D02*
X053527Y025387D01*
X053757Y024927D02*
X053297Y024927D01*
X053374Y024543D02*
X053527Y024543D01*
X053604Y024466D01*
X053604Y024236D01*
X053757Y024236D02*
X053297Y024236D01*
X053297Y024466D01*
X053374Y024543D01*
X053604Y024389D02*
X053757Y024543D01*
X058190Y024466D02*
X058266Y024543D01*
X058420Y024543D01*
X058497Y024466D01*
X058497Y024236D01*
X058650Y024236D02*
X058190Y024236D01*
X058190Y024466D01*
X058497Y024389D02*
X058650Y024543D01*
X058420Y024696D02*
X058420Y025003D01*
X058343Y025157D02*
X058420Y025233D01*
X058420Y025464D01*
X058573Y025464D02*
X058266Y025464D01*
X058190Y025387D01*
X058190Y025233D01*
X058266Y025157D01*
X058343Y025157D01*
X058573Y025157D02*
X058650Y025233D01*
X058650Y025387D01*
X058573Y025464D01*
X058650Y024927D02*
X058190Y024927D01*
X058420Y024696D01*
X055573Y015478D02*
X055573Y015171D01*
X055342Y015401D01*
X055803Y015401D01*
X055803Y015018D02*
X055803Y014711D01*
X055803Y014864D02*
X055342Y014864D01*
X055496Y014711D01*
X055573Y014557D02*
X055649Y014481D01*
X055649Y014250D01*
X055803Y014250D02*
X055342Y014250D01*
X055342Y014481D01*
X055419Y014557D01*
X055573Y014557D01*
X055649Y014404D02*
X055803Y014557D01*
X060362Y014481D02*
X060362Y014250D01*
X060823Y014250D01*
X060669Y014250D02*
X060669Y014481D01*
X060593Y014557D01*
X060439Y014557D01*
X060362Y014481D01*
X060439Y014711D02*
X060516Y014711D01*
X060593Y014788D01*
X060593Y014941D01*
X060669Y015018D01*
X060746Y015018D01*
X060823Y014941D01*
X060823Y014788D01*
X060746Y014711D01*
X060669Y014711D01*
X060593Y014788D01*
X060593Y014941D02*
X060516Y015018D01*
X060439Y015018D01*
X060362Y014941D01*
X060362Y014788D01*
X060439Y014711D01*
X060669Y014404D02*
X060823Y014557D01*
X050803Y014557D02*
X050649Y014404D01*
X050649Y014481D02*
X050649Y014250D01*
X050803Y014250D02*
X050342Y014250D01*
X050342Y014481D01*
X050419Y014557D01*
X050573Y014557D01*
X050649Y014481D01*
X050803Y014711D02*
X050496Y015018D01*
X050419Y015018D01*
X050342Y014941D01*
X050342Y014788D01*
X050419Y014711D01*
X050803Y014711D02*
X050803Y015018D01*
X050803Y015171D02*
X050803Y015478D01*
X050803Y015325D02*
X050342Y015325D01*
X050496Y015171D01*
X045803Y015171D02*
X045726Y015171D01*
X045419Y015478D01*
X045342Y015478D01*
X045342Y015171D01*
X045419Y015018D02*
X045342Y014941D01*
X045342Y014788D01*
X045419Y014711D01*
X045419Y014557D02*
X045573Y014557D01*
X045649Y014481D01*
X045649Y014250D01*
X045803Y014250D02*
X045342Y014250D01*
X045342Y014481D01*
X045419Y014557D01*
X045649Y014404D02*
X045803Y014557D01*
X045803Y014711D02*
X045496Y015018D01*
X045419Y015018D01*
X045803Y015018D02*
X045803Y014711D01*
X040803Y014788D02*
X040726Y014711D01*
X040803Y014788D02*
X040803Y014941D01*
X040726Y015018D01*
X040649Y015018D01*
X040573Y014941D01*
X040573Y014864D01*
X040573Y014941D02*
X040496Y015018D01*
X040419Y015018D01*
X040342Y014941D01*
X040342Y014788D01*
X040419Y014711D01*
X040419Y014557D02*
X040573Y014557D01*
X040649Y014481D01*
X040649Y014250D01*
X040803Y014250D02*
X040342Y014250D01*
X040342Y014481D01*
X040419Y014557D01*
X040649Y014404D02*
X040803Y014557D01*
X040573Y015171D02*
X040573Y015478D01*
X040803Y015401D02*
X040342Y015401D01*
X040573Y015171D01*
X035803Y015248D02*
X035726Y015171D01*
X035419Y015478D01*
X035726Y015478D01*
X035803Y015401D01*
X035803Y015248D01*
X035726Y015171D02*
X035419Y015171D01*
X035342Y015248D01*
X035342Y015401D01*
X035419Y015478D01*
X035573Y015018D02*
X035573Y014711D01*
X035342Y014941D01*
X035803Y014941D01*
X035803Y014557D02*
X035649Y014404D01*
X035649Y014481D02*
X035649Y014250D01*
X035803Y014250D02*
X035342Y014250D01*
X035342Y014481D01*
X035419Y014557D01*
X035573Y014557D01*
X035649Y014481D01*
X030803Y014557D02*
X030649Y014404D01*
X030649Y014481D02*
X030649Y014250D01*
X030803Y014250D02*
X030342Y014250D01*
X030342Y014481D01*
X030419Y014557D01*
X030573Y014557D01*
X030649Y014481D01*
X030573Y014711D02*
X030573Y015018D01*
X030573Y015171D02*
X030573Y015401D01*
X030649Y015478D01*
X030726Y015478D01*
X030803Y015401D01*
X030803Y015248D01*
X030726Y015171D01*
X030573Y015171D01*
X030419Y015325D01*
X030342Y015478D01*
X030342Y014941D02*
X030573Y014711D01*
X030803Y014941D02*
X030342Y014941D01*
X026049Y014921D02*
X025742Y015228D01*
X025666Y015228D01*
X025589Y015151D01*
X025589Y014998D01*
X025666Y014921D01*
X025589Y014768D02*
X025589Y014461D01*
X025819Y014461D01*
X025742Y014614D01*
X025742Y014691D01*
X025819Y014768D01*
X025973Y014768D01*
X026049Y014691D01*
X026049Y014538D01*
X025973Y014461D01*
X026049Y014307D02*
X025896Y014154D01*
X025896Y014231D02*
X025896Y014000D01*
X026049Y014000D02*
X025589Y014000D01*
X025589Y014231D01*
X025666Y014307D01*
X025819Y014307D01*
X025896Y014231D01*
X026049Y014921D02*
X026049Y015228D01*
X014696Y015722D02*
X014389Y015722D01*
X014543Y015722D02*
X014543Y016182D01*
X014389Y016029D01*
X014236Y016105D02*
X014236Y015798D01*
X014159Y015722D01*
X013929Y015722D01*
X013929Y016182D01*
X014159Y016182D01*
X014236Y016105D01*
X013775Y016182D02*
X013468Y016182D01*
X013468Y015722D01*
X013775Y015722D01*
X013622Y015952D02*
X013468Y015952D01*
X013315Y015722D02*
X013008Y015722D01*
X013008Y016182D01*
X013055Y014260D02*
X013285Y014260D01*
X013362Y014183D01*
X013362Y014030D01*
X013285Y013953D01*
X013055Y013953D01*
X013055Y013800D02*
X013055Y014260D01*
X013208Y013953D02*
X013362Y013800D01*
X013515Y013800D02*
X013822Y014107D01*
X013822Y014183D01*
X013745Y014260D01*
X013592Y014260D01*
X013515Y014183D01*
X013515Y013800D02*
X013822Y013800D01*
X013976Y013876D02*
X014052Y013800D01*
X014206Y013800D01*
X014282Y013876D01*
X014282Y014183D01*
X014206Y014260D01*
X014052Y014260D01*
X013976Y014183D01*
X013976Y014107D01*
X014052Y014030D01*
X014282Y014030D01*
D18*
X013793Y015149D03*
X013793Y015622D03*
X011542Y022943D03*
X011542Y023415D03*
X009424Y023415D03*
X009424Y022943D03*
D19*
X009424Y023179D03*
X011542Y023179D03*
X013793Y015386D03*
D20*
X033766Y004991D03*
D21*
X033766Y005616D03*
X033766Y003066D03*
D22*
X031625Y009929D03*
X026625Y009929D03*
X036625Y009929D03*
X041625Y009929D03*
X046625Y009929D03*
X051625Y009929D03*
X056625Y009929D03*
X061625Y009929D03*
X058100Y030887D03*
X053100Y030887D03*
X048100Y030887D03*
X043100Y030887D03*
X038100Y030887D03*
X033100Y030887D03*
X028100Y030887D03*
X023100Y030887D03*
X008275Y030947D03*
D23*
X024920Y032222D03*
X029920Y032222D03*
X034920Y032222D03*
X039920Y032222D03*
X044920Y032222D03*
X049920Y032222D03*
X054920Y032222D03*
X059920Y032222D03*
X059805Y008594D03*
X054805Y008594D03*
X049805Y008594D03*
X044805Y008594D03*
X039805Y008594D03*
X034805Y008594D03*
X029805Y008594D03*
X024805Y008594D03*
D24*
X026530Y008844D03*
X028080Y008844D03*
X031530Y008844D03*
X033080Y008844D03*
X036530Y008844D03*
X038080Y008844D03*
X041530Y008844D03*
X043080Y008844D03*
X046530Y008844D03*
X048080Y008844D03*
X051530Y008844D03*
X053080Y008844D03*
X056530Y008844D03*
X058080Y008844D03*
X061530Y008844D03*
X061645Y031972D03*
X058195Y031972D03*
X056645Y031972D03*
X053195Y031972D03*
X051645Y031972D03*
X048195Y031972D03*
X046645Y031972D03*
X043195Y031972D03*
X041645Y031972D03*
X038195Y031972D03*
X036645Y031972D03*
X033195Y031972D03*
X031645Y031972D03*
X028195Y031972D03*
X026645Y031972D03*
X023195Y031972D03*
X023080Y008844D03*
D25*
X024305Y008844D03*
X025305Y008844D03*
X029305Y008844D03*
X030305Y008844D03*
X034305Y008844D03*
X035305Y008844D03*
X039305Y008844D03*
X040305Y008844D03*
X044305Y008844D03*
X045305Y008844D03*
X049305Y008844D03*
X050305Y008844D03*
X054305Y008844D03*
X055305Y008844D03*
X059305Y008844D03*
X060305Y008844D03*
X060420Y031972D03*
X059420Y031972D03*
X055420Y031972D03*
X054420Y031972D03*
X050420Y031972D03*
X049420Y031972D03*
X045420Y031972D03*
X044420Y031972D03*
X040420Y031972D03*
X039420Y031972D03*
X035420Y031972D03*
X034420Y031972D03*
X030420Y031972D03*
X029420Y031972D03*
X025420Y031972D03*
X024420Y031972D03*
D26*
X023673Y028898D02*
X023423Y028898D01*
X023173Y028898D01*
X023173Y028648D02*
X023423Y028648D01*
X023673Y028648D01*
X028184Y028648D02*
X028434Y028648D01*
X028684Y028648D01*
X028684Y028898D02*
X028434Y028898D01*
X028184Y028898D01*
X033188Y028898D02*
X033438Y028898D01*
X033688Y028898D01*
X033688Y028648D02*
X033438Y028648D01*
X033188Y028648D01*
X038164Y028648D02*
X038414Y028648D01*
X038664Y028648D01*
X038664Y028898D02*
X038414Y028898D01*
X038164Y028898D01*
X043265Y028898D02*
X043515Y028898D01*
X043765Y028898D01*
X043765Y028648D02*
X043515Y028648D01*
X043265Y028648D01*
X048290Y028648D02*
X048540Y028648D01*
X048790Y028648D01*
X048790Y028898D02*
X048540Y028898D01*
X048290Y028898D01*
X053268Y028898D02*
X053518Y028898D01*
X053768Y028898D01*
X053768Y028648D02*
X053518Y028648D01*
X053268Y028648D01*
X058172Y028648D02*
X058422Y028648D01*
X058672Y028648D01*
X058672Y028898D02*
X058422Y028898D01*
X058172Y028898D01*
X056440Y012139D02*
X056190Y012139D01*
X055940Y012139D01*
X055940Y011889D02*
X056190Y011889D01*
X056440Y011889D01*
X060966Y011889D02*
X061216Y011889D01*
X061466Y011889D01*
X061466Y012139D02*
X061216Y012139D01*
X060966Y012139D01*
X051447Y012139D02*
X051197Y012139D01*
X050947Y012139D01*
X050947Y011889D02*
X051197Y011889D01*
X051447Y011889D01*
X046450Y011889D02*
X046200Y011889D01*
X045950Y011889D01*
X045950Y012139D02*
X046200Y012139D01*
X046450Y012139D01*
X041446Y012139D02*
X041196Y012139D01*
X040946Y012139D01*
X040946Y011889D02*
X041196Y011889D01*
X041446Y011889D01*
X036451Y011889D02*
X036201Y011889D01*
X035951Y011889D01*
X035951Y012139D02*
X036201Y012139D01*
X036451Y012139D01*
X031448Y012139D02*
X031198Y012139D01*
X030948Y012139D01*
X030948Y011889D02*
X031198Y011889D01*
X031448Y011889D01*
X026572Y011889D02*
X026322Y011889D01*
X026072Y011889D01*
X026072Y012139D02*
X026322Y012139D01*
X026572Y012139D01*
D27*
X011820Y032157D03*
X008370Y032157D03*
D28*
X009095Y032257D03*
X010095Y032257D03*
X011095Y032257D03*
D29*
X010595Y032157D03*
X009595Y032157D03*
M02*
