%
T01C0.0276
T02C0.0320
T03C0.0360
T04C0.0394
T05C0.0400
T06C0.0472
T07C0.1260
%
T01
X180892Y125074
X157347Y166791
X145085Y169774
X139941Y174815
X134970Y184333
X129892Y194639
X158341Y216513
X165990Y209924
X170685Y204176
X175563Y200074
X180156Y185050
X165438Y183352
X186932Y216519
X191061Y233649
X183343Y239610
X178017Y246488
X174809Y254742
X145992Y255009
X142556Y249469
X165369Y233637
X233810Y248513
X 72382Y267352
X 65619Y275261
X426940Y210508
X437939Y207756
X447157Y215384
X454371Y222380
T02
X459201Y233472
X469201Y233472
X449201Y233472
X419201Y233472
X409201Y233472
X399201Y233472
X369201Y233472
X359201Y233472
X349201Y233472
X319201Y233472
X309201Y233472
X299201Y233472
X269201Y233472
X259201Y233472
X249201Y233472
X249201Y263472
X259201Y263472
X269201Y263472
X284339Y277681
X299201Y263472
X309201Y263472
X319201Y263472
X334383Y277681
X349201Y263472
X359201Y263472
X369201Y263472
X384145Y277681
X399201Y263472
X409201Y263472
X419201Y263472
X435149Y277681
X449201Y263472
X459201Y263472
X469201Y263472
X485397Y277681
X499201Y263472
X509201Y263472
X519201Y263472
X535180Y277681
X549201Y263472
X559201Y263472
X569201Y263472
X584220Y277681
X599201Y263472
X609201Y263472
X619201Y263472
X619201Y233472
X609201Y233472
X599201Y233472
X569201Y233472
X559201Y233472
X549201Y233472
X519201Y233472
X509201Y233472
X499201Y233472
X498051Y174686
X488051Y174686
X478051Y174686
X448051Y174686
X438051Y174686
X428051Y174686
X398051Y174686
X388051Y174686
X378051Y174686
X348051Y174686
X338051Y174686
X328051Y174686
X298051Y174686
X288051Y174686
X278051Y174686
X248051Y174686
X238051Y174686
X228051Y174686
X228051Y144686
X238051Y144686
X248051Y144686
X263217Y130185
X278051Y144686
X288051Y144686
X298051Y144686
X311980Y130185
X328051Y144686
X338051Y144686
X348051Y144686
X362006Y130185
X378051Y144686
X388051Y144686
X398051Y144686
X411965Y130185
X428051Y144686
X438051Y144686
X448051Y144686
X461998Y130185
X478051Y144686
X488051Y144686
X498051Y144686
X511968Y130185
X528051Y144686
X538051Y144686
X548051Y144686
X561903Y130185
X578051Y144686
X588051Y144686
X598051Y144686
X612158Y130185
X612158Y110185
X561903Y110185
X511968Y110185
X461998Y110185
X411965Y110185
X362006Y110185
X311980Y110185
X263217Y110185
X337661Y 63412
X348562Y 63314
X348562Y 53314
X348562Y 43314
X348562Y 33314
X337661Y 23412
X378562Y 33314
X378562Y 43314
X378562Y 53314
X378562Y 63314
X528051Y174686
X538051Y174686
X548051Y174686
X578051Y174686
X588051Y174686
X598051Y174686
X584220Y297681
X535180Y297681
X485397Y297681
X435149Y297681
X384145Y297681
X334383Y297681
X284339Y297681
X234226Y297681
X234226Y277681
X173338Y279432
X163338Y279432
X153338Y279432
X143338Y279432
X113580Y265541
X103580Y265541
X143338Y309432
X153338Y309432
X163338Y309432
X173338Y309432
X182334Y153960
X163334Y153960
T03
X193338Y296932
X193338Y306932
T04
X106543Y214888
X106543Y204888
X106543Y194888
X106543Y184888
X106741Y170921
X106741Y160921
X106741Y150921
X106741Y140921
X106741Y130921
T05
X238051Y 94686
X248051Y 94686
X258051Y 94686
X288051Y 94686
X298051Y 94686
X308051Y 94686
X338051Y 94686
X348051Y 94686
X358051Y 94686
X388051Y 94686
X398051Y 94686
X408051Y 94686
X438051Y 94686
X448051Y 94686
X458051Y 94686
X488051Y 94686
X498051Y 94686
X508051Y 94686
X538051Y 94686
X548051Y 94686
X558051Y 94686
X588051Y 94686
X598051Y 94686
X608051Y 94686
X609201Y313472
X599201Y313472
X589201Y313472
X559201Y313472
X549201Y313472
X539201Y313472
X509201Y313472
X499201Y313472
X489201Y313472
X459201Y313472
X449201Y313472
X439201Y313472
X409201Y313472
X399201Y313472
X389201Y313472
X359201Y313472
X349201Y313472
X339201Y313472
X309201Y313472
X299201Y313472
X289201Y313472
X259201Y313472
X249201Y313472
X239201Y313472
X110950Y314071
X100950Y314071
X 90950Y314071
T06
X 19913Y 62688
X 49441Y 62688
X 78968Y 62688
X108496Y 62688
X138023Y 62688
X167551Y 62688
X197078Y 62688
X226606Y 62688
X254206Y 62401
X283733Y 62401
X397455Y 63019
X426983Y 63019
X456510Y 63019
X486038Y 63019
X515565Y 63019
X545093Y 63019
X574620Y 63019
X604148Y 63019
X603451Y346020
X573923Y346020
X544396Y346020
X514868Y346020
X485341Y346020
X455813Y346020
X426285Y346020
X396758Y346020
X257478Y345972
X227951Y345972
X174609Y345972
X145081Y345972
X115554Y345972
X 86026Y345972
X 50828Y345972
X 21301Y345972
T07
X 14951Y316053
X314432Y378473
X383335Y221065
X622052Y332879
X621854Y 76820
X 31227Y101110
M30
