G75*
G70*
%OFA0B0*%
%FSLAX24Y24*%
%IPPOS*%
%LPD*%
%AMOC8*
5,1,8,0,0,1.08239X$1,22.5*
%
%ADD10C,0.0160*%
%ADD11C,0.0000*%
%ADD12R,0.0197X0.0591*%
%ADD13R,0.0591X0.0197*%
%ADD14C,0.0520*%
%ADD15R,0.0512X0.0591*%
%ADD16OC8,0.0669*%
%ADD17C,0.0669*%
%ADD18R,0.0472X0.0472*%
%ADD19C,0.0520*%
%ADD20R,0.0591X0.0512*%
%ADD21C,0.0600*%
%ADD22C,0.0560*%
%ADD23C,0.0594*%
%ADD24C,0.1000*%
%ADD25OC8,0.0520*%
%ADD26C,0.0120*%
%ADD27C,0.0436*%
%ADD28C,0.0400*%
%ADD29C,0.0500*%
%ADD30C,0.0660*%
D10*
X000190Y000579D02*
X063182Y000579D01*
X063182Y039949D01*
X000190Y039949D01*
X000190Y000579D01*
D11*
X002493Y010111D02*
X002495Y010161D01*
X002501Y010211D01*
X002511Y010260D01*
X002525Y010308D01*
X002542Y010355D01*
X002563Y010400D01*
X002588Y010444D01*
X002616Y010485D01*
X002648Y010524D01*
X002682Y010561D01*
X002719Y010595D01*
X002759Y010625D01*
X002801Y010652D01*
X002845Y010676D01*
X002891Y010697D01*
X002938Y010713D01*
X002986Y010726D01*
X003036Y010735D01*
X003085Y010740D01*
X003136Y010741D01*
X003186Y010738D01*
X003235Y010731D01*
X003284Y010720D01*
X003332Y010705D01*
X003378Y010687D01*
X003423Y010665D01*
X003466Y010639D01*
X003507Y010610D01*
X003546Y010578D01*
X003582Y010543D01*
X003614Y010505D01*
X003644Y010465D01*
X003671Y010422D01*
X003694Y010378D01*
X003713Y010332D01*
X003729Y010284D01*
X003741Y010235D01*
X003749Y010186D01*
X003753Y010136D01*
X003753Y010086D01*
X003749Y010036D01*
X003741Y009987D01*
X003729Y009938D01*
X003713Y009890D01*
X003694Y009844D01*
X003671Y009800D01*
X003644Y009757D01*
X003614Y009717D01*
X003582Y009679D01*
X003546Y009644D01*
X003507Y009612D01*
X003466Y009583D01*
X003423Y009557D01*
X003378Y009535D01*
X003332Y009517D01*
X003284Y009502D01*
X003235Y009491D01*
X003186Y009484D01*
X003136Y009481D01*
X003085Y009482D01*
X003036Y009487D01*
X002986Y009496D01*
X002938Y009509D01*
X002891Y009525D01*
X002845Y009546D01*
X002801Y009570D01*
X002759Y009597D01*
X002719Y009627D01*
X002682Y009661D01*
X002648Y009698D01*
X002616Y009737D01*
X002588Y009778D01*
X002563Y009822D01*
X002542Y009867D01*
X002525Y009914D01*
X002511Y009962D01*
X002501Y010011D01*
X002495Y010061D01*
X002493Y010111D01*
X000865Y031605D02*
X000867Y031655D01*
X000873Y031705D01*
X000883Y031754D01*
X000897Y031802D01*
X000914Y031849D01*
X000935Y031894D01*
X000960Y031938D01*
X000988Y031979D01*
X001020Y032018D01*
X001054Y032055D01*
X001091Y032089D01*
X001131Y032119D01*
X001173Y032146D01*
X001217Y032170D01*
X001263Y032191D01*
X001310Y032207D01*
X001358Y032220D01*
X001408Y032229D01*
X001457Y032234D01*
X001508Y032235D01*
X001558Y032232D01*
X001607Y032225D01*
X001656Y032214D01*
X001704Y032199D01*
X001750Y032181D01*
X001795Y032159D01*
X001838Y032133D01*
X001879Y032104D01*
X001918Y032072D01*
X001954Y032037D01*
X001986Y031999D01*
X002016Y031959D01*
X002043Y031916D01*
X002066Y031872D01*
X002085Y031826D01*
X002101Y031778D01*
X002113Y031729D01*
X002121Y031680D01*
X002125Y031630D01*
X002125Y031580D01*
X002121Y031530D01*
X002113Y031481D01*
X002101Y031432D01*
X002085Y031384D01*
X002066Y031338D01*
X002043Y031294D01*
X002016Y031251D01*
X001986Y031211D01*
X001954Y031173D01*
X001918Y031138D01*
X001879Y031106D01*
X001838Y031077D01*
X001795Y031051D01*
X001750Y031029D01*
X001704Y031011D01*
X001656Y030996D01*
X001607Y030985D01*
X001558Y030978D01*
X001508Y030975D01*
X001457Y030976D01*
X001408Y030981D01*
X001358Y030990D01*
X001310Y031003D01*
X001263Y031019D01*
X001217Y031040D01*
X001173Y031064D01*
X001131Y031091D01*
X001091Y031121D01*
X001054Y031155D01*
X001020Y031192D01*
X000988Y031231D01*
X000960Y031272D01*
X000935Y031316D01*
X000914Y031361D01*
X000897Y031408D01*
X000883Y031456D01*
X000873Y031505D01*
X000867Y031555D01*
X000865Y031605D01*
X030813Y037847D02*
X030815Y037897D01*
X030821Y037947D01*
X030831Y037996D01*
X030845Y038044D01*
X030862Y038091D01*
X030883Y038136D01*
X030908Y038180D01*
X030936Y038221D01*
X030968Y038260D01*
X031002Y038297D01*
X031039Y038331D01*
X031079Y038361D01*
X031121Y038388D01*
X031165Y038412D01*
X031211Y038433D01*
X031258Y038449D01*
X031306Y038462D01*
X031356Y038471D01*
X031405Y038476D01*
X031456Y038477D01*
X031506Y038474D01*
X031555Y038467D01*
X031604Y038456D01*
X031652Y038441D01*
X031698Y038423D01*
X031743Y038401D01*
X031786Y038375D01*
X031827Y038346D01*
X031866Y038314D01*
X031902Y038279D01*
X031934Y038241D01*
X031964Y038201D01*
X031991Y038158D01*
X032014Y038114D01*
X032033Y038068D01*
X032049Y038020D01*
X032061Y037971D01*
X032069Y037922D01*
X032073Y037872D01*
X032073Y037822D01*
X032069Y037772D01*
X032061Y037723D01*
X032049Y037674D01*
X032033Y037626D01*
X032014Y037580D01*
X031991Y037536D01*
X031964Y037493D01*
X031934Y037453D01*
X031902Y037415D01*
X031866Y037380D01*
X031827Y037348D01*
X031786Y037319D01*
X031743Y037293D01*
X031698Y037271D01*
X031652Y037253D01*
X031604Y037238D01*
X031555Y037227D01*
X031506Y037220D01*
X031456Y037217D01*
X031405Y037218D01*
X031356Y037223D01*
X031306Y037232D01*
X031258Y037245D01*
X031211Y037261D01*
X031165Y037282D01*
X031121Y037306D01*
X031079Y037333D01*
X031039Y037363D01*
X031002Y037397D01*
X030968Y037434D01*
X030936Y037473D01*
X030908Y037514D01*
X030883Y037558D01*
X030862Y037603D01*
X030845Y037650D01*
X030831Y037698D01*
X030821Y037747D01*
X030815Y037797D01*
X030813Y037847D01*
X037703Y022107D02*
X037705Y022157D01*
X037711Y022207D01*
X037721Y022256D01*
X037735Y022304D01*
X037752Y022351D01*
X037773Y022396D01*
X037798Y022440D01*
X037826Y022481D01*
X037858Y022520D01*
X037892Y022557D01*
X037929Y022591D01*
X037969Y022621D01*
X038011Y022648D01*
X038055Y022672D01*
X038101Y022693D01*
X038148Y022709D01*
X038196Y022722D01*
X038246Y022731D01*
X038295Y022736D01*
X038346Y022737D01*
X038396Y022734D01*
X038445Y022727D01*
X038494Y022716D01*
X038542Y022701D01*
X038588Y022683D01*
X038633Y022661D01*
X038676Y022635D01*
X038717Y022606D01*
X038756Y022574D01*
X038792Y022539D01*
X038824Y022501D01*
X038854Y022461D01*
X038881Y022418D01*
X038904Y022374D01*
X038923Y022328D01*
X038939Y022280D01*
X038951Y022231D01*
X038959Y022182D01*
X038963Y022132D01*
X038963Y022082D01*
X038959Y022032D01*
X038951Y021983D01*
X038939Y021934D01*
X038923Y021886D01*
X038904Y021840D01*
X038881Y021796D01*
X038854Y021753D01*
X038824Y021713D01*
X038792Y021675D01*
X038756Y021640D01*
X038717Y021608D01*
X038676Y021579D01*
X038633Y021553D01*
X038588Y021531D01*
X038542Y021513D01*
X038494Y021498D01*
X038445Y021487D01*
X038396Y021480D01*
X038346Y021477D01*
X038295Y021478D01*
X038246Y021483D01*
X038196Y021492D01*
X038148Y021505D01*
X038101Y021521D01*
X038055Y021542D01*
X038011Y021566D01*
X037969Y021593D01*
X037929Y021623D01*
X037892Y021657D01*
X037858Y021694D01*
X037826Y021733D01*
X037798Y021774D01*
X037773Y021818D01*
X037752Y021863D01*
X037735Y021910D01*
X037721Y021958D01*
X037711Y022007D01*
X037705Y022057D01*
X037703Y022107D01*
X061575Y033288D02*
X061577Y033338D01*
X061583Y033388D01*
X061593Y033437D01*
X061607Y033485D01*
X061624Y033532D01*
X061645Y033577D01*
X061670Y033621D01*
X061698Y033662D01*
X061730Y033701D01*
X061764Y033738D01*
X061801Y033772D01*
X061841Y033802D01*
X061883Y033829D01*
X061927Y033853D01*
X061973Y033874D01*
X062020Y033890D01*
X062068Y033903D01*
X062118Y033912D01*
X062167Y033917D01*
X062218Y033918D01*
X062268Y033915D01*
X062317Y033908D01*
X062366Y033897D01*
X062414Y033882D01*
X062460Y033864D01*
X062505Y033842D01*
X062548Y033816D01*
X062589Y033787D01*
X062628Y033755D01*
X062664Y033720D01*
X062696Y033682D01*
X062726Y033642D01*
X062753Y033599D01*
X062776Y033555D01*
X062795Y033509D01*
X062811Y033461D01*
X062823Y033412D01*
X062831Y033363D01*
X062835Y033313D01*
X062835Y033263D01*
X062831Y033213D01*
X062823Y033164D01*
X062811Y033115D01*
X062795Y033067D01*
X062776Y033021D01*
X062753Y032977D01*
X062726Y032934D01*
X062696Y032894D01*
X062664Y032856D01*
X062628Y032821D01*
X062589Y032789D01*
X062548Y032760D01*
X062505Y032734D01*
X062460Y032712D01*
X062414Y032694D01*
X062366Y032679D01*
X062317Y032668D01*
X062268Y032661D01*
X062218Y032658D01*
X062167Y032659D01*
X062118Y032664D01*
X062068Y032673D01*
X062020Y032686D01*
X061973Y032702D01*
X061927Y032723D01*
X061883Y032747D01*
X061841Y032774D01*
X061801Y032804D01*
X061764Y032838D01*
X061730Y032875D01*
X061698Y032914D01*
X061670Y032955D01*
X061645Y032999D01*
X061624Y033044D01*
X061607Y033091D01*
X061593Y033139D01*
X061583Y033188D01*
X061577Y033238D01*
X061575Y033288D01*
X061555Y007682D02*
X061557Y007732D01*
X061563Y007782D01*
X061573Y007831D01*
X061587Y007879D01*
X061604Y007926D01*
X061625Y007971D01*
X061650Y008015D01*
X061678Y008056D01*
X061710Y008095D01*
X061744Y008132D01*
X061781Y008166D01*
X061821Y008196D01*
X061863Y008223D01*
X061907Y008247D01*
X061953Y008268D01*
X062000Y008284D01*
X062048Y008297D01*
X062098Y008306D01*
X062147Y008311D01*
X062198Y008312D01*
X062248Y008309D01*
X062297Y008302D01*
X062346Y008291D01*
X062394Y008276D01*
X062440Y008258D01*
X062485Y008236D01*
X062528Y008210D01*
X062569Y008181D01*
X062608Y008149D01*
X062644Y008114D01*
X062676Y008076D01*
X062706Y008036D01*
X062733Y007993D01*
X062756Y007949D01*
X062775Y007903D01*
X062791Y007855D01*
X062803Y007806D01*
X062811Y007757D01*
X062815Y007707D01*
X062815Y007657D01*
X062811Y007607D01*
X062803Y007558D01*
X062791Y007509D01*
X062775Y007461D01*
X062756Y007415D01*
X062733Y007371D01*
X062706Y007328D01*
X062676Y007288D01*
X062644Y007250D01*
X062608Y007215D01*
X062569Y007183D01*
X062528Y007154D01*
X062485Y007128D01*
X062440Y007106D01*
X062394Y007088D01*
X062346Y007073D01*
X062297Y007062D01*
X062248Y007055D01*
X062198Y007052D01*
X062147Y007053D01*
X062098Y007058D01*
X062048Y007067D01*
X062000Y007080D01*
X061953Y007096D01*
X061907Y007117D01*
X061863Y007141D01*
X061821Y007168D01*
X061781Y007198D01*
X061744Y007232D01*
X061710Y007269D01*
X061678Y007308D01*
X061650Y007349D01*
X061625Y007393D01*
X061604Y007438D01*
X061587Y007485D01*
X061573Y007533D01*
X061563Y007582D01*
X061557Y007632D01*
X061555Y007682D01*
D12*
X018750Y017721D03*
X018435Y017721D03*
X018120Y017721D03*
X017805Y017721D03*
X017490Y017721D03*
X017175Y017721D03*
X016860Y017721D03*
X016545Y017721D03*
X016230Y017721D03*
X015915Y017721D03*
X015600Y017721D03*
X015600Y022288D03*
X015915Y022288D03*
X016230Y022288D03*
X016545Y022288D03*
X016860Y022288D03*
X017175Y022288D03*
X017490Y022288D03*
X017805Y022288D03*
X018120Y022288D03*
X018435Y022288D03*
X018750Y022288D03*
D13*
X019459Y021579D03*
X019459Y021264D03*
X019459Y020949D03*
X019459Y020634D03*
X019459Y020319D03*
X019459Y020004D03*
X019459Y019689D03*
X019459Y019374D03*
X019459Y019059D03*
X019459Y018744D03*
X019459Y018429D03*
X014892Y018429D03*
X014892Y018744D03*
X014892Y019059D03*
X014892Y019374D03*
X014892Y019689D03*
X014892Y020004D03*
X014892Y020319D03*
X014892Y020634D03*
X014892Y020949D03*
X014892Y021264D03*
X014892Y021579D03*
D14*
X016333Y015396D03*
X018233Y015396D03*
D15*
X014088Y014630D03*
X013340Y014630D03*
X011857Y024679D03*
X011109Y024679D03*
X009855Y024657D03*
X009107Y024657D03*
X008984Y028179D03*
X009732Y028179D03*
X010359Y028179D03*
X011107Y028179D03*
X015516Y026750D03*
X016264Y026750D03*
D16*
X010358Y026554D03*
D17*
X011358Y026554D03*
D18*
X011070Y023179D03*
X011896Y023179D03*
X009896Y023179D03*
X009070Y023179D03*
X013320Y015386D03*
X014147Y015386D03*
D19*
X022805Y014729D02*
X022805Y014209D01*
X023805Y014209D02*
X023805Y014729D01*
X024805Y014729D02*
X024805Y014209D01*
X027805Y014209D02*
X027805Y014729D01*
X028805Y014729D02*
X028805Y014209D01*
X029805Y014209D02*
X029805Y014729D01*
X032805Y014729D02*
X032805Y014209D01*
X033805Y014209D02*
X033805Y014729D01*
X034805Y014729D02*
X034805Y014209D01*
X037805Y014209D02*
X037805Y014729D01*
X038805Y014729D02*
X038805Y014209D01*
X039805Y014209D02*
X039805Y014729D01*
X042805Y014729D02*
X042805Y014209D01*
X043805Y014209D02*
X043805Y014729D01*
X044805Y014729D02*
X044805Y014209D01*
X047805Y014209D02*
X047805Y014729D01*
X048805Y014729D02*
X048805Y014209D01*
X049805Y014209D02*
X049805Y014729D01*
X052805Y014729D02*
X052805Y014209D01*
X053805Y014209D02*
X053805Y014729D01*
X054805Y014729D02*
X054805Y014209D01*
X057805Y014209D02*
X057805Y014729D01*
X058805Y014729D02*
X058805Y014209D01*
X059805Y014209D02*
X059805Y014729D01*
X059805Y017209D02*
X059805Y017729D01*
X058805Y017729D02*
X058805Y017209D01*
X057805Y017209D02*
X057805Y017729D01*
X054805Y017729D02*
X054805Y017209D01*
X053805Y017209D02*
X053805Y017729D01*
X052805Y017729D02*
X052805Y017209D01*
X049805Y017209D02*
X049805Y017729D01*
X048805Y017729D02*
X048805Y017209D01*
X047805Y017209D02*
X047805Y017729D01*
X044805Y017729D02*
X044805Y017209D01*
X043805Y017209D02*
X043805Y017729D01*
X042805Y017729D02*
X042805Y017209D01*
X039805Y017209D02*
X039805Y017729D01*
X038805Y017729D02*
X038805Y017209D01*
X037805Y017209D02*
X037805Y017729D01*
X034805Y017729D02*
X034805Y017209D01*
X033805Y017209D02*
X033805Y017729D01*
X032805Y017729D02*
X032805Y017209D01*
X029805Y017209D02*
X029805Y017729D01*
X028805Y017729D02*
X028805Y017209D01*
X027805Y017209D02*
X027805Y017729D01*
X024805Y017729D02*
X024805Y017209D01*
X023805Y017209D02*
X023805Y017729D01*
X022805Y017729D02*
X022805Y017209D01*
X024920Y023087D02*
X024920Y023607D01*
X025920Y023607D02*
X025920Y023087D01*
X026920Y023087D02*
X026920Y023607D01*
X029920Y023607D02*
X029920Y023087D01*
X030920Y023087D02*
X030920Y023607D01*
X031920Y023607D02*
X031920Y023087D01*
X034920Y023087D02*
X034920Y023607D01*
X035920Y023607D02*
X035920Y023087D01*
X036920Y023087D02*
X036920Y023607D01*
X039920Y023607D02*
X039920Y023087D01*
X040920Y023087D02*
X040920Y023607D01*
X041920Y023607D02*
X041920Y023087D01*
X044920Y023087D02*
X044920Y023607D01*
X045920Y023607D02*
X045920Y023087D01*
X046920Y023087D02*
X046920Y023607D01*
X049920Y023607D02*
X049920Y023087D01*
X050920Y023087D02*
X050920Y023607D01*
X051920Y023607D02*
X051920Y023087D01*
X054920Y023087D02*
X054920Y023607D01*
X055920Y023607D02*
X055920Y023087D01*
X056920Y023087D02*
X056920Y023607D01*
X059920Y023607D02*
X059920Y023087D01*
X060920Y023087D02*
X060920Y023607D01*
X061920Y023607D02*
X061920Y023087D01*
X061920Y026087D02*
X061920Y026607D01*
X060920Y026607D02*
X060920Y026087D01*
X059920Y026087D02*
X059920Y026607D01*
X056920Y026607D02*
X056920Y026087D01*
X055920Y026087D02*
X055920Y026607D01*
X054920Y026607D02*
X054920Y026087D01*
X051920Y026087D02*
X051920Y026607D01*
X050920Y026607D02*
X050920Y026087D01*
X049920Y026087D02*
X049920Y026607D01*
X046920Y026607D02*
X046920Y026087D01*
X045920Y026087D02*
X045920Y026607D01*
X044920Y026607D02*
X044920Y026087D01*
X041920Y026087D02*
X041920Y026607D01*
X040920Y026607D02*
X040920Y026087D01*
X039920Y026087D02*
X039920Y026607D01*
X036920Y026607D02*
X036920Y026087D01*
X035920Y026087D02*
X035920Y026607D01*
X034920Y026607D02*
X034920Y026087D01*
X031920Y026087D02*
X031920Y026607D01*
X030920Y026607D02*
X030920Y026087D01*
X029920Y026087D02*
X029920Y026607D01*
X026920Y026607D02*
X026920Y026087D01*
X025920Y026087D02*
X025920Y026607D01*
X024920Y026607D02*
X024920Y026087D01*
X017334Y027683D02*
X017334Y028203D01*
X016334Y028203D02*
X016334Y027683D01*
X015334Y027683D02*
X015334Y028203D01*
X014334Y028203D02*
X014334Y027683D01*
X014334Y030683D02*
X014334Y031203D01*
X015334Y031203D02*
X015334Y030683D01*
X016334Y030683D02*
X016334Y031203D01*
X017334Y031203D02*
X017334Y030683D01*
X033766Y006601D02*
X033766Y006081D01*
X034596Y006331D02*
X035116Y006331D01*
X035116Y005331D02*
X034596Y005331D01*
X034596Y004331D02*
X035116Y004331D01*
X035116Y003331D02*
X034596Y003331D01*
X033766Y002601D02*
X033766Y002081D01*
X037596Y003331D02*
X038116Y003331D01*
X038116Y004331D02*
X037596Y004331D01*
X037596Y005331D02*
X038116Y005331D01*
X038116Y006331D02*
X037596Y006331D01*
D20*
X036198Y014106D03*
X036198Y014854D03*
X041198Y014854D03*
X041198Y014106D03*
X046198Y014106D03*
X046198Y014854D03*
X051198Y014854D03*
X051198Y014106D03*
X056198Y014106D03*
X056198Y014854D03*
X061218Y014854D03*
X061218Y014106D03*
X058420Y025973D03*
X058420Y026721D03*
X053527Y026721D03*
X053527Y025973D03*
X048527Y025973D03*
X048527Y026721D03*
X043527Y026721D03*
X043527Y025973D03*
X038429Y025973D03*
X038429Y026721D03*
X033420Y026721D03*
X033420Y025973D03*
X028420Y025973D03*
X028420Y026721D03*
X023420Y026721D03*
X023420Y025973D03*
X026319Y014854D03*
X026319Y014106D03*
X031198Y014106D03*
X031198Y014854D03*
D21*
X030805Y009769D02*
X030805Y009169D01*
X029805Y009169D02*
X029805Y009769D01*
X028805Y009769D02*
X028805Y009169D01*
X025805Y009169D02*
X025805Y009769D01*
X024805Y009769D02*
X024805Y009169D01*
X023805Y009169D02*
X023805Y009769D01*
X033805Y009769D02*
X033805Y009169D01*
X034805Y009169D02*
X034805Y009769D01*
X035805Y009769D02*
X035805Y009169D01*
X038805Y009169D02*
X038805Y009769D01*
X039805Y009769D02*
X039805Y009169D01*
X040805Y009169D02*
X040805Y009769D01*
X043805Y009769D02*
X043805Y009169D01*
X044805Y009169D02*
X044805Y009769D01*
X045805Y009769D02*
X045805Y009169D01*
X048805Y009169D02*
X048805Y009769D01*
X049805Y009769D02*
X049805Y009169D01*
X050805Y009169D02*
X050805Y009769D01*
X053805Y009769D02*
X053805Y009169D01*
X054805Y009169D02*
X054805Y009769D01*
X055805Y009769D02*
X055805Y009169D01*
X058805Y009169D02*
X058805Y009769D01*
X059805Y009769D02*
X059805Y009169D01*
X060805Y009169D02*
X060805Y009769D01*
X060920Y031047D02*
X060920Y031647D01*
X059920Y031647D02*
X059920Y031047D01*
X058920Y031047D02*
X058920Y031647D01*
X055920Y031647D02*
X055920Y031047D01*
X054920Y031047D02*
X054920Y031647D01*
X053920Y031647D02*
X053920Y031047D01*
X050920Y031047D02*
X050920Y031647D01*
X049920Y031647D02*
X049920Y031047D01*
X048920Y031047D02*
X048920Y031647D01*
X045920Y031647D02*
X045920Y031047D01*
X044920Y031047D02*
X044920Y031647D01*
X043920Y031647D02*
X043920Y031047D01*
X040920Y031047D02*
X040920Y031647D01*
X039920Y031647D02*
X039920Y031047D01*
X038920Y031047D02*
X038920Y031647D01*
X035920Y031647D02*
X035920Y031047D01*
X034920Y031047D02*
X034920Y031647D01*
X033920Y031647D02*
X033920Y031047D01*
X030920Y031047D02*
X030920Y031647D01*
X029920Y031647D02*
X029920Y031047D01*
X028920Y031047D02*
X028920Y031647D01*
X025920Y031647D02*
X025920Y031047D01*
X024920Y031047D02*
X024920Y031647D01*
X023920Y031647D02*
X023920Y031047D01*
X011095Y031107D02*
X011095Y031707D01*
X010095Y031707D02*
X010095Y031107D01*
X009095Y031107D02*
X009095Y031707D01*
D22*
X019054Y030693D02*
X019614Y030693D01*
X019614Y029693D02*
X019054Y029693D01*
D23*
X010951Y021489D02*
X010357Y021489D01*
X010357Y020489D02*
X010951Y020489D01*
X010951Y019489D02*
X010357Y019489D01*
X010357Y018489D02*
X010951Y018489D01*
X010971Y017092D02*
X010377Y017092D01*
X010377Y016092D02*
X010971Y016092D01*
X010971Y015092D02*
X010377Y015092D01*
X010377Y014092D02*
X010971Y014092D01*
X010971Y013092D02*
X010377Y013092D01*
D24*
X010850Y006269D03*
X013802Y006269D03*
X016755Y006269D03*
X019708Y006269D03*
X022661Y006269D03*
X025421Y006240D03*
X028373Y006240D03*
X039746Y006302D03*
X042698Y006302D03*
X045651Y006302D03*
X048604Y006302D03*
X051557Y006302D03*
X054509Y006302D03*
X057462Y006302D03*
X060415Y006302D03*
X060345Y034602D03*
X057392Y034602D03*
X054440Y034602D03*
X051487Y034602D03*
X048534Y034602D03*
X045581Y034602D03*
X042629Y034602D03*
X039676Y034602D03*
X025748Y034597D03*
X022795Y034597D03*
X017461Y034597D03*
X014508Y034597D03*
X011555Y034597D03*
X008603Y034597D03*
X005083Y034597D03*
X002130Y034597D03*
X001991Y006269D03*
X004944Y006269D03*
X007897Y006269D03*
D25*
X026322Y011019D03*
X026322Y013019D03*
X031198Y013019D03*
X031198Y011019D03*
X036201Y011019D03*
X036201Y013019D03*
X041196Y013019D03*
X041196Y011019D03*
X046200Y011019D03*
X046200Y013019D03*
X051197Y013019D03*
X051197Y011019D03*
X056190Y011019D03*
X056190Y013019D03*
X061216Y013019D03*
X061216Y011019D03*
X058422Y027768D03*
X058422Y029768D03*
X053518Y029768D03*
X053518Y027768D03*
X048540Y027768D03*
X048540Y029768D03*
X043515Y029768D03*
X043515Y027768D03*
X038414Y027768D03*
X038414Y029768D03*
X033438Y029768D03*
X033438Y027768D03*
X028434Y027768D03*
X028434Y029768D03*
X023423Y029768D03*
X023423Y027768D03*
D26*
X017802Y024649D02*
X017802Y022288D01*
X017805Y022288D01*
X017490Y022288D02*
X017481Y022297D01*
X017481Y023686D01*
X017206Y023961D01*
X017206Y025245D01*
X017435Y025474D01*
X017481Y025474D01*
X016264Y026750D02*
X016334Y026820D01*
X015516Y026750D02*
X015334Y026933D01*
X015334Y027943D01*
X015516Y026750D02*
X015516Y025244D01*
X017175Y023585D01*
X017175Y022288D01*
X017175Y021723D01*
X017179Y021720D01*
X018532Y021720D01*
X018693Y021652D01*
X019459Y021579D02*
X030920Y021579D01*
X030920Y023347D01*
X025920Y023347D02*
X025920Y022562D01*
X018741Y022562D01*
X018741Y022288D01*
X018750Y022288D01*
X018435Y022288D02*
X018435Y023365D01*
X019106Y023365D01*
X018334Y023961D02*
X018120Y023747D01*
X018120Y022288D01*
X018123Y022290D01*
X016861Y022286D02*
X016861Y021750D01*
X016714Y021648D01*
X015834Y021651D01*
X015796Y021645D01*
X015535Y021645D01*
X014755Y022425D01*
X013228Y022425D01*
X013260Y021501D02*
X010667Y021501D01*
X010654Y021489D01*
X010800Y020634D02*
X010654Y020489D01*
X010800Y020634D02*
X014892Y020634D01*
X014892Y020323D02*
X014892Y020319D01*
X014892Y020323D02*
X012289Y020323D01*
X012289Y015092D01*
X010674Y015092D01*
X010674Y014092D02*
X012576Y014092D01*
X012576Y020005D01*
X014892Y020005D01*
X014892Y020004D01*
X014892Y019689D02*
X013214Y019689D01*
X012989Y019464D01*
X013497Y018433D02*
X013497Y018429D01*
X014892Y018429D01*
X014892Y018744D02*
X017556Y018744D01*
X017556Y020007D01*
X017068Y020418D02*
X017068Y019114D01*
X017032Y019078D01*
X014910Y019078D01*
X014892Y019059D01*
X014892Y019363D02*
X014892Y019374D01*
X014892Y019363D02*
X016654Y019363D01*
X016654Y020992D01*
X016599Y020992D01*
X016545Y022288D02*
X016545Y023355D01*
X016537Y023364D01*
X015600Y023602D02*
X014256Y024947D01*
X014599Y025501D02*
X015915Y024184D01*
X015915Y022288D01*
X015600Y022288D02*
X015600Y023602D01*
X016860Y022288D02*
X016861Y022286D01*
X014892Y020949D02*
X013812Y020949D01*
X013260Y021501D01*
X010654Y018489D02*
X010654Y017112D01*
X010674Y017092D01*
X013320Y015386D02*
X013320Y014650D01*
X013340Y014630D01*
X013364Y014654D01*
X014088Y014630D02*
X014789Y014630D01*
X017181Y017021D01*
X017181Y017308D01*
X017182Y017309D01*
X017182Y017714D01*
X017175Y017721D01*
X016860Y017721D02*
X016850Y017711D01*
X016850Y017287D01*
X016849Y017286D01*
X016849Y017051D01*
X015991Y016193D01*
X015249Y016193D01*
X014441Y015386D01*
X014147Y015386D01*
X015735Y016679D02*
X016230Y017175D01*
X016230Y017721D01*
X015915Y017721D02*
X015911Y017717D01*
X015911Y017232D01*
X015790Y017110D01*
X015624Y017110D01*
X015492Y016977D01*
X014509Y016977D01*
X013994Y017482D02*
X015600Y017482D01*
X015600Y017721D01*
X016545Y017721D02*
X016545Y018452D01*
X016544Y018335D01*
X017490Y018505D02*
X017490Y017721D01*
X017800Y017716D02*
X017805Y017721D01*
X017810Y017716D01*
X017810Y017251D01*
X016333Y015775D01*
X016333Y015396D01*
X018120Y015509D02*
X018233Y015396D01*
X018120Y015509D02*
X018120Y017721D01*
X018435Y017721D02*
X018435Y017129D01*
X019222Y017129D01*
X020231Y018137D01*
X020231Y018413D01*
X060920Y018413D01*
X060920Y023347D01*
X055920Y023347D02*
X055920Y018744D01*
X019459Y018744D01*
X019459Y019059D02*
X050920Y019059D01*
X050920Y023347D01*
X045920Y023347D02*
X045920Y019374D01*
X019459Y019374D01*
X019459Y019689D02*
X045432Y019710D01*
X045437Y022238D01*
X044716Y021538D02*
X044716Y020004D01*
X019459Y020004D01*
X019459Y020319D02*
X043794Y020319D01*
X043794Y020776D01*
X042694Y021051D02*
X042694Y021243D01*
X041786Y021243D01*
X041786Y020634D01*
X019459Y020634D01*
X019459Y020949D02*
X040920Y020949D01*
X040920Y023347D01*
X035920Y023347D02*
X035920Y021264D01*
X019459Y021264D01*
X018016Y018505D02*
X017490Y018505D01*
X037856Y006331D02*
X038680Y005507D01*
X038680Y002822D01*
X036187Y002822D01*
X034731Y001366D01*
X014225Y001366D01*
X013753Y001838D01*
X018865Y002322D02*
X019554Y001633D01*
X034434Y001633D01*
X036132Y003331D01*
X037856Y003331D01*
D27*
X018089Y012507D03*
X015735Y016679D03*
X014509Y016977D03*
X013994Y017482D03*
X013497Y018433D03*
X012989Y019464D03*
X015834Y021651D03*
X016599Y020992D03*
X017068Y020418D03*
X017556Y020007D03*
X018016Y018505D03*
X016544Y018335D03*
X018693Y021652D03*
X019106Y023365D03*
X018334Y023961D03*
X017802Y024649D03*
X017481Y025474D03*
X014599Y025501D03*
X014256Y024947D03*
X016537Y023364D03*
X023381Y024851D03*
X007238Y026735D03*
X006562Y027526D03*
X042694Y021051D03*
X043794Y020776D03*
X044716Y021538D03*
X045437Y022238D03*
D28*
X044920Y025973D02*
X043527Y025973D01*
X043527Y026721D02*
X043527Y027768D01*
X043515Y027768D01*
X044920Y026347D02*
X044920Y025973D01*
X046920Y026347D02*
X046920Y031347D01*
X045920Y031347D01*
X041920Y031347D02*
X040920Y031347D01*
X041920Y031347D02*
X041920Y026347D01*
X039920Y026347D02*
X039920Y025973D01*
X038429Y025973D01*
X038429Y026721D02*
X038429Y027768D01*
X038414Y027768D01*
X036920Y026347D02*
X036920Y031347D01*
X035920Y031347D01*
X031920Y031347D02*
X030920Y031347D01*
X031920Y031347D02*
X031920Y026347D01*
X033420Y025973D02*
X034920Y025973D01*
X034920Y026347D01*
X033420Y026721D02*
X033420Y027768D01*
X033438Y027768D01*
X029920Y026347D02*
X029920Y025973D01*
X028420Y025973D01*
X028420Y026721D02*
X028420Y027768D01*
X028434Y027768D01*
X026920Y026347D02*
X026920Y031347D01*
X025920Y031347D01*
X023423Y027768D02*
X023420Y027768D01*
X023420Y026721D01*
X023420Y025973D02*
X024920Y025973D01*
X024920Y026347D01*
X023381Y024851D02*
X020633Y024851D01*
X018952Y026533D01*
X016482Y026533D01*
X016264Y026750D01*
X016266Y026748D01*
X016334Y026820D02*
X016334Y027943D01*
X016208Y028069D01*
X016208Y028489D01*
X015794Y028903D01*
X013928Y028903D01*
X013148Y028124D01*
X013148Y026344D01*
X013228Y026344D01*
X013228Y022425D01*
X011070Y022425D01*
X011070Y023179D01*
X011896Y023179D02*
X011896Y024679D01*
X011857Y024679D01*
X011109Y024657D02*
X011109Y024679D01*
X011109Y024657D02*
X009855Y024657D01*
X009855Y026051D01*
X010358Y026554D01*
X010358Y028164D01*
X010351Y028171D01*
X010030Y028171D01*
X010022Y028179D01*
X009732Y028179D01*
X010030Y028171D02*
X010030Y031342D01*
X010095Y031407D01*
X010095Y032958D01*
X008603Y034597D01*
X009095Y031407D02*
X008984Y031296D01*
X008984Y028179D01*
X008089Y028179D01*
X008089Y022425D01*
X009896Y022425D01*
X009896Y023179D01*
X009107Y023179D02*
X009070Y023179D01*
X009107Y023179D02*
X009107Y024657D01*
X011358Y026554D02*
X011568Y026344D01*
X013148Y026344D01*
X011358Y026554D02*
X011358Y027928D01*
X011107Y028179D01*
X011095Y028191D01*
X011095Y031407D01*
X015334Y030943D02*
X015334Y030584D01*
X015916Y030001D01*
X018096Y030001D01*
X018494Y030399D01*
X019040Y030399D01*
X019334Y030693D01*
X016334Y030943D02*
X016334Y032625D01*
X014508Y034597D01*
X010359Y028179D02*
X010351Y028171D01*
X007261Y026712D02*
X007238Y026735D01*
X007261Y026712D02*
X007261Y019926D01*
X007698Y019489D01*
X010654Y019489D01*
X010654Y018489D02*
X007361Y018489D01*
X006386Y019464D01*
X006386Y027350D01*
X006562Y027526D01*
X009608Y017092D02*
X009209Y016693D01*
X009209Y012864D01*
X009873Y012199D01*
X012416Y012199D01*
X012416Y003175D01*
X013753Y001838D01*
X018089Y003098D02*
X018865Y002322D01*
X018089Y003098D02*
X018089Y012507D01*
X014090Y013873D02*
X014090Y014628D01*
X014088Y014630D01*
X014090Y013873D02*
X012416Y012199D01*
X010674Y017092D02*
X009608Y017092D01*
X022805Y014469D02*
X022805Y009469D01*
X023805Y009469D01*
X027805Y009469D02*
X027805Y014469D01*
X026319Y014106D02*
X026319Y013019D01*
X026322Y013019D01*
X024805Y014469D02*
X024805Y014854D01*
X026319Y014854D01*
X029805Y014854D02*
X029805Y014469D01*
X029805Y014854D02*
X031198Y014854D01*
X031198Y014106D02*
X031198Y013019D01*
X031198Y013019D01*
X032805Y014469D02*
X032805Y009469D01*
X033805Y009469D01*
X037805Y012404D02*
X038795Y012404D01*
X038795Y009469D01*
X038805Y009469D01*
X042805Y009469D02*
X042805Y014469D01*
X041198Y014106D02*
X041198Y013019D01*
X041196Y013019D01*
X039805Y014469D02*
X039805Y014854D01*
X041198Y014854D01*
X044805Y014854D02*
X044805Y014469D01*
X044805Y014854D02*
X046198Y014854D01*
X046198Y014106D02*
X046198Y013019D01*
X046200Y013019D01*
X047805Y014469D02*
X047805Y009469D01*
X048805Y009469D01*
X052805Y009469D02*
X052805Y014469D01*
X051198Y014106D02*
X051198Y013019D01*
X051197Y013019D01*
X049805Y014469D02*
X049805Y014854D01*
X051198Y014854D01*
X054805Y014854D02*
X054805Y014469D01*
X054805Y014854D02*
X056198Y014854D01*
X056198Y014106D02*
X056198Y013019D01*
X056190Y013019D01*
X057805Y014469D02*
X057805Y009469D01*
X058805Y009469D01*
X053805Y009469D02*
X052805Y009469D01*
X059805Y014469D02*
X059805Y014854D01*
X061218Y014854D01*
X061218Y014106D02*
X061218Y013019D01*
X061216Y013019D01*
X043805Y009469D02*
X042805Y009469D01*
X037805Y012404D02*
X037805Y014469D01*
X036198Y014106D02*
X036198Y013019D01*
X036201Y013019D01*
X034805Y014469D02*
X034805Y014854D01*
X036198Y014854D01*
X028805Y009469D02*
X027805Y009469D01*
X037655Y006331D02*
X037856Y006331D01*
X048527Y025973D02*
X049920Y025973D01*
X049920Y026347D01*
X048527Y026721D02*
X048527Y027768D01*
X048540Y027768D01*
X051920Y026347D02*
X051920Y031347D01*
X050920Y031347D01*
X055920Y031347D02*
X056920Y031347D01*
X056920Y026347D01*
X058420Y025973D02*
X059920Y025973D01*
X059920Y026347D01*
X058420Y026721D02*
X058420Y027768D01*
X058422Y027768D01*
X061920Y026347D02*
X061920Y031347D01*
X060920Y031347D01*
X053527Y027768D02*
X053527Y026721D01*
X053527Y025973D02*
X054920Y025973D01*
X054920Y026347D01*
X053527Y027768D02*
X053518Y027768D01*
D29*
X013130Y033442D02*
X011095Y031407D01*
X013130Y033442D02*
X013130Y035674D01*
X012130Y036674D01*
X003130Y036674D01*
X002130Y035674D01*
X002130Y034597D01*
X005083Y034597D02*
X008603Y034597D01*
D30*
X023920Y032153D02*
X023920Y031347D01*
X023920Y032153D02*
X024996Y033228D01*
X033356Y033228D01*
X034725Y034598D01*
X039672Y034598D01*
X039676Y034602D01*
X037398Y009469D02*
X035805Y009469D01*
X037398Y009469D02*
X038693Y008174D01*
X043608Y008174D01*
X045479Y006302D01*
X045651Y006302D01*
M02*
