G75*
G70*
%OFA0B0*%
%FSLAX24Y24*%
%IPPOS*%
%LPD*%
%AMOC8*
5,1,8,0,0,1.08239X$1,22.5*
%
%ADD10C,0.0520*%
%ADD11R,0.0591X0.0512*%
%ADD12R,0.0512X0.0591*%
%ADD13OC8,0.0669*%
%ADD14C,0.0669*%
%ADD15R,0.0591X0.0137*%
%ADD16C,0.0520*%
%ADD17R,0.0630X0.0512*%
%ADD18C,0.0600*%
%ADD19C,0.0560*%
%ADD20R,0.0512X0.0630*%
%ADD21C,0.0594*%
%ADD22C,0.1000*%
%ADD23OC8,0.0520*%
%ADD24R,0.0748X0.0669*%
%ADD25R,0.0709X0.1260*%
%ADD26C,0.0120*%
%ADD27C,0.0400*%
%ADD28C,0.0436*%
%ADD29C,0.0320*%
%ADD30C,0.0240*%
%ADD31C,0.0660*%
D10*
X045132Y015396D03*
X047032Y015396D03*
D11*
X047030Y014733D03*
X047030Y013985D03*
X045195Y013999D03*
X045195Y014747D03*
X038560Y012843D03*
X038560Y012095D03*
X033667Y012245D03*
X033667Y012993D03*
X028667Y012993D03*
X028667Y012245D03*
X023667Y012245D03*
X023667Y012993D03*
X018667Y012993D03*
X018667Y012245D03*
X013667Y012245D03*
X013667Y012993D03*
X008667Y012993D03*
X008667Y012245D03*
X003667Y012245D03*
X003667Y012993D03*
X003445Y027823D03*
X003445Y028571D03*
X008441Y028571D03*
X008441Y027823D03*
X013455Y027823D03*
X013455Y028571D03*
X018455Y028571D03*
X018455Y027823D03*
X023460Y027823D03*
X023460Y028571D03*
X028463Y028571D03*
X028463Y027823D03*
X033463Y027823D03*
X033463Y028571D03*
X038445Y028571D03*
X038445Y027823D03*
X027009Y004875D03*
X027009Y004127D03*
D12*
X045503Y017774D03*
X046251Y017774D03*
X047157Y029193D03*
X047905Y029193D03*
D13*
X053007Y026554D03*
D14*
X052007Y026554D03*
D15*
X047655Y021239D03*
X047655Y020983D03*
X047655Y020728D03*
X047655Y020472D03*
X047655Y020216D03*
X047655Y019960D03*
X047655Y019704D03*
X047655Y019448D03*
X047655Y019192D03*
X047655Y018936D03*
X044801Y018936D03*
X044801Y019192D03*
X044801Y019448D03*
X044801Y019704D03*
X044801Y019960D03*
X044801Y020216D03*
X044801Y020472D03*
X044801Y020728D03*
X044801Y020983D03*
X044801Y021239D03*
D16*
X040560Y017729D02*
X040560Y017209D01*
X039560Y017209D02*
X039560Y017729D01*
X038560Y017729D02*
X038560Y017209D01*
X035560Y017209D02*
X035560Y017729D01*
X034560Y017729D02*
X034560Y017209D01*
X033560Y017209D02*
X033560Y017729D01*
X030560Y017729D02*
X030560Y017209D01*
X029560Y017209D02*
X029560Y017729D01*
X028560Y017729D02*
X028560Y017209D01*
X025560Y017209D02*
X025560Y017729D01*
X024560Y017729D02*
X024560Y017209D01*
X023560Y017209D02*
X023560Y017729D01*
X020560Y017729D02*
X020560Y017209D01*
X019560Y017209D02*
X019560Y017729D01*
X018560Y017729D02*
X018560Y017209D01*
X015560Y017209D02*
X015560Y017729D01*
X014560Y017729D02*
X014560Y017209D01*
X013560Y017209D02*
X013560Y017729D01*
X010560Y017729D02*
X010560Y017209D01*
X009560Y017209D02*
X009560Y017729D01*
X008560Y017729D02*
X008560Y017209D01*
X005560Y017209D02*
X005560Y017729D01*
X004560Y017729D02*
X004560Y017209D01*
X003560Y017209D02*
X003560Y017729D01*
X003560Y014729D02*
X003560Y014209D01*
X004560Y014209D02*
X004560Y014729D01*
X005560Y014729D02*
X005560Y014209D01*
X008560Y014209D02*
X008560Y014729D01*
X009560Y014729D02*
X009560Y014209D01*
X010560Y014209D02*
X010560Y014729D01*
X013560Y014729D02*
X013560Y014209D01*
X014560Y014209D02*
X014560Y014729D01*
X015560Y014729D02*
X015560Y014209D01*
X018560Y014209D02*
X018560Y014729D01*
X019560Y014729D02*
X019560Y014209D01*
X020560Y014209D02*
X020560Y014729D01*
X023560Y014729D02*
X023560Y014209D01*
X024560Y014209D02*
X024560Y014729D01*
X025560Y014729D02*
X025560Y014209D01*
X028560Y014209D02*
X028560Y014729D01*
X029560Y014729D02*
X029560Y014209D01*
X030560Y014209D02*
X030560Y014729D01*
X033560Y014729D02*
X033560Y014209D01*
X034560Y014209D02*
X034560Y014729D01*
X035560Y014729D02*
X035560Y014209D01*
X038560Y014209D02*
X038560Y014729D01*
X039560Y014729D02*
X039560Y014209D01*
X040560Y014209D02*
X040560Y014729D01*
X029599Y006601D02*
X029599Y006081D01*
X028769Y006331D02*
X028249Y006331D01*
X028249Y005331D02*
X028769Y005331D01*
X028769Y004331D02*
X028249Y004331D01*
X028249Y003331D02*
X028769Y003331D01*
X029599Y002601D02*
X029599Y002081D01*
X025769Y003331D02*
X025249Y003331D01*
X025249Y004331D02*
X025769Y004331D01*
X025769Y005331D02*
X025249Y005331D01*
X025249Y006331D02*
X025769Y006331D01*
X026445Y023087D02*
X026445Y023607D01*
X027445Y023607D02*
X027445Y023087D01*
X028445Y023087D02*
X028445Y023607D01*
X031445Y023607D02*
X031445Y023087D01*
X032445Y023087D02*
X032445Y023607D01*
X033445Y023607D02*
X033445Y023087D01*
X036445Y023087D02*
X036445Y023607D01*
X037445Y023607D02*
X037445Y023087D01*
X038445Y023087D02*
X038445Y023607D01*
X038445Y026087D02*
X038445Y026607D01*
X037445Y026607D02*
X037445Y026087D01*
X036445Y026087D02*
X036445Y026607D01*
X033445Y026607D02*
X033445Y026087D01*
X032445Y026087D02*
X032445Y026607D01*
X031445Y026607D02*
X031445Y026087D01*
X028445Y026087D02*
X028445Y026607D01*
X027445Y026607D02*
X027445Y026087D01*
X026445Y026087D02*
X026445Y026607D01*
X023445Y026607D02*
X023445Y026087D01*
X022445Y026087D02*
X022445Y026607D01*
X021445Y026607D02*
X021445Y026087D01*
X018445Y026087D02*
X018445Y026607D01*
X017445Y026607D02*
X017445Y026087D01*
X016445Y026087D02*
X016445Y026607D01*
X013445Y026607D02*
X013445Y026087D01*
X012445Y026087D02*
X012445Y026607D01*
X011445Y026607D02*
X011445Y026087D01*
X008445Y026087D02*
X008445Y026607D01*
X007445Y026607D02*
X007445Y026087D01*
X006445Y026087D02*
X006445Y026607D01*
X003445Y026607D02*
X003445Y026087D01*
X002445Y026087D02*
X002445Y026607D01*
X001445Y026607D02*
X001445Y026087D01*
X001445Y023607D02*
X001445Y023087D01*
X002445Y023087D02*
X002445Y023607D01*
X003445Y023607D02*
X003445Y023087D01*
X006445Y023087D02*
X006445Y023607D01*
X007445Y023607D02*
X007445Y023087D01*
X008445Y023087D02*
X008445Y023607D01*
X011445Y023607D02*
X011445Y023087D01*
X012445Y023087D02*
X012445Y023607D01*
X013445Y023607D02*
X013445Y023087D01*
X016445Y023087D02*
X016445Y023607D01*
X017445Y023607D02*
X017445Y023087D01*
X018445Y023087D02*
X018445Y023607D01*
X021445Y023607D02*
X021445Y023087D01*
X022445Y023087D02*
X022445Y023607D01*
X023445Y023607D02*
X023445Y023087D01*
X046031Y027683D02*
X046031Y028203D01*
X047031Y028203D02*
X047031Y027683D01*
X048031Y027683D02*
X048031Y028203D01*
X049031Y028203D02*
X049031Y027683D01*
X049031Y030683D02*
X049031Y031203D01*
X048031Y031203D02*
X048031Y030683D01*
X047031Y030683D02*
X047031Y031203D01*
X046031Y031203D02*
X046031Y030683D01*
D17*
X037444Y025225D03*
X037444Y024477D03*
X032443Y024471D03*
X032443Y025219D03*
X027448Y025219D03*
X027448Y024471D03*
X022446Y024471D03*
X022446Y025219D03*
X017444Y025219D03*
X017444Y024471D03*
X012442Y024471D03*
X012442Y025219D03*
X007440Y025219D03*
X007440Y024471D03*
X002446Y024471D03*
X002446Y025219D03*
X004559Y016343D03*
X004559Y015595D03*
X009562Y015592D03*
X009562Y016340D03*
X014559Y016340D03*
X014559Y015592D03*
X019562Y015592D03*
X019562Y016340D03*
X024559Y016340D03*
X024559Y015592D03*
X029561Y015592D03*
X029561Y016340D03*
X034558Y016340D03*
X034558Y015592D03*
X039560Y015594D03*
X039560Y016342D03*
X027009Y006468D03*
X027009Y005720D03*
D18*
X027560Y009169D02*
X027560Y009769D01*
X028560Y009769D02*
X028560Y009169D01*
X029560Y009169D02*
X029560Y009769D01*
X032560Y009769D02*
X032560Y009169D01*
X033560Y009169D02*
X033560Y009769D01*
X034560Y009769D02*
X034560Y009169D01*
X037560Y009169D02*
X037560Y009769D01*
X038560Y009769D02*
X038560Y009169D01*
X039560Y009169D02*
X039560Y009769D01*
X024560Y009769D02*
X024560Y009169D01*
X023560Y009169D02*
X023560Y009769D01*
X022560Y009769D02*
X022560Y009169D01*
X019560Y009169D02*
X019560Y009769D01*
X018560Y009769D02*
X018560Y009169D01*
X017560Y009169D02*
X017560Y009769D01*
X014560Y009769D02*
X014560Y009169D01*
X013560Y009169D02*
X013560Y009769D01*
X012560Y009769D02*
X012560Y009169D01*
X009560Y009169D02*
X009560Y009769D01*
X008560Y009769D02*
X008560Y009169D01*
X007560Y009169D02*
X007560Y009769D01*
X004560Y009769D02*
X004560Y009169D01*
X003560Y009169D02*
X003560Y009769D01*
X002560Y009769D02*
X002560Y009169D01*
X002445Y031047D02*
X002445Y031647D01*
X003445Y031647D02*
X003445Y031047D01*
X004445Y031047D02*
X004445Y031647D01*
X007445Y031647D02*
X007445Y031047D01*
X008445Y031047D02*
X008445Y031647D01*
X009445Y031647D02*
X009445Y031047D01*
X012445Y031047D02*
X012445Y031647D01*
X013445Y031647D02*
X013445Y031047D01*
X014445Y031047D02*
X014445Y031647D01*
X017445Y031647D02*
X017445Y031047D01*
X018445Y031047D02*
X018445Y031647D01*
X019445Y031647D02*
X019445Y031047D01*
X022445Y031047D02*
X022445Y031647D01*
X023445Y031647D02*
X023445Y031047D01*
X024445Y031047D02*
X024445Y031647D01*
X027445Y031647D02*
X027445Y031047D01*
X028445Y031047D02*
X028445Y031647D01*
X029445Y031647D02*
X029445Y031047D01*
X032445Y031047D02*
X032445Y031647D01*
X033445Y031647D02*
X033445Y031047D01*
X034445Y031047D02*
X034445Y031647D01*
X037445Y031647D02*
X037445Y031047D01*
X038445Y031047D02*
X038445Y031647D01*
X039445Y031647D02*
X039445Y031047D01*
X052270Y031107D02*
X052270Y031707D01*
X053270Y031707D02*
X053270Y031107D01*
X054270Y031107D02*
X054270Y031707D01*
D19*
X044311Y030693D02*
X043751Y030693D01*
X043751Y029693D02*
X044311Y029693D01*
D20*
X045157Y029193D03*
X045905Y029193D03*
D21*
X052414Y021489D02*
X053008Y021489D01*
X053008Y020489D02*
X052414Y020489D01*
X052414Y019489D02*
X053008Y019489D01*
X053008Y018489D02*
X052414Y018489D01*
X052394Y017092D02*
X052988Y017092D01*
X052988Y016092D02*
X052394Y016092D01*
X052394Y015092D02*
X052988Y015092D01*
X052988Y014092D02*
X052394Y014092D01*
X052394Y013092D02*
X052988Y013092D01*
D22*
X002950Y006302D03*
X005903Y006302D03*
X008856Y006302D03*
X011809Y006302D03*
X014761Y006302D03*
X017714Y006302D03*
X020667Y006302D03*
X023620Y006302D03*
X034992Y006240D03*
X037944Y006240D03*
X040704Y006269D03*
X043657Y006269D03*
X046610Y006269D03*
X049563Y006269D03*
X052515Y006269D03*
X055468Y006269D03*
X058421Y006269D03*
X061374Y006269D03*
X061235Y034597D03*
X058282Y034597D03*
X054762Y034597D03*
X051810Y034597D03*
X048857Y034597D03*
X045904Y034597D03*
X040570Y034597D03*
X037617Y034597D03*
X023689Y034602D03*
X020736Y034602D03*
X017784Y034602D03*
X014831Y034602D03*
X011878Y034602D03*
X008925Y034602D03*
X005973Y034602D03*
X003020Y034602D03*
D23*
X004943Y029768D03*
X004943Y027768D03*
X009847Y027768D03*
X009847Y029768D03*
X014825Y029768D03*
X014825Y027768D03*
X019850Y027768D03*
X019850Y029768D03*
X024951Y029768D03*
X024951Y027768D03*
X029927Y027768D03*
X029927Y029768D03*
X034931Y029768D03*
X034931Y027768D03*
X039942Y027768D03*
X039942Y029768D03*
X037043Y013019D03*
X037043Y011019D03*
X032167Y011019D03*
X032167Y013019D03*
X027164Y013019D03*
X027164Y011019D03*
X022169Y011019D03*
X022169Y013019D03*
X017165Y013019D03*
X017165Y011019D03*
X012168Y011019D03*
X012168Y013019D03*
X007175Y013019D03*
X007175Y011019D03*
X002149Y011019D03*
X002149Y013019D03*
D24*
X034695Y004601D03*
X034695Y002594D03*
X038238Y002594D03*
X038238Y004601D03*
D25*
X033069Y004722D03*
X030864Y004722D03*
X030864Y002597D03*
X033069Y002597D03*
D26*
X027009Y004127D02*
X026834Y004127D01*
X026151Y004810D01*
X024706Y004810D01*
X024547Y004651D01*
X024547Y003563D01*
X024785Y003325D01*
X025502Y003325D01*
X025509Y003331D01*
X026745Y004875D02*
X026269Y005351D01*
X026269Y006308D01*
X026292Y006331D01*
X026745Y004875D02*
X027009Y004875D01*
X028701Y011974D02*
X028667Y012008D01*
X028667Y012245D01*
X023667Y012245D02*
X023667Y012018D01*
X023623Y011974D01*
X018946Y011974D02*
X018675Y012245D01*
X018667Y012245D01*
X013696Y011974D02*
X013667Y012002D01*
X013667Y012245D01*
X008667Y012245D02*
X008667Y012024D01*
X008618Y011974D01*
X003667Y012006D02*
X003635Y011974D01*
X003667Y012006D02*
X003667Y012245D01*
X004560Y017469D02*
X004555Y022238D01*
X017928Y022238D01*
X018291Y021539D02*
X018329Y021538D01*
X018649Y021538D01*
X018291Y021539D02*
X009555Y021539D01*
X009560Y017469D01*
X014560Y017469D02*
X014560Y020776D01*
X019571Y020776D01*
X020644Y021051D02*
X020671Y021051D01*
X020644Y021051D02*
X020644Y018767D01*
X019560Y018767D01*
X019560Y017469D01*
X024560Y017469D02*
X024560Y019742D01*
X040569Y019742D01*
X040569Y025474D01*
X045884Y025474D01*
X045563Y024649D02*
X040951Y024649D01*
X040951Y019284D01*
X029560Y019284D01*
X029560Y017469D01*
X034560Y017469D02*
X034560Y018871D01*
X041292Y018904D01*
X041292Y023994D01*
X045031Y023961D01*
X044259Y023365D02*
X041677Y023365D01*
X041677Y018459D01*
X039560Y018459D01*
X039560Y017469D01*
X042003Y014920D02*
X042745Y014920D01*
X042745Y020216D01*
X044801Y020216D01*
X044804Y020469D02*
X045730Y020469D01*
X045940Y020679D01*
X045940Y021032D01*
X047687Y022779D01*
X055838Y022779D01*
X056660Y021958D01*
X056660Y020653D01*
X058009Y019304D01*
X058009Y021568D02*
X056318Y023260D01*
X047814Y023260D01*
X045719Y021165D01*
X045719Y020800D01*
X045631Y020712D01*
X044816Y020712D01*
X044801Y020728D01*
X044801Y020983D02*
X045472Y020983D01*
X045472Y021305D01*
X048411Y024243D01*
X048469Y024185D01*
X058235Y024185D01*
X061374Y021046D01*
X061374Y006269D01*
X053928Y007176D02*
X053928Y003336D01*
X053144Y002553D01*
X041711Y002553D01*
X040692Y003571D01*
X040692Y006256D01*
X040704Y006269D01*
X041742Y006654D02*
X041742Y003830D01*
X042338Y003234D01*
X049481Y003234D01*
X052515Y006269D01*
X053928Y007176D02*
X052517Y008587D01*
X045743Y008587D01*
X044060Y010271D01*
X044060Y019192D01*
X044801Y019192D01*
X044801Y018936D02*
X045349Y018936D01*
X045349Y018505D01*
X045349Y017928D01*
X045503Y017774D01*
X046821Y018335D02*
X046821Y019192D01*
X047655Y019192D01*
X047655Y019448D02*
X047655Y019452D01*
X048293Y019452D01*
X048293Y016679D01*
X047630Y016679D01*
X048857Y016977D02*
X048857Y019704D01*
X047655Y019704D01*
X047655Y019960D02*
X047655Y019961D01*
X049371Y019961D01*
X049371Y017482D01*
X049868Y018433D02*
X049868Y020210D01*
X047655Y020210D01*
X047655Y020216D01*
X047655Y020472D02*
X047221Y020472D01*
X046757Y020007D01*
X045809Y020007D01*
X046297Y020418D02*
X046306Y020569D01*
X046941Y020569D01*
X047100Y020728D01*
X047655Y020728D01*
X047655Y020983D02*
X046766Y020983D01*
X046766Y020992D01*
X047655Y021239D02*
X047655Y021438D01*
X047531Y021651D01*
X044801Y021239D02*
X044677Y021364D01*
X044672Y021652D01*
X044801Y020472D02*
X044804Y020469D01*
X044801Y019960D02*
X043115Y019960D01*
X043115Y014471D01*
X042416Y014471D01*
X042416Y003997D01*
X042797Y003615D01*
X046909Y003615D01*
X049563Y006269D01*
X046610Y006269D02*
X046610Y005889D01*
X045067Y004346D01*
X043493Y004346D01*
X042776Y005062D01*
X042776Y013874D01*
X043455Y013874D01*
X043455Y019704D01*
X044801Y019704D01*
X044801Y019448D02*
X043774Y019448D01*
X043774Y006385D01*
X043657Y006269D01*
X042003Y006654D02*
X041742Y006654D01*
X042003Y006654D02*
X042003Y014920D01*
X044346Y013924D02*
X044346Y018813D01*
X044346Y018936D02*
X044801Y018936D01*
X044346Y018936D02*
X044346Y013924D01*
X044420Y013999D01*
X045195Y014747D02*
X045195Y015333D01*
X045132Y015396D01*
X047030Y015394D02*
X047030Y014733D01*
X047030Y015394D02*
X047032Y015396D01*
X047030Y013985D02*
X047042Y013973D01*
X050376Y016092D02*
X050376Y019464D01*
X050376Y016092D02*
X052691Y016092D01*
X049109Y024947D02*
X048004Y024947D01*
X046036Y026915D01*
X046036Y027939D01*
X046031Y027943D01*
X049031Y027943D02*
X049031Y025766D01*
X048766Y025501D01*
X038445Y028571D02*
X038445Y028806D01*
X028463Y028806D02*
X028434Y028806D01*
X028463Y028806D02*
X028463Y028571D01*
X023470Y028787D02*
X023460Y028787D01*
X023460Y028571D01*
X018445Y028571D02*
X018445Y028787D01*
X013455Y028787D02*
X013455Y028571D01*
X008445Y028571D02*
X008445Y028787D01*
X003445Y028787D02*
X003445Y028571D01*
X033667Y012245D02*
X033667Y012010D01*
X033703Y011974D01*
X038514Y011974D02*
X038560Y012020D01*
X038560Y012095D01*
D27*
X038560Y012843D02*
X038560Y013019D01*
X037043Y013019D01*
X037043Y011019D02*
X037043Y009469D01*
X037560Y009469D01*
X037944Y006240D02*
X037944Y004895D01*
X038238Y004601D01*
X036952Y004840D02*
X036952Y003879D01*
X038238Y002594D01*
X036952Y004840D02*
X035553Y006240D01*
X034992Y006240D01*
X034695Y004601D02*
X033190Y004601D01*
X033069Y004722D01*
X030864Y004722D02*
X030255Y005331D01*
X029580Y005331D01*
X029599Y005350D01*
X029599Y006341D01*
X029580Y005331D02*
X028509Y005331D01*
X027009Y006468D02*
X026873Y006331D01*
X026292Y006331D01*
X025509Y006331D01*
X028509Y004331D02*
X029739Y004331D01*
X029964Y004107D01*
X029964Y003498D01*
X030864Y002597D01*
X030869Y002592D01*
X030869Y002292D01*
X030819Y002341D01*
X029599Y002341D01*
X033069Y002597D02*
X033073Y002594D01*
X034695Y002594D01*
X032560Y009469D02*
X032167Y009469D01*
X032167Y011019D01*
X032167Y013019D02*
X033667Y013019D01*
X033667Y012993D01*
X034558Y015592D02*
X029561Y015592D01*
X024559Y015592D01*
X019562Y015592D01*
X014559Y015592D01*
X009562Y015592D01*
X009562Y015592D01*
X004559Y015592D01*
X004559Y015595D01*
X004559Y016343D02*
X003560Y016343D01*
X003560Y017469D01*
X001789Y016455D02*
X001789Y020360D01*
X004737Y023308D01*
X004737Y025219D01*
X002446Y025219D01*
X004737Y025219D02*
X007440Y025219D01*
X012442Y025219D01*
X017444Y025219D01*
X022446Y025219D01*
X027448Y025219D01*
X032443Y025219D01*
X032443Y025225D02*
X037444Y025225D01*
X039611Y025225D01*
X039984Y024851D01*
X039942Y027768D02*
X039942Y027823D01*
X038445Y027823D01*
X039445Y029768D02*
X039942Y029768D01*
X039445Y029768D02*
X039445Y031347D01*
X034931Y029768D02*
X034445Y029768D01*
X034445Y031347D01*
X029927Y029768D02*
X029445Y029768D01*
X029445Y031347D01*
X024951Y029768D02*
X024445Y029768D01*
X024445Y031347D01*
X019850Y029768D02*
X019445Y029768D01*
X019445Y031347D01*
X018455Y028571D02*
X018445Y028571D01*
X018455Y027823D02*
X019850Y027823D01*
X019850Y027768D01*
X023460Y027823D02*
X024951Y027823D01*
X024951Y027768D01*
X028463Y027823D02*
X029927Y027823D01*
X029927Y027768D01*
X033463Y027823D02*
X034931Y027823D01*
X034931Y027768D01*
X044031Y029693D02*
X044657Y029693D01*
X045157Y029193D01*
X045905Y029193D02*
X045905Y029254D01*
X046749Y030097D01*
X046749Y030661D01*
X047031Y030943D01*
X048031Y030943D02*
X048031Y032324D01*
X045904Y034597D01*
X049031Y030943D02*
X049031Y030319D01*
X047905Y029193D01*
X047905Y028069D01*
X048031Y027943D01*
X047157Y028069D02*
X047031Y027943D01*
X047157Y028069D02*
X047157Y029193D01*
X049031Y030943D02*
X050164Y029810D01*
X052301Y029810D01*
X053270Y030780D01*
X053270Y031407D01*
X054270Y031407D02*
X054270Y031990D01*
X051810Y034597D01*
X052733Y027526D02*
X056803Y027526D01*
X056127Y026735D02*
X053188Y026735D01*
X053007Y026554D01*
X052007Y026554D02*
X052007Y026800D01*
X052733Y027526D01*
X052711Y019489D02*
X053714Y019489D01*
X055897Y017305D01*
X055897Y014237D01*
X054749Y013089D01*
X052694Y013089D01*
X052691Y013092D01*
X049278Y013092D01*
X048398Y013973D01*
X047042Y013973D01*
X047030Y013985D02*
X045670Y013985D01*
X045195Y013999D01*
X045276Y013918D01*
X045276Y012507D01*
X045195Y013999D02*
X044420Y013999D01*
X039560Y015594D02*
X002651Y015594D01*
X001789Y016455D01*
X002149Y013019D02*
X003667Y013019D01*
X003667Y012993D01*
X002149Y011019D02*
X002149Y009469D01*
X002560Y009469D01*
X007175Y009469D02*
X007175Y011019D01*
X007175Y009469D02*
X007560Y009469D01*
X012168Y009469D02*
X012168Y011019D01*
X012168Y009469D02*
X012560Y009469D01*
X017165Y009469D02*
X017165Y011019D01*
X017165Y009469D02*
X017560Y009469D01*
X022169Y009469D02*
X022169Y011019D01*
X022169Y009469D02*
X022560Y009469D01*
X027164Y009469D02*
X027164Y011019D01*
X027164Y009469D02*
X027560Y009469D01*
X027164Y013019D02*
X028667Y013019D01*
X028667Y012993D01*
X028560Y016340D02*
X029561Y016340D01*
X028560Y016340D02*
X028560Y017469D01*
X024559Y016340D02*
X023560Y016340D01*
X023560Y017469D01*
X019562Y016340D02*
X018560Y016340D01*
X018560Y017469D01*
X014559Y016340D02*
X013560Y016340D01*
X013560Y017469D01*
X014559Y015592D02*
X014559Y015592D01*
X013667Y013019D02*
X012168Y013019D01*
X013667Y012993D02*
X013667Y013019D01*
X017165Y013019D02*
X018667Y013019D01*
X018667Y012993D01*
X022169Y013019D02*
X023667Y013019D01*
X023667Y012993D01*
X033560Y016340D02*
X033560Y017469D01*
X033560Y016340D02*
X034558Y016340D01*
X034558Y015594D02*
X034558Y015592D01*
X034558Y015594D02*
X039560Y015594D01*
X039560Y016342D02*
X038560Y016342D01*
X038560Y017469D01*
X014825Y027768D02*
X014825Y027823D01*
X013455Y027823D01*
X013455Y028571D02*
X013445Y028571D01*
X014445Y029768D02*
X014825Y029768D01*
X014445Y029768D02*
X014445Y031347D01*
X009847Y029768D02*
X009445Y029768D01*
X009445Y031347D01*
X008445Y028571D02*
X008441Y028571D01*
X008441Y027823D02*
X009847Y027823D01*
X009847Y027768D01*
X004943Y027768D02*
X004943Y027823D01*
X003445Y027823D01*
X004445Y029768D02*
X004445Y031347D01*
X004445Y029768D02*
X004943Y029768D01*
X008560Y017469D02*
X008560Y016340D01*
X009562Y016340D01*
X008667Y013019D02*
X007175Y013019D01*
X008667Y012993D02*
X008667Y013019D01*
D28*
X019571Y020776D03*
X020671Y021051D03*
X018649Y021538D03*
X017928Y022238D03*
X039984Y024851D03*
X044259Y023365D03*
X045031Y023961D03*
X045563Y024649D03*
X045884Y025474D03*
X048766Y025501D03*
X049109Y024947D03*
X046828Y023364D03*
X047531Y021651D03*
X046766Y020992D03*
X046297Y020418D03*
X045809Y020007D03*
X045349Y018505D03*
X046821Y018335D03*
X047630Y016679D03*
X048857Y016977D03*
X049371Y017482D03*
X049868Y018433D03*
X050376Y019464D03*
X044672Y021652D03*
X056127Y026735D03*
X056803Y027526D03*
X045276Y012507D03*
D29*
X038445Y023347D02*
X038445Y024477D01*
X037444Y024477D01*
X033445Y024471D02*
X033445Y023347D01*
X033445Y024471D02*
X032443Y024471D01*
X032443Y025219D02*
X032443Y025225D01*
X028445Y024471D02*
X028445Y023347D01*
X028445Y024471D02*
X027448Y024471D01*
X023445Y024471D02*
X023445Y023347D01*
X023445Y024471D02*
X022446Y024471D01*
X018445Y024471D02*
X018445Y023347D01*
X018445Y024471D02*
X017444Y024471D01*
X013445Y024471D02*
X013445Y023347D01*
X013445Y024471D02*
X012442Y024471D01*
X008445Y024471D02*
X008445Y023347D01*
X008445Y024471D02*
X007440Y024471D01*
X003445Y024471D02*
X003445Y023347D01*
X003445Y024471D02*
X002446Y024471D01*
D30*
X027009Y005720D02*
X027346Y005720D01*
X027591Y005475D01*
X027591Y003280D01*
X027076Y002765D01*
X025509Y004331D01*
X027076Y002765D02*
X027076Y001558D01*
X039280Y001578D01*
X039280Y007497D01*
X041510Y007497D01*
X041510Y015468D01*
X042216Y015468D01*
X042216Y022870D01*
X044617Y022870D01*
X045031Y023364D01*
X046828Y023364D01*
X058009Y021568D02*
X059034Y020543D01*
X059034Y009541D01*
X058421Y008928D01*
X058421Y006269D01*
X055468Y006269D02*
X055468Y007860D01*
X058007Y010399D01*
X058007Y019302D01*
X058009Y019304D01*
D31*
X038514Y011974D02*
X033703Y011974D01*
X033569Y011974D01*
X033560Y011964D01*
X033560Y009469D01*
X032560Y009469D02*
X031392Y008301D01*
X022635Y008301D01*
X020667Y006333D01*
X020667Y006302D01*
X021267Y008176D02*
X022560Y009469D01*
X023560Y009469D02*
X023560Y011873D01*
X023661Y011974D01*
X028606Y011974D01*
X028560Y011928D01*
X028560Y009469D01*
X027560Y009469D02*
X027555Y009473D01*
X024545Y007333D02*
X035424Y007333D01*
X037560Y009469D01*
X038529Y009437D02*
X038560Y009469D01*
X038557Y009466D01*
X038557Y008653D01*
X037944Y008041D01*
X037944Y006240D01*
X038552Y009469D02*
X038552Y011783D01*
X038514Y011783D01*
X038514Y011974D01*
X038552Y009469D02*
X038560Y009469D01*
X033569Y011974D02*
X028701Y011974D01*
X028606Y011974D01*
X023661Y011974D02*
X023623Y011974D01*
X018946Y011974D01*
X018793Y011974D01*
X018560Y011741D01*
X018560Y009469D01*
X017560Y009469D02*
X016282Y008191D01*
X013376Y008191D01*
X011809Y006624D01*
X011809Y006302D01*
X011343Y008264D02*
X009380Y006302D01*
X008856Y006302D01*
X007560Y007959D02*
X007560Y009469D01*
X008560Y009469D02*
X008560Y011821D01*
X008713Y011974D01*
X008618Y011974D01*
X003635Y011974D01*
X003635Y011898D01*
X003560Y011823D01*
X003560Y009469D01*
X002560Y009469D02*
X002560Y006692D01*
X002950Y006302D01*
X005903Y006302D02*
X007560Y007959D01*
X011343Y008264D02*
X011356Y008264D01*
X012560Y009469D01*
X013560Y009469D02*
X013560Y011781D01*
X013753Y011974D01*
X018793Y011974D01*
X013753Y011974D02*
X013696Y011974D01*
X008713Y011974D01*
X014761Y006302D02*
X015715Y006302D01*
X017589Y008176D01*
X021267Y008176D01*
X023620Y006407D02*
X024545Y007333D01*
X023620Y006407D02*
X023620Y006302D01*
X023470Y028787D02*
X018392Y028787D01*
X018445Y028787D01*
X018445Y031347D01*
X019445Y031347D02*
X019445Y032052D01*
X018910Y032587D01*
X014913Y032587D01*
X012901Y034598D01*
X011882Y034598D01*
X011878Y034602D01*
X010460Y032945D02*
X013312Y032945D01*
X014445Y031813D01*
X014445Y031347D01*
X013445Y031347D02*
X013445Y028787D01*
X013455Y028787D01*
X008445Y028787D01*
X003445Y028787D01*
X003425Y028787D01*
X003445Y028787D02*
X003445Y031347D01*
X004445Y031347D02*
X004445Y033177D01*
X003020Y034602D01*
X005973Y034602D02*
X007896Y032679D01*
X008862Y032679D01*
X009445Y032096D01*
X009445Y031347D01*
X008445Y031347D02*
X008445Y028787D01*
X013455Y028787D02*
X018392Y028787D01*
X023445Y031347D02*
X023470Y031347D01*
X023470Y028806D01*
X023470Y028787D01*
X023470Y028806D02*
X028434Y028806D01*
X028445Y028806D01*
X028445Y031347D01*
X029445Y031347D02*
X029445Y032124D01*
X029068Y032501D01*
X025326Y032501D01*
X024342Y033485D01*
X020493Y033485D01*
X019381Y034598D01*
X017788Y034598D01*
X017784Y034602D01*
X019210Y033507D02*
X015926Y033507D01*
X014831Y034602D01*
X019210Y033507D02*
X020151Y032565D01*
X023914Y032565D01*
X024445Y032034D01*
X024445Y031347D01*
X028434Y028806D02*
X033272Y028806D01*
X038445Y028806D01*
X038445Y031347D01*
X038455Y031357D01*
X038455Y033121D01*
X037617Y033959D01*
X037617Y034597D01*
X040570Y034597D01*
X034445Y034246D02*
X034445Y031347D01*
X033463Y031347D02*
X033445Y031347D01*
X033463Y031347D02*
X033463Y028806D01*
X033272Y028806D01*
X033463Y028806D02*
X033463Y028571D01*
X034445Y034246D02*
X032767Y035924D01*
X022059Y035924D01*
X020736Y034602D01*
X010460Y032945D02*
X008925Y034480D01*
X008925Y034602D01*
M02*
